<svg version="1.1" xmlns="http://www.w3.org/2000/svg" xmlns:xlink="http://www.w3.org/1999/xlink" width="969" height="1036"><defs></defs><g><g transform="translate(-14,-30) scale(1,1)"><rect fill="#C0C0C0" stroke="none" x="31" y="47" width="74" height="39" opacity="0.2"></rect></g><g transform="translate(-14,-30) scale(1,1)"><rect fill="#ffffff" stroke="none" x="24" y="40" width="74" height="39"></rect></g><g transform="translate(-14,-30) scale(1,1)"><path fill="none" stroke="#000000" d="M 24 40 L 98 40 L 98 79 L 24 79 L 24 40 Z Z" stroke-miterlimit="10"></path></g><g transform="translate(-14,-30) scale(1,1)"><g><path fill="none" stroke="none"></path><text fill="#000000" stroke="none" font-family="Arial" font-size="13px" font-style="normal" font-weight="bold" text-decoration="none" x="41" y="59.5">aClient</text></g></g><g transform="translate(-14,-30) scale(1,1)"><path fill="none" stroke="#000000" d="M 62.5 80 L 62.5 1054" stroke-miterlimit="10" stroke-dasharray="3"></path></g><g transform="translate(-14,-30) scale(1,1)"><rect fill="#C0C0C0" stroke="none" x="119" y="47" width="104" height="39" opacity="0.2"></rect></g><g transform="translate(-14,-30) scale(1,1)"><rect fill="#ffffff" stroke="none" x="112" y="40" width="104" height="39"></rect></g><g transform="translate(-14,-30) scale(1,1)"><path fill="none" stroke="#000000" d="M 112 40 L 216 40 L 216 79 L 112 79 L 112 40 Z Z" stroke-miterlimit="10"></path></g><g transform="translate(-14,-30) scale(1,1)"><g><path fill="none" stroke="none"></path><text fill="#000000" stroke="none" font-family="Arial" font-size="13px" font-style="normal" font-weight="bold" text-decoration="none" x="125.5" y="59.5">anXMLParser</text></g></g><g transform="translate(-14,-30) scale(1,1)"><path fill="none" stroke="#000000" d="M 165.5 80 L 165.5 1054" stroke-miterlimit="10" stroke-dasharray="3"></path></g><g transform="translate(-14,-30) scale(1,1)"><rect fill="#C0C0C0" stroke="none" x="231" y="47" width="165" height="39" opacity="0.2"></rect></g><g transform="translate(-14,-30) scale(1,1)"><rect fill="#ffffff" stroke="none" x="224" y="40" width="165" height="39"></rect></g><g transform="translate(-14,-30) scale(1,1)"><path fill="none" stroke="#000000" d="M 224 40 L 389 40 L 389 79 L 224 79 L 224 40 Z Z" stroke-miterlimit="10"></path></g><g transform="translate(-14,-30) scale(1,1)"><g><path fill="none" stroke="none"></path><text fill="#000000" stroke="none" font-family="Arial" font-size="13px" font-style="normal" font-weight="bold" text-decoration="none" x="241.5" y="59.5">aNetLogoGraphBuilder</text></g></g><g transform="translate(-14,-30) scale(1,1)"><path fill="none" stroke="#000000" d="M 307.5 80 L 307.5 1056" stroke-miterlimit="10" stroke-dasharray="3"></path></g><g transform="translate(-14,-30) scale(1,1)"><rect fill="#C0C0C0" stroke="none" x="415" y="47" width="82" height="39" opacity="0.2"></rect></g><g transform="translate(-14,-30) scale(1,1)"><rect fill="#ffffff" stroke="none" x="408" y="40" width="82" height="39"></rect></g><g transform="translate(-14,-30) scale(1,1)"><path fill="none" stroke="#000000" d="M 408 40 L 490 40 L 490 79 L 408 79 L 408 40 Z Z" stroke-miterlimit="10"></path></g><g transform="translate(-14,-30) scale(1,1)"><g><path fill="none" stroke="none"></path><text fill="#000000" stroke="none" font-family="Arial" font-size="13px" font-style="normal" font-weight="bold" text-decoration="none" x="428" y="59.5">aGraph</text></g></g><g transform="translate(-14,-30) scale(1,1)"><path fill="none" stroke="#000000" d="M 450.5 80 L 450.5 1056" stroke-miterlimit="10" stroke-dasharray="3"></path></g><g transform="translate(-14,-30) scale(1,1)"><rect fill="#C0C0C0" stroke="none" x="511" y="47" width="110" height="39" opacity="0.2"></rect></g><g transform="translate(-14,-30) scale(1,1)"><rect fill="#ffffff" stroke="none" x="504" y="40" width="110" height="39"></rect></g><g transform="translate(-14,-30) scale(1,1)"><path fill="none" stroke="#000000" d="M 504 40 L 614 40 L 614 79 L 504 79 L 504 40 Z Z" stroke-miterlimit="10"></path></g><g transform="translate(-14,-30) scale(1,1)"><g><path fill="none" stroke="none"></path><text fill="#000000" stroke="none" font-family="Arial" font-size="13px" font-style="normal" font-weight="bold" text-decoration="none" x="518.5" y="59.5">aRegularNode</text></g></g><g transform="translate(-14,-30) scale(1,1)"><path fill="none" stroke="#000000" d="M 560.5 80 L 560.5 1056" stroke-miterlimit="10" stroke-dasharray="3"></path></g><g transform="translate(-14,-30) scale(1,1)"><rect fill="#C0C0C0" stroke="none" x="639" y="47" width="92" height="39" opacity="0.2"></rect></g><g transform="translate(-14,-30) scale(1,1)"><rect fill="#ffffff" stroke="none" x="632" y="40" width="92" height="39"></rect></g><g transform="translate(-14,-30) scale(1,1)"><path fill="none" stroke="#000000" d="M 632 40 L 724 40 L 724 79 L 632 79 L 632 40 Z Z" stroke-miterlimit="10"></path></g><g transform="translate(-14,-30) scale(1,1)"><g><path fill="none" stroke="none"></path><text fill="#000000" stroke="none" font-family="Arial" font-size="13px" font-style="normal" font-weight="bold" text-decoration="none" x="644.5" y="59.5">anExitPoint</text></g></g><g transform="translate(-14,-30) scale(1,1)"><path fill="none" stroke="#000000" d="M 679.5 80 L 679.5 1056" stroke-miterlimit="10" stroke-dasharray="3"></path></g><g transform="translate(-14,-30) scale(1,1)"><rect fill="#C0C0C0" stroke="none" x="743" y="47" width="136" height="39" opacity="0.2"></rect></g><g transform="translate(-14,-30) scale(1,1)"><rect fill="#ffffff" stroke="none" x="736" y="40" width="136" height="39"></rect></g><g transform="translate(-14,-30) scale(1,1)"><path fill="none" stroke="#000000" d="M 736 40 L 872 40 L 872 79 L 736 79 L 736 40 Z Z" stroke-miterlimit="10"></path></g><g transform="translate(-14,-30) scale(1,1)"><g><path fill="none" stroke="none"></path><text fill="#000000" stroke="none" font-family="Arial" font-size="13px" font-style="normal" font-weight="bold" text-decoration="none" x="751" y="59.5">anUndirectedEdge</text></g></g><g transform="translate(-14,-30) scale(1,1)"><path fill="none" stroke="#000000" d="M 805.5 80 L 805.5 1056" stroke-miterlimit="10" stroke-dasharray="3"></path></g><g transform="translate(-14,-30) scale(1,1)"><rect fill="#C0C0C0" stroke="none" x="887" y="47" width="93" height="39" opacity="0.2"></rect></g><g transform="translate(-14,-30) scale(1,1)"><rect fill="#ffffff" stroke="none" x="880" y="40" width="93" height="39"></rect></g><g transform="translate(-14,-30) scale(1,1)"><path fill="none" stroke="#000000" d="M 880 40 L 973 40 L 973 79 L 880 79 L 880 40 Z Z" stroke-miterlimit="10"></path></g><g transform="translate(-14,-30) scale(1,1)"><g><path fill="none" stroke="none"></path><text fill="#000000" stroke="none" font-family="Arial" font-size="13px" font-style="normal" font-weight="bold" text-decoration="none" x="893" y="59.5">anEvacuate</text></g></g><g transform="translate(-14,-30) scale(1,1)"><path fill="none" stroke="#000000" d="M 927.5 80 L 927.5 1056" stroke-miterlimit="10" stroke-dasharray="3"></path></g><g transform="translate(-14,-30) scale(1,1)"><path fill="none" stroke="#000000" d="M 62 112 L 158 112" stroke-miterlimit="10"></path></g><g transform="translate(-14,-30) scale(1,1)"><path fill="#000000" stroke="none" d="M 147.83732514237585 116.20951775601598 L 158 112 L 147.83732514237585 107.79048224398402"></path></g><g transform="translate(-14,-30) scale(1,1)"><path fill="none" stroke="#000000" d="M 147.83732514237585 116.20951775601598 L 158 112 L 147.83732514237585 107.79048224398402 L 147.83732514237585 116.20951775601598" stroke-miterlimit="10"></path></g><g transform="translate(-14,-30) scale(1,1)"><g><path fill="none" stroke="none"></path><text fill="#000000" stroke="none" font-family="Arial" font-size="13px" font-style="normal" font-weight="normal" text-decoration="none" x="26" y="106">1 : parseDocumentForGraph</text></g></g><g transform="translate(-14,-30) scale(1,1)"><rect fill="#ffffff" stroke="none" x="158" y="112" width="13" height="928"></rect></g><g transform="translate(-14,-30) scale(1,1)"><path fill="none" stroke="#000000" d="M 158 112 L 171 112 L 171 1040 L 158 1040 L 158 112 Z Z" stroke-miterlimit="10"></path></g><g transform="translate(-14,-30) scale(1,1)"><path fill="none" stroke="#000000" d="M 171 121 L 300 121" stroke-miterlimit="10"></path></g><g transform="translate(-14,-30) scale(1,1)"><path fill="#000000" stroke="none" d="M 289.83732514237585 125.20951775601598 L 300 121 L 289.83732514237585 116.79048224398402"></path></g><g transform="translate(-14,-30) scale(1,1)"><path fill="none" stroke="#000000" d="M 289.83732514237585 125.20951775601598 L 300 121 L 289.83732514237585 116.79048224398402 L 289.83732514237585 125.20951775601598" stroke-miterlimit="10"></path></g><g transform="translate(-14,-30) scale(1,1)"><g><path fill="none" stroke="none"></path><text fill="#000000" stroke="none" font-family="Arial" font-size="13px" font-style="normal" font-weight="normal" text-decoration="none" x="195" y="118">2 : buildGraph</text></g></g><g transform="translate(-14,-30) scale(1,1)"><rect fill="#ffffff" stroke="none" x="300" y="121" width="13" height="28"></rect></g><g transform="translate(-14,-30) scale(1,1)"><path fill="none" stroke="#000000" d="M 300 121 L 313 121 L 313 149 L 300 149 L 300 121 Z Z" stroke-miterlimit="10"></path></g><g transform="translate(-14,-30) scale(1,1)"><path fill="none" stroke="#000000" d="M 313 128 L 443 128" stroke-miterlimit="10"></path></g><g transform="translate(-14,-30) scale(1,1)"><path fill="#000000" stroke="none" d="M 432.83732514237585 132.209517756016 L 443 128 L 432.83732514237585 123.79048224398402"></path></g><g transform="translate(-14,-30) scale(1,1)"><path fill="none" stroke="#000000" d="M 432.83732514237585 132.209517756016 L 443 128 L 432.83732514237585 123.79048224398402 L 432.83732514237585 132.209517756016" stroke-miterlimit="10"></path></g><g transform="translate(-14,-30) scale(1,1)"><g><path fill="none" stroke="none"></path><text fill="#000000" stroke="none" font-family="Arial" font-size="13px" font-style="normal" font-weight="normal" text-decoration="none" x="338" y="125">3 : new Graph</text></g></g><g transform="translate(-14,-30) scale(1,1)"><rect fill="#ffffff" stroke="none" x="443" y="128" width="13" height="28"></rect></g><g transform="translate(-14,-30) scale(1,1)"><path fill="none" stroke="#000000" d="M 443 128 L 456 128 L 456 156 L 443 156 L 443 128 Z Z" stroke-miterlimit="10"></path></g><g transform="translate(-14,-30) scale(1,1)"><path fill="none" stroke="#000000" d="M 171 136 L 201 136 L 201 156 L 178 156" stroke-miterlimit="10"></path></g><g transform="translate(-14,-30) scale(1,1)"><path fill="#000000" stroke="none" d="M 188.16267485762415 151.790482243984 L 178 156 L 188.16267485762415 160.209517756016"></path></g><g transform="translate(-14,-30) scale(1,1)"><path fill="none" stroke="#000000" d="M 188.16267485762415 151.790482243984 L 178 156 L 188.16267485762415 160.209517756016 L 188.16267485762415 151.790482243984" stroke-miterlimit="10"></path></g><g transform="translate(-14,-30) scale(1,1)"><g><path fill="none" stroke="none"></path><text fill="#000000" stroke="none" font-family="Arial" font-size="13px" font-style="normal" font-weight="normal" text-decoration="none" x="191" y="152">4 : parseTree</text></g></g><g transform="translate(-14,-30) scale(1,1)"><rect fill="#ffffff" stroke="none" x="165" y="156" width="13" height="812"></rect></g><g transform="translate(-14,-30) scale(1,1)"><path fill="none" stroke="#000000" d="M 165 156 L 178 156 L 178 968 L 165 968 L 165 156 Z Z" stroke-miterlimit="10"></path></g><g transform="translate(-14,-30) scale(1,1)"><path fill="none" stroke="#000000" d="M 178 176 L 208 176 L 208 196 L 185 196" stroke-miterlimit="10"></path></g><g transform="translate(-14,-30) scale(1,1)"><path fill="#000000" stroke="none" d="M 195.16267485762415 191.790482243984 L 185 196 L 195.16267485762415 200.209517756016"></path></g><g transform="translate(-14,-30) scale(1,1)"><path fill="none" stroke="#000000" d="M 195.16267485762415 191.790482243984 L 185 196 L 195.16267485762415 200.209517756016 L 195.16267485762415 191.790482243984" stroke-miterlimit="10"></path></g><g transform="translate(-14,-30) scale(1,1)"><g><path fill="none" stroke="none"></path><text fill="#000000" stroke="none" font-family="Arial" font-size="13px" font-style="normal" font-weight="normal" text-decoration="none" x="191" y="192">5 : parseNodes</text></g></g><g transform="translate(-14,-30) scale(1,1)"><rect fill="#ffffff" stroke="none" x="172" y="196" width="13" height="316"></rect></g><g transform="translate(-14,-30) scale(1,1)"><path fill="none" stroke="#000000" d="M 172 196 L 185 196 L 185 512 L 172 512 L 172 196 Z Z" stroke-miterlimit="10"></path></g><g transform="translate(-14,-30) scale(1,1)"><path fill="none" stroke="#000000" d="M 185 224 L 300 224" stroke-miterlimit="10"></path></g><g transform="translate(-14,-30) scale(1,1)"><path fill="#000000" stroke="none" d="M 289.83732514237585 228.209517756016 L 300 224 L 289.83732514237585 219.790482243984"></path></g><g transform="translate(-14,-30) scale(1,1)"><path fill="none" stroke="#000000" d="M 289.83732514237585 228.209517756016 L 300 224 L 289.83732514237585 219.790482243984 L 289.83732514237585 228.209517756016" stroke-miterlimit="10"></path></g><g transform="translate(-14,-30) scale(1,1)"><g><path fill="none" stroke="none"></path><text fill="#000000" stroke="none" font-family="Arial" font-size="13px" font-style="normal" font-weight="normal" text-decoration="none" x="189" y="220">6 : buildRegularNode</text></g></g><g transform="translate(-14,-30) scale(1,1)"><rect fill="#ffffff" stroke="none" x="300" y="224" width="13" height="120"></rect></g><g transform="translate(-14,-30) scale(1,1)"><path fill="none" stroke="#000000" d="M 300 224 L 313 224 L 313 344 L 300 344 L 300 224 Z Z" stroke-miterlimit="10"></path></g><g transform="translate(-14,-30) scale(1,1)"><path fill="none" stroke="#000000" d="M 313 232 L 553 232" stroke-miterlimit="10"></path></g><g transform="translate(-14,-30) scale(1,1)"><path fill="#000000" stroke="none" d="M 542.8373251423759 236.209517756016 L 553 232 L 542.8373251423758 227.790482243984"></path></g><g transform="translate(-14,-30) scale(1,1)"><path fill="none" stroke="#000000" d="M 542.8373251423759 236.209517756016 L 553 232 L 542.8373251423758 227.790482243984 L 542.8373251423759 236.209517756016" stroke-miterlimit="10"></path></g><g transform="translate(-14,-30) scale(1,1)"><g><path fill="none" stroke="none"></path><text fill="#000000" stroke="none" font-family="Arial" font-size="13px" font-style="normal" font-weight="normal" text-decoration="none" x="354" y="229">7 : validateNodeParameters</text></g></g><g transform="translate(-14,-30) scale(1,1)"><g><path fill="none" stroke="none"></path><text fill="#000000" stroke="none" font-family="Arial" font-size="13px" font-style="normal" font-weight="normal" text-decoration="none" x="410" y="214">«static»</text></g></g><g transform="translate(-14,-30) scale(1,1)"><rect fill="#ffffff" stroke="none" x="553" y="232" width="13" height="28"></rect></g><g transform="translate(-14,-30) scale(1,1)"><path fill="none" stroke="#000000" d="M 553 232 L 566 232 L 566 260 L 553 260 L 553 232 Z Z" stroke-miterlimit="10"></path></g><g transform="translate(-14,-30) scale(1,1)"><path fill="none" stroke="#000000" d="M 313 270 L 553 270" stroke-miterlimit="10"></path></g><g transform="translate(-14,-30) scale(1,1)"><path fill="#000000" stroke="none" d="M 542.8373251423759 274.209517756016 L 553 270 L 542.8373251423758 265.790482243984"></path></g><g transform="translate(-14,-30) scale(1,1)"><path fill="none" stroke="#000000" d="M 542.8373251423759 274.209517756016 L 553 270 L 542.8373251423758 265.790482243984 L 542.8373251423759 274.209517756016" stroke-miterlimit="10"></path></g><g transform="translate(-14,-30) scale(1,1)"><g><path fill="none" stroke="none"></path><text fill="#000000" stroke="none" font-family="Arial" font-size="13px" font-style="normal" font-weight="normal" text-decoration="none" x="373" y="267">8 : new RegularNode</text></g></g><g transform="translate(-14,-30) scale(1,1)"><rect fill="#ffffff" stroke="none" x="553" y="270" width="13" height="28"></rect></g><g transform="translate(-14,-30) scale(1,1)"><path fill="none" stroke="#000000" d="M 553 270 L 566 270 L 566 298 L 553 298 L 553 270 Z Z" stroke-miterlimit="10"></path></g><g transform="translate(-14,-30) scale(1,1)"><path fill="none" stroke="#000000" d="M 313 304 L 443 304" stroke-miterlimit="10"></path></g><g transform="translate(-14,-30) scale(1,1)"><path fill="#000000" stroke="none" d="M 432.83732514237585 308.209517756016 L 443 304 L 432.83732514237585 299.790482243984"></path></g><g transform="translate(-14,-30) scale(1,1)"><path fill="none" stroke="#000000" d="M 432.83732514237585 308.209517756016 L 443 304 L 432.83732514237585 299.790482243984 L 432.83732514237585 308.209517756016" stroke-miterlimit="10"></path></g><g transform="translate(-14,-30) scale(1,1)"><g><path fill="none" stroke="none"></path><text fill="#000000" stroke="none" font-family="Arial" font-size="13px" font-style="normal" font-weight="normal" text-decoration="none" x="343" y="301">9 : addNode</text></g></g><g transform="translate(-14,-30) scale(1,1)"><rect fill="#ffffff" stroke="none" x="443" y="304" width="13" height="28"></rect></g><g transform="translate(-14,-30) scale(1,1)"><path fill="none" stroke="#000000" d="M 443 304 L 456 304 L 456 332 L 443 332 L 443 304 Z Z" stroke-miterlimit="10"></path></g><g transform="translate(-14,-30) scale(1,1)"><path fill="none" stroke="#000000" d="M 185 368 L 300 368" stroke-miterlimit="10"></path></g><g transform="translate(-14,-30) scale(1,1)"><path fill="#000000" stroke="none" d="M 289.83732514237585 372.209517756016 L 300 368 L 289.83732514237585 363.790482243984"></path></g><g transform="translate(-14,-30) scale(1,1)"><path fill="none" stroke="#000000" d="M 289.83732514237585 372.209517756016 L 300 368 L 289.83732514237585 363.790482243984 L 289.83732514237585 372.209517756016" stroke-miterlimit="10"></path></g><g transform="translate(-14,-30) scale(1,1)"><g><path fill="none" stroke="none"></path><text fill="#000000" stroke="none" font-family="Arial" font-size="13px" font-style="normal" font-weight="normal" text-decoration="none" x="189" y="365">10 : buildExitPoint</text></g></g><g transform="translate(-14,-30) scale(1,1)"><rect fill="#ffffff" stroke="none" x="300" y="368" width="13" height="128"></rect></g><g transform="translate(-14,-30) scale(1,1)"><path fill="none" stroke="#000000" d="M 300 368 L 313 368 L 313 496 L 300 496 L 300 368 Z Z" stroke-miterlimit="10"></path></g><g transform="translate(-14,-30) scale(1,1)"><path fill="none" stroke="#000000" d="M 313 384 L 672 384" stroke-miterlimit="10"></path></g><g transform="translate(-14,-30) scale(1,1)"><path fill="#000000" stroke="none" d="M 661.8373251423759 388.209517756016 L 672 384 L 661.8373251423758 379.790482243984"></path></g><g transform="translate(-14,-30) scale(1,1)"><path fill="none" stroke="#000000" d="M 661.8373251423759 388.209517756016 L 672 384 L 661.8373251423758 379.790482243984 L 661.8373251423759 388.209517756016" stroke-miterlimit="10"></path></g><g transform="translate(-14,-30) scale(1,1)"><g><path fill="none" stroke="none"></path><text fill="#000000" stroke="none" font-family="Arial" font-size="13px" font-style="normal" font-weight="normal" text-decoration="none" x="431" y="381">11 : validateExitPoint</text></g></g><g transform="translate(-14,-30) scale(1,1)"><rect fill="#ffffff" stroke="none" x="672" y="384" width="13" height="28"></rect></g><g transform="translate(-14,-30) scale(1,1)"><path fill="none" stroke="#000000" d="M 672 384 L 685 384 L 685 412 L 672 412 L 672 384 Z Z" stroke-miterlimit="10"></path></g><g transform="translate(-14,-30) scale(1,1)"><path fill="none" stroke="#000000" d="M 313 417 L 672 417" stroke-miterlimit="10"></path></g><g transform="translate(-14,-30) scale(1,1)"><path fill="#000000" stroke="none" d="M 661.8373251423759 421.209517756016 L 672 417 L 661.8373251423758 412.790482243984"></path></g><g transform="translate(-14,-30) scale(1,1)"><path fill="none" stroke="#000000" d="M 661.8373251423759 421.209517756016 L 672 417 L 661.8373251423758 412.790482243984 L 661.8373251423759 421.209517756016" stroke-miterlimit="10"></path></g><g transform="translate(-14,-30) scale(1,1)"><g><path fill="none" stroke="none"></path><text fill="#000000" stroke="none" font-family="Arial" font-size="13px" font-style="normal" font-weight="normal" text-decoration="none" x="439" y="414">12 : new ExitPoint</text></g></g><g transform="translate(-14,-30) scale(1,1)"><rect fill="#ffffff" stroke="none" x="672" y="417" width="13" height="28"></rect></g><g transform="translate(-14,-30) scale(1,1)"><path fill="none" stroke="#000000" d="M 672 417 L 685 417 L 685 445 L 672 445 L 672 417 Z Z" stroke-miterlimit="10"></path></g><g transform="translate(-14,-30) scale(1,1)"><path fill="none" stroke="#000000" d="M 313 464 L 443 464" stroke-miterlimit="10"></path></g><g transform="translate(-14,-30) scale(1,1)"><path fill="#000000" stroke="none" d="M 432.83732514237585 468.209517756016 L 443 464 L 432.83732514237585 459.790482243984"></path></g><g transform="translate(-14,-30) scale(1,1)"><path fill="none" stroke="#000000" d="M 432.83732514237585 468.209517756016 L 443 464 L 432.83732514237585 459.790482243984 L 432.83732514237585 468.209517756016" stroke-miterlimit="10"></path></g><g transform="translate(-14,-30) scale(1,1)"><g><path fill="none" stroke="none"></path><text fill="#000000" stroke="none" font-family="Arial" font-size="13px" font-style="normal" font-weight="normal" text-decoration="none" x="340" y="461">13 : addNode</text></g></g><g transform="translate(-14,-30) scale(1,1)"><rect fill="#ffffff" stroke="none" x="443" y="464" width="13" height="28"></rect></g><g transform="translate(-14,-30) scale(1,1)"><path fill="none" stroke="#000000" d="M 443 464 L 456 464 L 456 492 L 443 492 L 443 464 Z Z" stroke-miterlimit="10"></path></g><g transform="translate(-14,-30) scale(1,1)"><path fill="none" stroke="#000000" d="M 178 536 L 208 536 L 208 556 L 185 556" stroke-miterlimit="10"></path></g><g transform="translate(-14,-30) scale(1,1)"><path fill="#000000" stroke="none" d="M 195.16267485762415 551.790482243984 L 185 556 L 195.16267485762415 560.209517756016"></path></g><g transform="translate(-14,-30) scale(1,1)"><path fill="none" stroke="#000000" d="M 195.16267485762415 551.790482243984 L 185 556 L 195.16267485762415 560.209517756016 L 195.16267485762415 551.790482243984" stroke-miterlimit="10"></path></g><g transform="translate(-14,-30) scale(1,1)"><g><path fill="none" stroke="none"></path><text fill="#000000" stroke="none" font-family="Arial" font-size="13px" font-style="normal" font-weight="normal" text-decoration="none" x="170" y="552">14 : parseEdges</text></g></g><g transform="translate(-14,-30) scale(1,1)"><rect fill="#ffffff" stroke="none" x="172" y="556" width="13" height="148"></rect></g><g transform="translate(-14,-30) scale(1,1)"><path fill="none" stroke="#000000" d="M 172 556 L 185 556 L 185 704 L 172 704 L 172 556 Z Z" stroke-miterlimit="10"></path></g><g transform="translate(-14,-30) scale(1,1)"><path fill="none" stroke="#000000" d="M 185 584 L 300 584" stroke-miterlimit="10"></path></g><g transform="translate(-14,-30) scale(1,1)"><path fill="#000000" stroke="none" d="M 289.83732514237585 588.209517756016 L 300 584 L 289.83732514237585 579.790482243984"></path></g><g transform="translate(-14,-30) scale(1,1)"><path fill="none" stroke="#000000" d="M 289.83732514237585 588.209517756016 L 300 584 L 289.83732514237585 579.790482243984 L 289.83732514237585 588.209517756016" stroke-miterlimit="10"></path></g><g transform="translate(-14,-30) scale(1,1)"><g><path fill="none" stroke="none"></path><text fill="#000000" stroke="none" font-family="Arial" font-size="13px" font-style="normal" font-weight="normal" text-decoration="none" x="170" y="581">15 : buildUndirectedEdge</text></g></g><g transform="translate(-14,-30) scale(1,1)"><rect fill="#ffffff" stroke="none" x="300" y="584" width="13" height="112"></rect></g><g transform="translate(-14,-30) scale(1,1)"><path fill="none" stroke="#000000" d="M 300 584 L 313 584 L 313 696 L 300 696 L 300 584 Z Z" stroke-miterlimit="10"></path></g><g transform="translate(-14,-30) scale(1,1)"><path fill="none" stroke="#000000" d="M 313 592 L 798 592" stroke-miterlimit="10"></path></g><g transform="translate(-14,-30) scale(1,1)"><path fill="#000000" stroke="none" d="M 787.8373251423759 596.209517756016 L 798 592 L 787.8373251423758 587.790482243984"></path></g><g transform="translate(-14,-30) scale(1,1)"><path fill="none" stroke="#000000" d="M 787.8373251423759 596.209517756016 L 798 592 L 787.8373251423758 587.790482243984 L 787.8373251423759 596.209517756016" stroke-miterlimit="10"></path></g><g transform="translate(-14,-30) scale(1,1)"><g><path fill="none" stroke="none"></path><text fill="#000000" stroke="none" font-family="Arial" font-size="13px" font-style="normal" font-weight="normal" text-decoration="none" x="483" y="589">16 : new UndirectedEdge</text></g></g><g transform="translate(-14,-30) scale(1,1)"><rect fill="#ffffff" stroke="none" x="798" y="592" width="13" height="28"></rect></g><g transform="translate(-14,-30) scale(1,1)"><path fill="none" stroke="#000000" d="M 798 592 L 811 592 L 811 620 L 798 620 L 798 592 Z Z" stroke-miterlimit="10"></path></g><g transform="translate(-14,-30) scale(1,1)"><path fill="none" stroke="#000000" d="M 313 624 L 443 624" stroke-miterlimit="10"></path></g><g transform="translate(-14,-30) scale(1,1)"><path fill="#000000" stroke="none" d="M 432.83732514237585 628.209517756016 L 443 624 L 432.83732514237585 619.790482243984"></path></g><g transform="translate(-14,-30) scale(1,1)"><path fill="none" stroke="#000000" d="M 432.83732514237585 628.209517756016 L 443 624 L 432.83732514237585 619.790482243984 L 432.83732514237585 628.209517756016" stroke-miterlimit="10"></path></g><g transform="translate(-14,-30) scale(1,1)"><g><path fill="none" stroke="none"></path><text fill="#000000" stroke="none" font-family="Arial" font-size="13px" font-style="normal" font-weight="normal" text-decoration="none" x="340" y="621">17 : addEdge</text></g></g><g transform="translate(-14,-30) scale(1,1)"><rect fill="#ffffff" stroke="none" x="443" y="624" width="13" height="64"></rect></g><g transform="translate(-14,-30) scale(1,1)"><path fill="none" stroke="#000000" d="M 443 624 L 456 624 L 456 688 L 443 688 L 443 624 Z Z" stroke-miterlimit="10"></path></g><g transform="translate(-14,-30) scale(1,1)"><path fill="none" stroke="#000000" d="M 456 632 L 486 632 L 486 652 L 463 652" stroke-miterlimit="10"></path></g><g transform="translate(-14,-30) scale(1,1)"><path fill="#000000" stroke="none" d="M 473.16267485762415 647.790482243984 L 463 652 L 473.16267485762415 656.209517756016"></path></g><g transform="translate(-14,-30) scale(1,1)"><path fill="none" stroke="#000000" d="M 473.16267485762415 647.790482243984 L 463 652 L 473.16267485762415 656.209517756016 L 473.16267485762415 647.790482243984" stroke-miterlimit="10"></path></g><g transform="translate(-14,-30) scale(1,1)"><g><path fill="none" stroke="none"></path><text fill="#000000" stroke="none" font-family="Arial" font-size="13px" font-style="normal" font-weight="normal" text-decoration="none" x="446" y="648">18 : validateEdge</text></g></g><g transform="translate(-14,-30) scale(1,1)"><rect fill="#ffffff" stroke="none" x="450" y="652" width="13" height="28"></rect></g><g transform="translate(-14,-30) scale(1,1)"><path fill="none" stroke="#000000" d="M 450 652 L 463 652 L 463 680 L 450 680 L 450 652 Z Z" stroke-miterlimit="10"></path></g><g transform="translate(-14,-30) scale(1,1)"><path fill="none" stroke="#000000" d="M 178 752 L 208 752 L 208 772 L 185 772" stroke-miterlimit="10"></path></g><g transform="translate(-14,-30) scale(1,1)"><path fill="#000000" stroke="none" d="M 195.16267485762415 767.790482243984 L 185 772 L 195.16267485762415 776.209517756016"></path></g><g transform="translate(-14,-30) scale(1,1)"><path fill="none" stroke="#000000" d="M 195.16267485762415 767.790482243984 L 185 772 L 195.16267485762415 776.209517756016 L 195.16267485762415 767.790482243984" stroke-miterlimit="10"></path></g><g transform="translate(-14,-30) scale(1,1)"><g><path fill="none" stroke="none"></path><text fill="#000000" stroke="none" font-family="Arial" font-size="13px" font-style="normal" font-weight="normal" text-decoration="none" x="183" y="749">19 : parseBehaviors</text></g></g><g transform="translate(-14,-30) scale(1,1)"><rect fill="#ffffff" stroke="none" x="172" y="772" width="13" height="188"></rect></g><g transform="translate(-14,-30) scale(1,1)"><path fill="none" stroke="#000000" d="M 172 772 L 185 772 L 185 960 L 172 960 L 172 772 Z Z" stroke-miterlimit="10"></path></g><g transform="translate(-14,-30) scale(1,1)"><path fill="none" stroke="#000000" d="M 185 792 L 300 792" stroke-miterlimit="10"></path></g><g transform="translate(-14,-30) scale(1,1)"><path fill="#000000" stroke="none" d="M 289.83732514237585 796.209517756016 L 300 792 L 289.83732514237585 787.790482243984"></path></g><g transform="translate(-14,-30) scale(1,1)"><path fill="none" stroke="#000000" d="M 289.83732514237585 796.209517756016 L 300 792 L 289.83732514237585 787.790482243984 L 289.83732514237585 796.209517756016" stroke-miterlimit="10"></path></g><g transform="translate(-14,-30) scale(1,1)"><g><path fill="none" stroke="none"></path><text fill="#000000" stroke="none" font-family="Arial" font-size="13px" font-style="normal" font-weight="normal" text-decoration="none" x="206" y="789">20 : buildEvacuateBehavior</text></g></g><g transform="translate(-14,-30) scale(1,1)"><rect fill="#ffffff" stroke="none" x="300" y="792" width="13" height="56"></rect></g><g transform="translate(-14,-30) scale(1,1)"><path fill="none" stroke="#000000" d="M 300 792 L 313 792 L 313 848 L 300 848 L 300 792 Z Z" stroke-miterlimit="10"></path></g><g transform="translate(-14,-30) scale(1,1)"><path fill="none" stroke="#000000" d="M 313 800 L 920 800" stroke-miterlimit="10"></path></g><g transform="translate(-14,-30) scale(1,1)"><path fill="#000000" stroke="none" d="M 909.8373251423759 804.209517756016 L 920 800 L 909.8373251423758 795.790482243984"></path></g><g transform="translate(-14,-30) scale(1,1)"><path fill="none" stroke="#000000" d="M 909.8373251423759 804.209517756016 L 920 800 L 909.8373251423758 795.790482243984 L 909.8373251423759 804.209517756016" stroke-miterlimit="10"></path></g><g transform="translate(-14,-30) scale(1,1)"><g><path fill="none" stroke="none"></path><text fill="#000000" stroke="none" font-family="Arial" font-size="13px" font-style="normal" font-weight="normal" text-decoration="none" x="539" y="797">21 : new EvacuateBehavior</text></g></g><g transform="translate(-14,-30) scale(1,1)"><rect fill="#ffffff" stroke="none" x="920" y="800" width="13" height="28"></rect></g><g transform="translate(-14,-30) scale(1,1)"><path fill="none" stroke="#000000" d="M 920 800 L 933 800 L 933 828 L 920 828 L 920 800 Z Z" stroke-miterlimit="10"></path></g><g transform="translate(-14,-30) scale(1,1)"><path fill="none" stroke="#000000" d="M 313 820 L 443 820" stroke-miterlimit="10"></path></g><g transform="translate(-14,-30) scale(1,1)"><path fill="#000000" stroke="none" d="M 432.83732514237585 824.209517756016 L 443 820 L 432.83732514237585 815.790482243984"></path></g><g transform="translate(-14,-30) scale(1,1)"><path fill="none" stroke="#000000" d="M 432.83732514237585 824.209517756016 L 443 820 L 432.83732514237585 815.790482243984 L 432.83732514237585 824.209517756016" stroke-miterlimit="10"></path></g><g transform="translate(-14,-30) scale(1,1)"><g><path fill="none" stroke="none"></path><text fill="#000000" stroke="none" font-family="Arial" font-size="13px" font-style="normal" font-weight="normal" text-decoration="none" x="330" y="817">22 : addBehavior</text></g></g><g transform="translate(-14,-30) scale(1,1)"><rect fill="#ffffff" stroke="none" x="443" y="820" width="13" height="28"></rect></g><g transform="translate(-14,-30) scale(1,1)"><path fill="none" stroke="#000000" d="M 443 820 L 456 820 L 456 848 L 443 848 L 443 820 Z Z" stroke-miterlimit="10"></path></g><g transform="translate(-14,-30) scale(1,1)"><path fill="none" stroke="#000000" d="M 185 864 L 300 864" stroke-miterlimit="10"></path></g><g transform="translate(-14,-30) scale(1,1)"><path fill="#000000" stroke="none" d="M 289.83732514237585 868.209517756016 L 300 864 L 289.83732514237585 859.790482243984"></path></g><g transform="translate(-14,-30) scale(1,1)"><path fill="none" stroke="#000000" d="M 289.83732514237585 868.209517756016 L 300 864 L 289.83732514237585 859.790482243984 L 289.83732514237585 868.209517756016" stroke-miterlimit="10"></path></g><g transform="translate(-14,-30) scale(1,1)"><g><path fill="none" stroke="none"></path><text fill="#000000" stroke="none" font-family="Arial" font-size="13px" font-style="normal" font-weight="normal" text-decoration="none" x="179" y="861">23 : buildInterestPoint</text></g></g><g transform="translate(-14,-30) scale(1,1)"><rect fill="#ffffff" stroke="none" x="300" y="864" width="13" height="80"></rect></g><g transform="translate(-14,-30) scale(1,1)"><path fill="none" stroke="#000000" d="M 300 864 L 313 864 L 313 944 L 300 944 L 300 864 Z Z" stroke-miterlimit="10"></path></g><g transform="translate(-14,-30) scale(1,1)"><path fill="none" stroke="#000000" d="M 313 874 L 443 874" stroke-miterlimit="10"></path></g><g transform="translate(-14,-30) scale(1,1)"><path fill="#000000" stroke="none" d="M 432.83732514237585 878.209517756016 L 443 874 L 432.83732514237585 869.790482243984"></path></g><g transform="translate(-14,-30) scale(1,1)"><path fill="none" stroke="#000000" d="M 432.83732514237585 878.209517756016 L 443 874 L 432.83732514237585 869.790482243984 L 432.83732514237585 878.209517756016" stroke-miterlimit="10"></path></g><g transform="translate(-14,-30) scale(1,1)"><g><path fill="none" stroke="none"></path><text fill="#000000" stroke="none" font-family="Arial" font-size="13px" font-style="normal" font-weight="normal" text-decoration="none" x="322" y="871">24 : getNodeFromCoordinates</text></g></g><g transform="translate(-14,-30) scale(1,1)"><rect fill="#ffffff" stroke="none" x="443" y="874" width="13" height="28"></rect></g><g transform="translate(-14,-30) scale(1,1)"><path fill="none" stroke="#000000" d="M 443 874 L 456 874 L 456 902 L 443 902 L 443 874 Z Z" stroke-miterlimit="10"></path></g><g transform="translate(-14,-30) scale(1,1)"><path fill="none" stroke="#000000" d="M 313 912 L 920 912" stroke-miterlimit="10"></path></g><g transform="translate(-14,-30) scale(1,1)"><path fill="#000000" stroke="none" d="M 909.8373251423759 916.209517756016 L 920 912 L 909.8373251423758 907.790482243984"></path></g><g transform="translate(-14,-30) scale(1,1)"><path fill="none" stroke="#000000" d="M 909.8373251423759 916.209517756016 L 920 912 L 909.8373251423758 907.790482243984 L 909.8373251423759 916.209517756016" stroke-miterlimit="10"></path></g><g transform="translate(-14,-30) scale(1,1)"><g><path fill="none" stroke="none"></path><text fill="#000000" stroke="none" font-family="Arial" font-size="13px" font-style="normal" font-weight="normal" text-decoration="none" x="543" y="909">25 : addCoreInterestPoint</text></g></g><g transform="translate(-14,-30) scale(1,1)"><rect fill="#ffffff" stroke="none" x="920" y="912" width="13" height="28"></rect></g><g transform="translate(-14,-30) scale(1,1)"><path fill="none" stroke="#000000" d="M 920 912 L 933 912 L 933 940 L 920 940 L 920 912 Z Z" stroke-miterlimit="10"></path></g><g transform="translate(-14,-30) scale(1,1)"><path fill="none" stroke="#000000" d="M 171 984 L 300 984" stroke-miterlimit="10"></path></g><g transform="translate(-14,-30) scale(1,1)"><path fill="#000000" stroke="none" d="M 289.83732514237585 988.209517756016 L 300 984 L 289.83732514237585 979.790482243984"></path></g><g transform="translate(-14,-30) scale(1,1)"><path fill="none" stroke="#000000" d="M 289.83732514237585 988.209517756016 L 300 984 L 289.83732514237585 979.790482243984 L 289.83732514237585 988.209517756016" stroke-miterlimit="10"></path></g><g transform="translate(-14,-30) scale(1,1)"><g><path fill="none" stroke="none"></path><text fill="#000000" stroke="none" font-family="Arial" font-size="13px" font-style="normal" font-weight="normal" text-decoration="none" x="191" y="981">26 : getProduct</text></g></g><g transform="translate(-14,-30) scale(1,1)"><rect fill="#ffffff" stroke="none" x="300" y="984" width="13" height="28"></rect></g><g transform="translate(-14,-30) scale(1,1)"><path fill="none" stroke="#000000" d="M 300 984 L 313 984 L 313 1012 L 300 1012 L 300 984 Z Z" stroke-miterlimit="10"></path></g><g transform="translate(-14,-30) scale(1,1)"><path fill="none" stroke="#000000" d="M 300 1008 L 171 1008" stroke-miterlimit="10" stroke-dasharray="3"></path></g><g transform="translate(-14,-30) scale(1,1)"><path fill="none" stroke="#000000" d="M 181.16267485762415 1003.790482243984 L 171 1008 L 181.16267485762415 1012.209517756016" stroke-miterlimit="10"></path></g><g transform="translate(-14,-30) scale(1,1)"><g><path fill="none" stroke="none"></path><text fill="#000000" stroke="none" font-family="Arial" font-size="13px" font-style="normal" font-weight="normal" text-decoration="none" x="205" y="1025">27 : graph</text></g></g><g transform="translate(-14,-30) scale(1,1)"><path fill="none" stroke="#000000" d="M 158 1032 L 62 1032" stroke-miterlimit="10" stroke-dasharray="3"></path></g><g transform="translate(-14,-30) scale(1,1)"><path fill="none" stroke="#000000" d="M 72.16267485762415 1027.7904822439841 L 62 1032 L 72.16267485762415 1036.2095177560159" stroke-miterlimit="10"></path></g><g transform="translate(-14,-30) scale(1,1)"><g><path fill="none" stroke="none"></path><text fill="#000000" stroke="none" font-family="Arial" font-size="13px" font-style="normal" font-weight="normal" text-decoration="none" x="83" y="1029">28 : graph</text></g></g></g></svg>