<svg version="1.1" xmlns="http://www.w3.org/2000/svg" xmlns:xlink="http://www.w3.org/1999/xlink" width="668" height="486"><defs></defs><g><g transform="translate(-198,-40) scale(1,1)"><rect fill="#C0C0C0" stroke="none" x="215" y="183" width="248" height="205" opacity="0.2"></rect></g><g transform="translate(-198,-40) scale(1,1)"><rect fill="#ffffff" stroke="none" x="208" y="176" width="248" height="205"></rect></g><g transform="translate(-198,-40) scale(1,1)"><path fill="none" stroke="#000000" d="M 208 176 L 456 176 L 456 381 L 208 381 L 208 176 Z Z" stroke-miterlimit="10"></path></g><g transform="translate(-198,-40) scale(1,1)"><path fill="none" stroke="#000000" d="M 208 201 L 456 201" stroke-miterlimit="10"></path></g><g transform="translate(-198,-40) scale(1,1)"><path fill="none" stroke="#000000" d="M 208 224 L 456 224" stroke-miterlimit="10"></path></g><g transform="translate(-198,-40) scale(1,1)"><g><path fill="none" stroke="none"></path><text fill="#000000" stroke="none" font-family="Arial" font-size="13px" font-style="normal" font-weight="bold" text-decoration="none" x="270.5" y="195.5">NetLogoGraphBuilder</text></g></g><g transform="translate(-198,-40) scale(1,1)"><g><path fill="none" stroke="none"></path><text fill="#000000" stroke="none" font-family="Arial" font-size="13px" font-style="normal" font-weight="normal" text-decoration="none" x="213" y="218.5">-Graph product</text></g></g><g transform="translate(-198,-40) scale(1,1)"><g><path fill="none" stroke="none"></path><text fill="#000000" stroke="none" font-family="Arial" font-size="13px" font-style="normal" font-weight="normal" text-decoration="none" x="213" y="241.5">+buildDirectedEdge()</text></g></g><g transform="translate(-198,-40) scale(1,1)"><g><path fill="none" stroke="none"></path><text fill="#000000" stroke="none" font-family="Arial" font-size="13px" font-style="normal" font-weight="normal" text-decoration="none" x="213" y="256.5">+buildUndirectedEdge()</text></g></g><g transform="translate(-198,-40) scale(1,1)"><g><path fill="none" stroke="none"></path><text fill="#000000" stroke="none" font-family="Arial" font-size="13px" font-style="normal" font-weight="normal" text-decoration="none" x="213" y="271.5">+buildGraph()</text></g></g><g transform="translate(-198,-40) scale(1,1)"><g><path fill="none" stroke="none"></path><text fill="#000000" stroke="none" font-family="Arial" font-size="13px" font-style="normal" font-weight="normal" text-decoration="none" x="213" y="286.5">+getProduct()</text></g></g><g transform="translate(-198,-40) scale(1,1)"><g><path fill="none" stroke="none"></path><text fill="#000000" stroke="none" font-family="Arial" font-size="13px" font-style="normal" font-weight="normal" text-decoration="none" x="213" y="301.5">+buildEvacuateBehavior()</text></g></g><g transform="translate(-198,-40) scale(1,1)"><g><path fill="none" stroke="none"></path><text fill="#000000" stroke="none" font-family="Arial" font-size="13px" font-style="normal" font-weight="normal" text-decoration="none" x="213" y="316.5">+buildVisitBehavior()</text></g></g><g transform="translate(-198,-40) scale(1,1)"><g><path fill="none" stroke="none"></path><text fill="#000000" stroke="none" font-family="Arial" font-size="13px" font-style="normal" font-weight="normal" text-decoration="none" x="213" y="331.5">+buildInterestPointOnBehavior()</text></g></g><g transform="translate(-198,-40) scale(1,1)"><g><path fill="none" stroke="none"></path><text fill="#000000" stroke="none" font-family="Arial" font-size="13px" font-style="normal" font-weight="normal" text-decoration="none" x="213" y="346.5">+buildRegualrNode()</text></g></g><g transform="translate(-198,-40) scale(1,1)"><g><path fill="none" stroke="none"></path><text fill="#000000" stroke="none" font-family="Arial" font-size="13px" font-style="normal" font-weight="normal" text-decoration="none" x="213" y="361.5">+buildExitPoint()</text></g></g><g transform="translate(-198,-40) scale(1,1)"><g><path fill="none" stroke="none"></path><text fill="#000000" stroke="none" font-family="Arial" font-size="13px" font-style="normal" font-weight="normal" text-decoration="none" x="213" y="376.5">+buildEntryPoint()</text></g></g><g transform="translate(-198,-40) scale(1,1)"><rect fill="#C0C0C0" stroke="none" x="647" y="193" width="216" height="147" opacity="0.2"></rect></g><g transform="translate(-198,-40) scale(1,1)"><rect fill="#ffffff" stroke="none" x="640" y="186" width="216" height="147"></rect></g><g transform="translate(-198,-40) scale(1,1)"><path fill="none" stroke="#000000" d="M 640 186 L 856 186 L 856 333 L 640 333 L 640 186 Z Z" stroke-miterlimit="10"></path></g><g transform="translate(-198,-40) scale(1,1)"><path fill="none" stroke="#000000" d="M 640 211 L 856 211" stroke-miterlimit="10"></path></g><g transform="translate(-198,-40) scale(1,1)"><path fill="none" stroke="#000000" d="M 640 221 L 856 221" stroke-miterlimit="10"></path></g><g transform="translate(-198,-40) scale(1,1)"><g><path fill="none" stroke="none"></path><text fill="#000000" stroke="none" font-family="Arial" font-size="13px" font-style="normal" font-weight="bold" text-decoration="none" x="716.5" y="205.5">XMLParser</text></g></g><g transform="translate(-198,-40) scale(1,1)"><g><path fill="none" stroke="none"></path><text fill="#000000" stroke="none" font-family="Arial" font-size="13px" font-style="normal" font-weight="normal" text-decoration="none" x="645" y="238.5">+parseTree()</text></g></g><g transform="translate(-198,-40) scale(1,1)"><g><path fill="none" stroke="none"></path><text fill="#000000" stroke="none" font-family="Arial" font-size="13px" font-style="normal" font-weight="normal" text-decoration="none" x="645" y="253.5">+parseNodes()</text></g></g><g transform="translate(-198,-40) scale(1,1)"><g><path fill="none" stroke="none"></path><text fill="#000000" stroke="none" font-family="Arial" font-size="13px" font-style="normal" font-weight="normal" text-decoration="none" x="645" y="268.5">+parseEdges()</text></g></g><g transform="translate(-198,-40) scale(1,1)"><g><path fill="none" stroke="none"></path><text fill="#000000" stroke="none" font-family="Arial" font-size="13px" font-style="normal" font-weight="normal" text-decoration="none" x="645" y="283.5">+parseBehaviors()</text></g></g><g transform="translate(-198,-40) scale(1,1)"><g><path fill="none" stroke="none"></path><text fill="#000000" stroke="none" font-family="Arial" font-size="13px" font-style="normal" font-weight="normal" text-decoration="none" x="645" y="298.5">+getTextAttributeOfElement()</text></g></g><g transform="translate(-198,-40) scale(1,1)"><g><path fill="none" stroke="none"></path><text fill="#000000" stroke="none" font-family="Arial" font-size="13px" font-style="normal" font-weight="normal" text-decoration="none" x="645" y="313.5">+getElementWithAttributeValue()</text></g></g><g transform="translate(-198,-40) scale(1,1)"><g><path fill="none" stroke="none"></path><text fill="#000000" stroke="none" font-family="Arial" font-size="13px" font-style="normal" font-weight="normal" text-decoration="none" x="645" y="328.5">+validateBehaviorIds()</text></g></g><g transform="translate(-198,-40) scale(1,1)"><rect fill="#C0C0C0" stroke="none" x="615" y="57" width="247" height="70" opacity="0.2"></rect></g><g transform="translate(-198,-40) scale(1,1)"><rect fill="#ffffff" stroke="none" x="608" y="50" width="247" height="70"></rect></g><g transform="translate(-198,-40) scale(1,1)"><path fill="none" stroke="#000000" d="M 608 50 L 855 50 L 855 120 L 608 120 L 608 50 Z Z" stroke-miterlimit="10"></path></g><g transform="translate(-198,-40) scale(1,1)"><path fill="none" stroke="#000000" d="M 608 88 L 855 88" stroke-miterlimit="10"></path></g><g transform="translate(-198,-40) scale(1,1)"><path fill="none" stroke="#000000" d="M 608 98 L 855 98" stroke-miterlimit="10"></path></g><g transform="translate(-198,-40) scale(1,1)"><g><path fill="none" stroke="none"></path><text fill="#000000" stroke="none" font-family="Arial" font-size="13px" font-style="normal" font-weight="normal" text-decoration="none" x="700" y="67.5">«interface»</text></g></g><g transform="translate(-198,-40) scale(1,1)"><g><path fill="none" stroke="none"></path><text fill="#000000" stroke="none" font-family="Arial" font-size="13px" font-style="italic" font-weight="bold" text-decoration="none" x="712.5" y="82.5">Parser</text></g></g><g transform="translate(-198,-40) scale(1,1)"><g><path fill="none" stroke="none"></path><text fill="#000000" stroke="none" font-family="Arial" font-size="13px" font-style="normal" font-weight="normal" text-decoration="none" x="613" y="115.5">+parseDocumentForGraph()</text></g></g><g transform="translate(-198,-40) scale(1,1)"><path fill="none" stroke="#000000" d="M 747 186 L 747 120" stroke-miterlimit="10"></path></g><g transform="translate(-198,-40) scale(1,1)"><path fill="#FFFFFF" stroke="none" d="M 755.419035512032 140.3253497152483 L 747 120 L 738.580964487968 140.3253497152483"></path></g><g transform="translate(-198,-40) scale(1,1)"><path fill="none" stroke="#000000" d="M 755.419035512032 140.3253497152483 L 747 120 L 738.580964487968 140.3253497152483 L 755.419035512032 140.3253497152483" stroke-miterlimit="10"></path></g><g transform="translate(-198,-40) scale(1,1)"><rect fill="#C0C0C0" stroke="none" x="279" y="57" width="83" height="57" opacity="0.2"></rect></g><g transform="translate(-198,-40) scale(1,1)"><rect fill="#ffffff" stroke="none" x="272" y="50" width="83" height="57"></rect></g><g transform="translate(-198,-40) scale(1,1)"><path fill="none" stroke="#000000" d="M 272 50 L 355 50 L 355 107 L 272 107 L 272 50 Z Z" stroke-miterlimit="10"></path></g><g transform="translate(-198,-40) scale(1,1)"><path fill="none" stroke="#000000" d="M 272 88 L 355 88" stroke-miterlimit="10"></path></g><g transform="translate(-198,-40) scale(1,1)"><path fill="none" stroke="#000000" d="M 272 98 L 355 98" stroke-miterlimit="10"></path></g><g transform="translate(-198,-40) scale(1,1)"><g><path fill="none" stroke="none"></path><text fill="#000000" stroke="none" font-family="Arial" font-size="13px" font-style="normal" font-weight="normal" text-decoration="none" x="282" y="67.5">«interface»</text></g></g><g transform="translate(-198,-40) scale(1,1)"><g><path fill="none" stroke="none"></path><text fill="#000000" stroke="none" font-family="Arial" font-size="13px" font-style="italic" font-weight="bold" text-decoration="none" x="293.5" y="82.5">Builder</text></g></g><g transform="translate(-198,-40) scale(1,1)"><path fill="none" stroke="#000000" d="M 313 176 L 313 107" stroke-miterlimit="10"></path></g><g transform="translate(-198,-40) scale(1,1)"><path fill="#FFFFFF" stroke="none" d="M 321.419035512032 127.32534971524831 L 313 107 L 304.580964487968 127.32534971524831"></path></g><g transform="translate(-198,-40) scale(1,1)"><path fill="none" stroke="#000000" d="M 321.419035512032 127.32534971524831 L 313 107 L 304.580964487968 127.32534971524831 L 321.419035512032 127.32534971524831" stroke-miterlimit="10"></path></g><g transform="translate(-198,-40) scale(1,1)"><path fill="none" stroke="#000000" d="M 355 90 L 608 90" stroke-miterlimit="10"></path></g><g transform="translate(-198,-40) scale(1,1)"><path fill="#FFFFFF" stroke="none" d="M 597.8373251423759 94.20951775601598 L 608 90 L 597.8373251423758 85.79048224398402 L 586 90"></path></g><g transform="translate(-198,-40) scale(1,1)"><path fill="none" stroke="#000000" d="M 597.8373251423759 94.20951775601598 L 608 90 L 597.8373251423758 85.79048224398402 L 586 90 L 597.8373251423759 94.20951775601598" stroke-miterlimit="10"></path></g><g transform="translate(-198,-40) scale(1,1)"><g><path fill="none" stroke="none"></path><text fill="#000000" stroke="none" font-family="Arial" font-size="13px" font-style="normal" font-weight="normal" text-decoration="none" x="460" y="82">-builder</text></g></g><g transform="translate(-198,-40) scale(1,1)"><rect fill="#C0C0C0" stroke="none" x="271" y="479" width="120" height="44" opacity="0.2"></rect></g><g transform="translate(-198,-40) scale(1,1)"><rect fill="#ffffff" stroke="none" x="264" y="472" width="120" height="44"></rect></g><g transform="translate(-198,-40) scale(1,1)"><path fill="none" stroke="#000000" d="M 264 472 L 384 472 L 384 516 L 264 516 L 264 472 Z Z" stroke-miterlimit="10"></path></g><g transform="translate(-198,-40) scale(1,1)"><path fill="none" stroke="#000000" d="M 264 497 L 384 497" stroke-miterlimit="10"></path></g><g transform="translate(-198,-40) scale(1,1)"><path fill="none" stroke="#000000" d="M 264 507 L 384 507" stroke-miterlimit="10"></path></g><g transform="translate(-198,-40) scale(1,1)"><g><path fill="none" stroke="none"></path><text fill="#000000" stroke="none" font-family="Arial" font-size="13px" font-style="normal" font-weight="bold" text-decoration="none" x="306.5" y="491.5">Graph</text></g></g><g transform="translate(-198,-40) scale(1,1)"><path fill="none" stroke="#000000" d="M 327 381 L 327 472" stroke-miterlimit="10" stroke-dasharray="3"></path></g><g transform="translate(-198,-40) scale(1,1)"><path fill="none" stroke="#000000" d="M 322.790482243984 461.83732514237585 L 327 472 L 331.209517756016 461.83732514237585" stroke-miterlimit="10"></path></g><g transform="translate(-198,-40) scale(1,1)"><g><path fill="none" stroke="none"></path><text fill="#000000" stroke="none" font-family="Arial" font-size="13px" font-style="normal" font-weight="normal" text-decoration="none" x="335" y="432">builds</text></g></g></g></svg>