<svg version="1.1" xmlns="http://www.w3.org/2000/svg" xmlns:xlink="http://www.w3.org/1999/xlink" width="955" height="1036"><defs></defs><g><g transform="translate(-12,-30) scale(1,1)"><rect fill="#C0C0C0" stroke="none" x="31" y="47" width="74" height="39" opacity="0.2"></rect></g><g transform="translate(-12,-30) scale(1,1)"><rect fill="#ffffff" stroke="none" x="24" y="40" width="74" height="39"></rect></g><g transform="translate(-12,-30) scale(1,1)"><path fill="none" stroke="#000000" d="M 24 40 L 98 40 L 98 79 L 24 79 L 24 40 Z Z" stroke-miterlimit="10"></path></g><g transform="translate(-12,-30) scale(1,1)"><g><path fill="none" stroke="none"></path><text fill="#000000" stroke="none" font-family="Arial" font-size="13px" font-style="normal" font-weight="bold" text-decoration="none" x="44.5" y="59.5">Client</text></g></g><g transform="translate(-12,-30) scale(1,1)"><path fill="none" stroke="#000000" d="M 62.5 80 L 62.5 1054" stroke-miterlimit="10" stroke-dasharray="3"></path></g><g transform="translate(-12,-30) scale(1,1)"><rect fill="#C0C0C0" stroke="none" x="119" y="47" width="88" height="39" opacity="0.2"></rect></g><g transform="translate(-12,-30) scale(1,1)"><rect fill="#ffffff" stroke="none" x="112" y="40" width="88" height="39"></rect></g><g transform="translate(-12,-30) scale(1,1)"><path fill="none" stroke="#000000" d="M 112 40 L 200 40 L 200 79 L 112 79 L 112 40 Z Z" stroke-miterlimit="10"></path></g><g transform="translate(-12,-30) scale(1,1)"><g><path fill="none" stroke="none"></path><text fill="#000000" stroke="none" font-family="Arial" font-size="13px" font-style="normal" font-weight="bold" text-decoration="none" x="124.5" y="59.5">XMLParser</text></g></g><g transform="translate(-12,-30) scale(1,1)"><path fill="none" stroke="#000000" d="M 157.5 80 L 157.5 1054" stroke-miterlimit="10" stroke-dasharray="3"></path></g><g transform="translate(-12,-30) scale(1,1)"><rect fill="#C0C0C0" stroke="none" x="231" y="47" width="157" height="39" opacity="0.2"></rect></g><g transform="translate(-12,-30) scale(1,1)"><rect fill="#ffffff" stroke="none" x="224" y="40" width="157" height="39"></rect></g><g transform="translate(-12,-30) scale(1,1)"><path fill="none" stroke="#000000" d="M 224 40 L 381 40 L 381 79 L 224 79 L 224 40 Z Z" stroke-miterlimit="10"></path></g><g transform="translate(-12,-30) scale(1,1)"><g><path fill="none" stroke="none"></path><text fill="#000000" stroke="none" font-family="Arial" font-size="13px" font-style="normal" font-weight="bold" text-decoration="none" x="241" y="59.5">NetLogoGraphBuilder</text></g></g><g transform="translate(-12,-30) scale(1,1)"><path fill="none" stroke="#000000" d="M 303.5 80 L 303.5 1056" stroke-miterlimit="10" stroke-dasharray="3"></path></g><g transform="translate(-12,-30) scale(1,1)"><rect fill="#C0C0C0" stroke="none" x="415" y="47" width="82" height="39" opacity="0.2"></rect></g><g transform="translate(-12,-30) scale(1,1)"><rect fill="#ffffff" stroke="none" x="408" y="40" width="82" height="39"></rect></g><g transform="translate(-12,-30) scale(1,1)"><path fill="none" stroke="#000000" d="M 408 40 L 490 40 L 490 79 L 408 79 L 408 40 Z Z" stroke-miterlimit="10"></path></g><g transform="translate(-12,-30) scale(1,1)"><g><path fill="none" stroke="none"></path><text fill="#000000" stroke="none" font-family="Arial" font-size="13px" font-style="normal" font-weight="bold" text-decoration="none" x="431.5" y="59.5">Graph</text></g></g><g transform="translate(-12,-30) scale(1,1)"><path fill="none" stroke="#000000" d="M 450.5 80 L 450.5 1056" stroke-miterlimit="10" stroke-dasharray="3"></path></g><g transform="translate(-12,-30) scale(1,1)"><rect fill="#C0C0C0" stroke="none" x="511" y="47" width="102" height="39" opacity="0.2"></rect></g><g transform="translate(-12,-30) scale(1,1)"><rect fill="#ffffff" stroke="none" x="504" y="40" width="102" height="39"></rect></g><g transform="translate(-12,-30) scale(1,1)"><path fill="none" stroke="#000000" d="M 504 40 L 606 40 L 606 79 L 504 79 L 504 40 Z Z" stroke-miterlimit="10"></path></g><g transform="translate(-12,-30) scale(1,1)"><g><path fill="none" stroke="none"></path><text fill="#000000" stroke="none" font-family="Arial" font-size="13px" font-style="normal" font-weight="bold" text-decoration="none" x="518" y="59.5">RegularNode</text></g></g><g transform="translate(-12,-30) scale(1,1)"><path fill="none" stroke="#000000" d="M 556.5 80 L 556.5 1056" stroke-miterlimit="10" stroke-dasharray="3"></path></g><g transform="translate(-12,-30) scale(1,1)"><rect fill="#C0C0C0" stroke="none" x="639" y="47" width="76" height="39" opacity="0.2"></rect></g><g transform="translate(-12,-30) scale(1,1)"><rect fill="#ffffff" stroke="none" x="632" y="40" width="76" height="39"></rect></g><g transform="translate(-12,-30) scale(1,1)"><path fill="none" stroke="#000000" d="M 632 40 L 708 40 L 708 79 L 632 79 L 632 40 Z Z" stroke-miterlimit="10"></path></g><g transform="translate(-12,-30) scale(1,1)"><g><path fill="none" stroke="none"></path><text fill="#000000" stroke="none" font-family="Arial" font-size="13px" font-style="normal" font-weight="bold" text-decoration="none" x="643.5" y="59.5">ExitPoint</text></g></g><g transform="translate(-12,-30) scale(1,1)"><path fill="none" stroke="#000000" d="M 671.5 80 L 671.5 1056" stroke-miterlimit="10" stroke-dasharray="3"></path></g><g transform="translate(-12,-30) scale(1,1)"><rect fill="#C0C0C0" stroke="none" x="727" y="47" width="120" height="39" opacity="0.2"></rect></g><g transform="translate(-12,-30) scale(1,1)"><rect fill="#ffffff" stroke="none" x="720" y="40" width="120" height="39"></rect></g><g transform="translate(-12,-30) scale(1,1)"><path fill="none" stroke="#000000" d="M 720 40 L 840 40 L 840 79 L 720 79 L 720 40 Z Z" stroke-miterlimit="10"></path></g><g transform="translate(-12,-30) scale(1,1)"><g><path fill="none" stroke="none"></path><text fill="#000000" stroke="none" font-family="Arial" font-size="13px" font-style="normal" font-weight="bold" text-decoration="none" x="734" y="59.5">UndirectedEdge</text></g></g><g transform="translate(-12,-30) scale(1,1)"><path fill="none" stroke="#000000" d="M 781.5 80 L 781.5 1056" stroke-miterlimit="10" stroke-dasharray="3"></path></g><g transform="translate(-12,-30) scale(1,1)"><rect fill="#C0C0C0" stroke="none" x="887" y="47" width="77" height="39" opacity="0.2"></rect></g><g transform="translate(-12,-30) scale(1,1)"><rect fill="#ffffff" stroke="none" x="880" y="40" width="77" height="39"></rect></g><g transform="translate(-12,-30) scale(1,1)"><path fill="none" stroke="#000000" d="M 880 40 L 957 40 L 957 79 L 880 79 L 880 40 Z Z" stroke-miterlimit="10"></path></g><g transform="translate(-12,-30) scale(1,1)"><g><path fill="none" stroke="none"></path><text fill="#000000" stroke="none" font-family="Arial" font-size="13px" font-style="normal" font-weight="bold" text-decoration="none" x="892" y="59.5">Evacuate</text></g></g><g transform="translate(-12,-30) scale(1,1)"><path fill="none" stroke="#000000" d="M 919.5 80 L 919.5 1056" stroke-miterlimit="10" stroke-dasharray="3"></path></g><g transform="translate(-12,-30) scale(1,1)"><path fill="none" stroke="#000000" d="M 62 112 L 150 112" stroke-miterlimit="10"></path></g><g transform="translate(-12,-30) scale(1,1)"><path fill="#000000" stroke="none" d="M 139.83732514237585 116.20951775601598 L 150 112 L 139.83732514237585 107.79048224398402"></path></g><g transform="translate(-12,-30) scale(1,1)"><path fill="none" stroke="#000000" d="M 139.83732514237585 116.20951775601598 L 150 112 L 139.83732514237585 107.79048224398402 L 139.83732514237585 116.20951775601598" stroke-miterlimit="10"></path></g><g transform="translate(-12,-30) scale(1,1)"><g><path fill="none" stroke="none"></path><text fill="#000000" stroke="none" font-family="Arial" font-size="13px" font-style="normal" font-weight="normal" text-decoration="none" x="22" y="106">1 : parseDocumentForGraph</text></g></g><g transform="translate(-12,-30) scale(1,1)"><rect fill="#ffffff" stroke="none" x="150" y="112" width="13" height="928"></rect></g><g transform="translate(-12,-30) scale(1,1)"><path fill="none" stroke="#000000" d="M 150 112 L 163 112 L 163 1040 L 150 1040 L 150 112 Z Z" stroke-miterlimit="10"></path></g><g transform="translate(-12,-30) scale(1,1)"><path fill="none" stroke="#000000" d="M 163 121 L 296 121" stroke-miterlimit="10"></path></g><g transform="translate(-12,-30) scale(1,1)"><path fill="#000000" stroke="none" d="M 285.83732514237585 125.20951775601598 L 296 121 L 285.83732514237585 116.79048224398402"></path></g><g transform="translate(-12,-30) scale(1,1)"><path fill="none" stroke="#000000" d="M 285.83732514237585 125.20951775601598 L 296 121 L 285.83732514237585 116.79048224398402 L 285.83732514237585 125.20951775601598" stroke-miterlimit="10"></path></g><g transform="translate(-12,-30) scale(1,1)"><g><path fill="none" stroke="none"></path><text fill="#000000" stroke="none" font-family="Arial" font-size="13px" font-style="normal" font-weight="normal" text-decoration="none" x="189" y="118">2 : buildGraph</text></g></g><g transform="translate(-12,-30) scale(1,1)"><rect fill="#ffffff" stroke="none" x="296" y="121" width="13" height="28"></rect></g><g transform="translate(-12,-30) scale(1,1)"><path fill="none" stroke="#000000" d="M 296 121 L 309 121 L 309 149 L 296 149 L 296 121 Z Z" stroke-miterlimit="10"></path></g><g transform="translate(-12,-30) scale(1,1)"><path fill="none" stroke="#000000" d="M 309 128 L 443 128" stroke-miterlimit="10"></path></g><g transform="translate(-12,-30) scale(1,1)"><path fill="#000000" stroke="none" d="M 432.83732514237585 132.209517756016 L 443 128 L 432.83732514237585 123.79048224398402"></path></g><g transform="translate(-12,-30) scale(1,1)"><path fill="none" stroke="#000000" d="M 432.83732514237585 132.209517756016 L 443 128 L 432.83732514237585 123.79048224398402 L 432.83732514237585 132.209517756016" stroke-miterlimit="10"></path></g><g transform="translate(-12,-30) scale(1,1)"><g><path fill="none" stroke="none"></path><text fill="#000000" stroke="none" font-family="Arial" font-size="13px" font-style="normal" font-weight="normal" text-decoration="none" x="336" y="125">3 : new Graph</text></g></g><g transform="translate(-12,-30) scale(1,1)"><rect fill="#ffffff" stroke="none" x="443" y="128" width="13" height="28"></rect></g><g transform="translate(-12,-30) scale(1,1)"><path fill="none" stroke="#000000" d="M 443 128 L 456 128 L 456 156 L 443 156 L 443 128 Z Z" stroke-miterlimit="10"></path></g><g transform="translate(-12,-30) scale(1,1)"><path fill="none" stroke="#000000" d="M 163 136 L 193 136 L 193 156 L 170 156" stroke-miterlimit="10"></path></g><g transform="translate(-12,-30) scale(1,1)"><path fill="#000000" stroke="none" d="M 180.16267485762415 151.790482243984 L 170 156 L 180.16267485762415 160.209517756016"></path></g><g transform="translate(-12,-30) scale(1,1)"><path fill="none" stroke="#000000" d="M 180.16267485762415 151.790482243984 L 170 156 L 180.16267485762415 160.209517756016 L 180.16267485762415 151.790482243984" stroke-miterlimit="10"></path></g><g transform="translate(-12,-30) scale(1,1)"><g><path fill="none" stroke="none"></path><text fill="#000000" stroke="none" font-family="Arial" font-size="13px" font-style="normal" font-weight="normal" text-decoration="none" x="183" y="152">4 : parseTree</text></g></g><g transform="translate(-12,-30) scale(1,1)"><rect fill="#ffffff" stroke="none" x="157" y="156" width="13" height="812"></rect></g><g transform="translate(-12,-30) scale(1,1)"><path fill="none" stroke="#000000" d="M 157 156 L 170 156 L 170 968 L 157 968 L 157 156 Z Z" stroke-miterlimit="10"></path></g><g transform="translate(-12,-30) scale(1,1)"><path fill="none" stroke="#000000" d="M 170 176 L 200 176 L 200 196 L 177 196" stroke-miterlimit="10"></path></g><g transform="translate(-12,-30) scale(1,1)"><path fill="#000000" stroke="none" d="M 187.16267485762415 191.790482243984 L 177 196 L 187.16267485762415 200.209517756016"></path></g><g transform="translate(-12,-30) scale(1,1)"><path fill="none" stroke="#000000" d="M 187.16267485762415 191.790482243984 L 177 196 L 187.16267485762415 200.209517756016 L 187.16267485762415 191.790482243984" stroke-miterlimit="10"></path></g><g transform="translate(-12,-30) scale(1,1)"><g><path fill="none" stroke="none"></path><text fill="#000000" stroke="none" font-family="Arial" font-size="13px" font-style="normal" font-weight="normal" text-decoration="none" x="183" y="192">5 : parseNodes</text></g></g><g transform="translate(-12,-30) scale(1,1)"><rect fill="#ffffff" stroke="none" x="164" y="196" width="13" height="316"></rect></g><g transform="translate(-12,-30) scale(1,1)"><path fill="none" stroke="#000000" d="M 164 196 L 177 196 L 177 512 L 164 512 L 164 196 Z Z" stroke-miterlimit="10"></path></g><g transform="translate(-12,-30) scale(1,1)"><path fill="none" stroke="#000000" d="M 177 224 L 296 224" stroke-miterlimit="10"></path></g><g transform="translate(-12,-30) scale(1,1)"><path fill="#000000" stroke="none" d="M 285.83732514237585 228.209517756016 L 296 224 L 285.83732514237585 219.790482243984"></path></g><g transform="translate(-12,-30) scale(1,1)"><path fill="none" stroke="#000000" d="M 285.83732514237585 228.209517756016 L 296 224 L 285.83732514237585 219.790482243984 L 285.83732514237585 228.209517756016" stroke-miterlimit="10"></path></g><g transform="translate(-12,-30) scale(1,1)"><g><path fill="none" stroke="none"></path><text fill="#000000" stroke="none" font-family="Arial" font-size="13px" font-style="normal" font-weight="normal" text-decoration="none" x="183" y="220">6 : buildRegularNode</text></g></g><g transform="translate(-12,-30) scale(1,1)"><rect fill="#ffffff" stroke="none" x="296" y="224" width="13" height="120"></rect></g><g transform="translate(-12,-30) scale(1,1)"><path fill="none" stroke="#000000" d="M 296 224 L 309 224 L 309 344 L 296 344 L 296 224 Z Z" stroke-miterlimit="10"></path></g><g transform="translate(-12,-30) scale(1,1)"><path fill="none" stroke="#000000" d="M 309 232 L 549 232" stroke-miterlimit="10"></path></g><g transform="translate(-12,-30) scale(1,1)"><path fill="#000000" stroke="none" d="M 538.8373251423759 236.209517756016 L 549 232 L 538.8373251423758 227.790482243984"></path></g><g transform="translate(-12,-30) scale(1,1)"><path fill="none" stroke="#000000" d="M 538.8373251423759 236.209517756016 L 549 232 L 538.8373251423758 227.790482243984 L 538.8373251423759 236.209517756016" stroke-miterlimit="10"></path></g><g transform="translate(-12,-30) scale(1,1)"><g><path fill="none" stroke="none"></path><text fill="#000000" stroke="none" font-family="Arial" font-size="13px" font-style="normal" font-weight="normal" text-decoration="none" x="350" y="229">7 : validateNodeParameters</text></g></g><g transform="translate(-12,-30) scale(1,1)"><g><path fill="none" stroke="none"></path><text fill="#000000" stroke="none" font-family="Arial" font-size="13px" font-style="normal" font-weight="normal" text-decoration="none" x="406" y="214">«static»</text></g></g><g transform="translate(-12,-30) scale(1,1)"><rect fill="#ffffff" stroke="none" x="549" y="232" width="13" height="28"></rect></g><g transform="translate(-12,-30) scale(1,1)"><path fill="none" stroke="#000000" d="M 549 232 L 562 232 L 562 260 L 549 260 L 549 232 Z Z" stroke-miterlimit="10"></path></g><g transform="translate(-12,-30) scale(1,1)"><path fill="none" stroke="#000000" d="M 309 270 L 549 270" stroke-miterlimit="10"></path></g><g transform="translate(-12,-30) scale(1,1)"><path fill="#000000" stroke="none" d="M 538.8373251423759 274.209517756016 L 549 270 L 538.8373251423758 265.790482243984"></path></g><g transform="translate(-12,-30) scale(1,1)"><path fill="none" stroke="#000000" d="M 538.8373251423759 274.209517756016 L 549 270 L 538.8373251423758 265.790482243984 L 538.8373251423759 274.209517756016" stroke-miterlimit="10"></path></g><g transform="translate(-12,-30) scale(1,1)"><g><path fill="none" stroke="none"></path><text fill="#000000" stroke="none" font-family="Arial" font-size="13px" font-style="normal" font-weight="normal" text-decoration="none" x="369" y="267">8 : new RegularNode</text></g></g><g transform="translate(-12,-30) scale(1,1)"><rect fill="#ffffff" stroke="none" x="549" y="270" width="13" height="28"></rect></g><g transform="translate(-12,-30) scale(1,1)"><path fill="none" stroke="#000000" d="M 549 270 L 562 270 L 562 298 L 549 298 L 549 270 Z Z" stroke-miterlimit="10"></path></g><g transform="translate(-12,-30) scale(1,1)"><path fill="none" stroke="#000000" d="M 309 304 L 443 304" stroke-miterlimit="10"></path></g><g transform="translate(-12,-30) scale(1,1)"><path fill="#000000" stroke="none" d="M 432.83732514237585 308.209517756016 L 443 304 L 432.83732514237585 299.790482243984"></path></g><g transform="translate(-12,-30) scale(1,1)"><path fill="none" stroke="#000000" d="M 432.83732514237585 308.209517756016 L 443 304 L 432.83732514237585 299.790482243984 L 432.83732514237585 308.209517756016" stroke-miterlimit="10"></path></g><g transform="translate(-12,-30) scale(1,1)"><g><path fill="none" stroke="none"></path><text fill="#000000" stroke="none" font-family="Arial" font-size="13px" font-style="normal" font-weight="normal" text-decoration="none" x="341" y="301">9 : addNode</text></g></g><g transform="translate(-12,-30) scale(1,1)"><rect fill="#ffffff" stroke="none" x="443" y="304" width="13" height="28"></rect></g><g transform="translate(-12,-30) scale(1,1)"><path fill="none" stroke="#000000" d="M 443 304 L 456 304 L 456 332 L 443 332 L 443 304 Z Z" stroke-miterlimit="10"></path></g><g transform="translate(-12,-30) scale(1,1)"><path fill="none" stroke="#000000" d="M 177 368 L 296 368" stroke-miterlimit="10"></path></g><g transform="translate(-12,-30) scale(1,1)"><path fill="#000000" stroke="none" d="M 285.83732514237585 372.209517756016 L 296 368 L 285.83732514237585 363.790482243984"></path></g><g transform="translate(-12,-30) scale(1,1)"><path fill="none" stroke="#000000" d="M 285.83732514237585 372.209517756016 L 296 368 L 285.83732514237585 363.790482243984 L 285.83732514237585 372.209517756016" stroke-miterlimit="10"></path></g><g transform="translate(-12,-30) scale(1,1)"><g><path fill="none" stroke="none"></path><text fill="#000000" stroke="none" font-family="Arial" font-size="13px" font-style="normal" font-weight="normal" text-decoration="none" x="183" y="365">10 : buildExitPoint</text></g></g><g transform="translate(-12,-30) scale(1,1)"><rect fill="#ffffff" stroke="none" x="296" y="368" width="13" height="128"></rect></g><g transform="translate(-12,-30) scale(1,1)"><path fill="none" stroke="#000000" d="M 296 368 L 309 368 L 309 496 L 296 496 L 296 368 Z Z" stroke-miterlimit="10"></path></g><g transform="translate(-12,-30) scale(1,1)"><path fill="none" stroke="#000000" d="M 309 384 L 664 384" stroke-miterlimit="10"></path></g><g transform="translate(-12,-30) scale(1,1)"><path fill="#000000" stroke="none" d="M 653.8373251423759 388.209517756016 L 664 384 L 653.8373251423758 379.790482243984"></path></g><g transform="translate(-12,-30) scale(1,1)"><path fill="none" stroke="#000000" d="M 653.8373251423759 388.209517756016 L 664 384 L 653.8373251423758 379.790482243984 L 653.8373251423759 388.209517756016" stroke-miterlimit="10"></path></g><g transform="translate(-12,-30) scale(1,1)"><g><path fill="none" stroke="none"></path><text fill="#000000" stroke="none" font-family="Arial" font-size="13px" font-style="normal" font-weight="normal" text-decoration="none" x="425" y="381">11 : validateExitPoint</text></g></g><g transform="translate(-12,-30) scale(1,1)"><rect fill="#ffffff" stroke="none" x="664" y="384" width="13" height="28"></rect></g><g transform="translate(-12,-30) scale(1,1)"><path fill="none" stroke="#000000" d="M 664 384 L 677 384 L 677 412 L 664 412 L 664 384 Z Z" stroke-miterlimit="10"></path></g><g transform="translate(-12,-30) scale(1,1)"><path fill="none" stroke="#000000" d="M 309 417 L 664 417" stroke-miterlimit="10"></path></g><g transform="translate(-12,-30) scale(1,1)"><path fill="#000000" stroke="none" d="M 653.8373251423759 421.209517756016 L 664 417 L 653.8373251423758 412.790482243984"></path></g><g transform="translate(-12,-30) scale(1,1)"><path fill="none" stroke="#000000" d="M 653.8373251423759 421.209517756016 L 664 417 L 653.8373251423758 412.790482243984 L 653.8373251423759 421.209517756016" stroke-miterlimit="10"></path></g><g transform="translate(-12,-30) scale(1,1)"><g><path fill="none" stroke="none"></path><text fill="#000000" stroke="none" font-family="Arial" font-size="13px" font-style="normal" font-weight="normal" text-decoration="none" x="433" y="414">12 : new ExitPoint</text></g></g><g transform="translate(-12,-30) scale(1,1)"><rect fill="#ffffff" stroke="none" x="664" y="417" width="13" height="28"></rect></g><g transform="translate(-12,-30) scale(1,1)"><path fill="none" stroke="#000000" d="M 664 417 L 677 417 L 677 445 L 664 445 L 664 417 Z Z" stroke-miterlimit="10"></path></g><g transform="translate(-12,-30) scale(1,1)"><path fill="none" stroke="#000000" d="M 309 464 L 443 464" stroke-miterlimit="10"></path></g><g transform="translate(-12,-30) scale(1,1)"><path fill="#000000" stroke="none" d="M 432.83732514237585 468.209517756016 L 443 464 L 432.83732514237585 459.790482243984"></path></g><g transform="translate(-12,-30) scale(1,1)"><path fill="none" stroke="#000000" d="M 432.83732514237585 468.209517756016 L 443 464 L 432.83732514237585 459.790482243984 L 432.83732514237585 468.209517756016" stroke-miterlimit="10"></path></g><g transform="translate(-12,-30) scale(1,1)"><g><path fill="none" stroke="none"></path><text fill="#000000" stroke="none" font-family="Arial" font-size="13px" font-style="normal" font-weight="normal" text-decoration="none" x="338" y="461">13 : addNode</text></g></g><g transform="translate(-12,-30) scale(1,1)"><rect fill="#ffffff" stroke="none" x="443" y="464" width="13" height="28"></rect></g><g transform="translate(-12,-30) scale(1,1)"><path fill="none" stroke="#000000" d="M 443 464 L 456 464 L 456 492 L 443 492 L 443 464 Z Z" stroke-miterlimit="10"></path></g><g transform="translate(-12,-30) scale(1,1)"><path fill="none" stroke="#000000" d="M 170 536 L 200 536 L 200 556 L 177 556" stroke-miterlimit="10"></path></g><g transform="translate(-12,-30) scale(1,1)"><path fill="#000000" stroke="none" d="M 187.16267485762415 551.790482243984 L 177 556 L 187.16267485762415 560.209517756016"></path></g><g transform="translate(-12,-30) scale(1,1)"><path fill="none" stroke="#000000" d="M 187.16267485762415 551.790482243984 L 177 556 L 187.16267485762415 560.209517756016 L 187.16267485762415 551.790482243984" stroke-miterlimit="10"></path></g><g transform="translate(-12,-30) scale(1,1)"><g><path fill="none" stroke="none"></path><text fill="#000000" stroke="none" font-family="Arial" font-size="13px" font-style="normal" font-weight="normal" text-decoration="none" x="162" y="552">14 : parseEdges</text></g></g><g transform="translate(-12,-30) scale(1,1)"><rect fill="#ffffff" stroke="none" x="164" y="556" width="13" height="148"></rect></g><g transform="translate(-12,-30) scale(1,1)"><path fill="none" stroke="#000000" d="M 164 556 L 177 556 L 177 704 L 164 704 L 164 556 Z Z" stroke-miterlimit="10"></path></g><g transform="translate(-12,-30) scale(1,1)"><path fill="none" stroke="#000000" d="M 177 584 L 296 584" stroke-miterlimit="10"></path></g><g transform="translate(-12,-30) scale(1,1)"><path fill="#000000" stroke="none" d="M 285.83732514237585 588.209517756016 L 296 584 L 285.83732514237585 579.790482243984"></path></g><g transform="translate(-12,-30) scale(1,1)"><path fill="none" stroke="#000000" d="M 285.83732514237585 588.209517756016 L 296 584 L 285.83732514237585 579.790482243984 L 285.83732514237585 588.209517756016" stroke-miterlimit="10"></path></g><g transform="translate(-12,-30) scale(1,1)"><g><path fill="none" stroke="none"></path><text fill="#000000" stroke="none" font-family="Arial" font-size="13px" font-style="normal" font-weight="normal" text-decoration="none" x="164" y="581">15 : buildUndirectedEdge</text></g></g><g transform="translate(-12,-30) scale(1,1)"><rect fill="#ffffff" stroke="none" x="296" y="584" width="13" height="112"></rect></g><g transform="translate(-12,-30) scale(1,1)"><path fill="none" stroke="#000000" d="M 296 584 L 309 584 L 309 696 L 296 696 L 296 584 Z Z" stroke-miterlimit="10"></path></g><g transform="translate(-12,-30) scale(1,1)"><path fill="none" stroke="#000000" d="M 309 592 L 774 592" stroke-miterlimit="10"></path></g><g transform="translate(-12,-30) scale(1,1)"><path fill="#000000" stroke="none" d="M 763.8373251423759 596.209517756016 L 774 592 L 763.8373251423758 587.790482243984"></path></g><g transform="translate(-12,-30) scale(1,1)"><path fill="none" stroke="#000000" d="M 763.8373251423759 596.209517756016 L 774 592 L 763.8373251423758 587.790482243984 L 763.8373251423759 596.209517756016" stroke-miterlimit="10"></path></g><g transform="translate(-12,-30) scale(1,1)"><g><path fill="none" stroke="none"></path><text fill="#000000" stroke="none" font-family="Arial" font-size="13px" font-style="normal" font-weight="normal" text-decoration="none" x="469" y="589">16 : new UndirectedEdge</text></g></g><g transform="translate(-12,-30) scale(1,1)"><rect fill="#ffffff" stroke="none" x="774" y="592" width="13" height="28"></rect></g><g transform="translate(-12,-30) scale(1,1)"><path fill="none" stroke="#000000" d="M 774 592 L 787 592 L 787 620 L 774 620 L 774 592 Z Z" stroke-miterlimit="10"></path></g><g transform="translate(-12,-30) scale(1,1)"><path fill="none" stroke="#000000" d="M 309 624 L 443 624" stroke-miterlimit="10"></path></g><g transform="translate(-12,-30) scale(1,1)"><path fill="#000000" stroke="none" d="M 432.83732514237585 628.209517756016 L 443 624 L 432.83732514237585 619.790482243984"></path></g><g transform="translate(-12,-30) scale(1,1)"><path fill="none" stroke="#000000" d="M 432.83732514237585 628.209517756016 L 443 624 L 432.83732514237585 619.790482243984 L 432.83732514237585 628.209517756016" stroke-miterlimit="10"></path></g><g transform="translate(-12,-30) scale(1,1)"><g><path fill="none" stroke="none"></path><text fill="#000000" stroke="none" font-family="Arial" font-size="13px" font-style="normal" font-weight="normal" text-decoration="none" x="338" y="621">17 : addEdge</text></g></g><g transform="translate(-12,-30) scale(1,1)"><rect fill="#ffffff" stroke="none" x="443" y="624" width="13" height="64"></rect></g><g transform="translate(-12,-30) scale(1,1)"><path fill="none" stroke="#000000" d="M 443 624 L 456 624 L 456 688 L 443 688 L 443 624 Z Z" stroke-miterlimit="10"></path></g><g transform="translate(-12,-30) scale(1,1)"><path fill="none" stroke="#000000" d="M 456 632 L 486 632 L 486 652 L 463 652" stroke-miterlimit="10"></path></g><g transform="translate(-12,-30) scale(1,1)"><path fill="#000000" stroke="none" d="M 473.16267485762415 647.790482243984 L 463 652 L 473.16267485762415 656.209517756016"></path></g><g transform="translate(-12,-30) scale(1,1)"><path fill="none" stroke="#000000" d="M 473.16267485762415 647.790482243984 L 463 652 L 473.16267485762415 656.209517756016 L 473.16267485762415 647.790482243984" stroke-miterlimit="10"></path></g><g transform="translate(-12,-30) scale(1,1)"><g><path fill="none" stroke="none"></path><text fill="#000000" stroke="none" font-family="Arial" font-size="13px" font-style="normal" font-weight="normal" text-decoration="none" x="446" y="648">18 : validateEdge</text></g></g><g transform="translate(-12,-30) scale(1,1)"><rect fill="#ffffff" stroke="none" x="450" y="652" width="13" height="28"></rect></g><g transform="translate(-12,-30) scale(1,1)"><path fill="none" stroke="#000000" d="M 450 652 L 463 652 L 463 680 L 450 680 L 450 652 Z Z" stroke-miterlimit="10"></path></g><g transform="translate(-12,-30) scale(1,1)"><path fill="none" stroke="#000000" d="M 170 752 L 200 752 L 200 772 L 177 772" stroke-miterlimit="10"></path></g><g transform="translate(-12,-30) scale(1,1)"><path fill="#000000" stroke="none" d="M 187.16267485762415 767.790482243984 L 177 772 L 187.16267485762415 776.209517756016"></path></g><g transform="translate(-12,-30) scale(1,1)"><path fill="none" stroke="#000000" d="M 187.16267485762415 767.790482243984 L 177 772 L 187.16267485762415 776.209517756016 L 187.16267485762415 767.790482243984" stroke-miterlimit="10"></path></g><g transform="translate(-12,-30) scale(1,1)"><g><path fill="none" stroke="none"></path><text fill="#000000" stroke="none" font-family="Arial" font-size="13px" font-style="normal" font-weight="normal" text-decoration="none" x="175" y="749">19 : parseBehaviors</text></g></g><g transform="translate(-12,-30) scale(1,1)"><rect fill="#ffffff" stroke="none" x="164" y="772" width="13" height="188"></rect></g><g transform="translate(-12,-30) scale(1,1)"><path fill="none" stroke="#000000" d="M 164 772 L 177 772 L 177 960 L 164 960 L 164 772 Z Z" stroke-miterlimit="10"></path></g><g transform="translate(-12,-30) scale(1,1)"><path fill="none" stroke="#000000" d="M 177 792 L 296 792" stroke-miterlimit="10"></path></g><g transform="translate(-12,-30) scale(1,1)"><path fill="#000000" stroke="none" d="M 285.83732514237585 796.209517756016 L 296 792 L 285.83732514237585 787.790482243984"></path></g><g transform="translate(-12,-30) scale(1,1)"><path fill="none" stroke="#000000" d="M 285.83732514237585 796.209517756016 L 296 792 L 285.83732514237585 787.790482243984 L 285.83732514237585 796.209517756016" stroke-miterlimit="10"></path></g><g transform="translate(-12,-30) scale(1,1)"><g><path fill="none" stroke="none"></path><text fill="#000000" stroke="none" font-family="Arial" font-size="13px" font-style="normal" font-weight="normal" text-decoration="none" x="200" y="789">20 : buildEvacuateBehavior</text></g></g><g transform="translate(-12,-30) scale(1,1)"><rect fill="#ffffff" stroke="none" x="296" y="792" width="13" height="56"></rect></g><g transform="translate(-12,-30) scale(1,1)"><path fill="none" stroke="#000000" d="M 296 792 L 309 792 L 309 848 L 296 848 L 296 792 Z Z" stroke-miterlimit="10"></path></g><g transform="translate(-12,-30) scale(1,1)"><path fill="none" stroke="#000000" d="M 309 800 L 912 800" stroke-miterlimit="10"></path></g><g transform="translate(-12,-30) scale(1,1)"><path fill="#000000" stroke="none" d="M 901.8373251423759 804.209517756016 L 912 800 L 901.8373251423758 795.790482243984"></path></g><g transform="translate(-12,-30) scale(1,1)"><path fill="none" stroke="#000000" d="M 901.8373251423759 804.209517756016 L 912 800 L 901.8373251423758 795.790482243984 L 901.8373251423759 804.209517756016" stroke-miterlimit="10"></path></g><g transform="translate(-12,-30) scale(1,1)"><g><path fill="none" stroke="none"></path><text fill="#000000" stroke="none" font-family="Arial" font-size="13px" font-style="normal" font-weight="normal" text-decoration="none" x="533" y="797">21 : new EvacuateBehavior</text></g></g><g transform="translate(-12,-30) scale(1,1)"><rect fill="#ffffff" stroke="none" x="912" y="800" width="13" height="28"></rect></g><g transform="translate(-12,-30) scale(1,1)"><path fill="none" stroke="#000000" d="M 912 800 L 925 800 L 925 828 L 912 828 L 912 800 Z Z" stroke-miterlimit="10"></path></g><g transform="translate(-12,-30) scale(1,1)"><path fill="none" stroke="#000000" d="M 309 820 L 443 820" stroke-miterlimit="10"></path></g><g transform="translate(-12,-30) scale(1,1)"><path fill="#000000" stroke="none" d="M 432.83732514237585 824.209517756016 L 443 820 L 432.83732514237585 815.790482243984"></path></g><g transform="translate(-12,-30) scale(1,1)"><path fill="none" stroke="#000000" d="M 432.83732514237585 824.209517756016 L 443 820 L 432.83732514237585 815.790482243984 L 432.83732514237585 824.209517756016" stroke-miterlimit="10"></path></g><g transform="translate(-12,-30) scale(1,1)"><g><path fill="none" stroke="none"></path><text fill="#000000" stroke="none" font-family="Arial" font-size="13px" font-style="normal" font-weight="normal" text-decoration="none" x="328" y="817">22 : addBehavior</text></g></g><g transform="translate(-12,-30) scale(1,1)"><rect fill="#ffffff" stroke="none" x="443" y="820" width="13" height="28"></rect></g><g transform="translate(-12,-30) scale(1,1)"><path fill="none" stroke="#000000" d="M 443 820 L 456 820 L 456 848 L 443 848 L 443 820 Z Z" stroke-miterlimit="10"></path></g><g transform="translate(-12,-30) scale(1,1)"><path fill="none" stroke="#000000" d="M 177 864 L 296 864" stroke-miterlimit="10"></path></g><g transform="translate(-12,-30) scale(1,1)"><path fill="#000000" stroke="none" d="M 285.83732514237585 868.209517756016 L 296 864 L 285.83732514237585 859.790482243984"></path></g><g transform="translate(-12,-30) scale(1,1)"><path fill="none" stroke="#000000" d="M 285.83732514237585 868.209517756016 L 296 864 L 285.83732514237585 859.790482243984 L 285.83732514237585 868.209517756016" stroke-miterlimit="10"></path></g><g transform="translate(-12,-30) scale(1,1)"><g><path fill="none" stroke="none"></path><text fill="#000000" stroke="none" font-family="Arial" font-size="13px" font-style="normal" font-weight="normal" text-decoration="none" x="173" y="861">23 : buildInterestPoint</text></g></g><g transform="translate(-12,-30) scale(1,1)"><rect fill="#ffffff" stroke="none" x="296" y="864" width="13" height="80"></rect></g><g transform="translate(-12,-30) scale(1,1)"><path fill="none" stroke="#000000" d="M 296 864 L 309 864 L 309 944 L 296 944 L 296 864 Z Z" stroke-miterlimit="10"></path></g><g transform="translate(-12,-30) scale(1,1)"><path fill="none" stroke="#000000" d="M 309 874 L 443 874" stroke-miterlimit="10"></path></g><g transform="translate(-12,-30) scale(1,1)"><path fill="#000000" stroke="none" d="M 432.83732514237585 878.209517756016 L 443 874 L 432.83732514237585 869.790482243984"></path></g><g transform="translate(-12,-30) scale(1,1)"><path fill="none" stroke="#000000" d="M 432.83732514237585 878.209517756016 L 443 874 L 432.83732514237585 869.790482243984 L 432.83732514237585 878.209517756016" stroke-miterlimit="10"></path></g><g transform="translate(-12,-30) scale(1,1)"><g><path fill="none" stroke="none"></path><text fill="#000000" stroke="none" font-family="Arial" font-size="13px" font-style="normal" font-weight="normal" text-decoration="none" x="320" y="871">24 : getNodeFromCoordinates</text></g></g><g transform="translate(-12,-30) scale(1,1)"><rect fill="#ffffff" stroke="none" x="443" y="874" width="13" height="28"></rect></g><g transform="translate(-12,-30) scale(1,1)"><path fill="none" stroke="#000000" d="M 443 874 L 456 874 L 456 902 L 443 902 L 443 874 Z Z" stroke-miterlimit="10"></path></g><g transform="translate(-12,-30) scale(1,1)"><path fill="none" stroke="#000000" d="M 309 912 L 912 912" stroke-miterlimit="10"></path></g><g transform="translate(-12,-30) scale(1,1)"><path fill="#000000" stroke="none" d="M 901.8373251423759 916.209517756016 L 912 912 L 901.8373251423758 907.790482243984"></path></g><g transform="translate(-12,-30) scale(1,1)"><path fill="none" stroke="#000000" d="M 901.8373251423759 916.209517756016 L 912 912 L 901.8373251423758 907.790482243984 L 901.8373251423759 916.209517756016" stroke-miterlimit="10"></path></g><g transform="translate(-12,-30) scale(1,1)"><g><path fill="none" stroke="none"></path><text fill="#000000" stroke="none" font-family="Arial" font-size="13px" font-style="normal" font-weight="normal" text-decoration="none" x="537" y="909">25 : addCoreInterestPoint</text></g></g><g transform="translate(-12,-30) scale(1,1)"><rect fill="#ffffff" stroke="none" x="912" y="912" width="13" height="28"></rect></g><g transform="translate(-12,-30) scale(1,1)"><path fill="none" stroke="#000000" d="M 912 912 L 925 912 L 925 940 L 912 940 L 912 912 Z Z" stroke-miterlimit="10"></path></g><g transform="translate(-12,-30) scale(1,1)"><path fill="none" stroke="#000000" d="M 163 984 L 296 984" stroke-miterlimit="10"></path></g><g transform="translate(-12,-30) scale(1,1)"><path fill="#000000" stroke="none" d="M 285.83732514237585 988.209517756016 L 296 984 L 285.83732514237585 979.790482243984"></path></g><g transform="translate(-12,-30) scale(1,1)"><path fill="none" stroke="#000000" d="M 285.83732514237585 988.209517756016 L 296 984 L 285.83732514237585 979.790482243984 L 285.83732514237585 988.209517756016" stroke-miterlimit="10"></path></g><g transform="translate(-12,-30) scale(1,1)"><g><path fill="none" stroke="none"></path><text fill="#000000" stroke="none" font-family="Arial" font-size="13px" font-style="normal" font-weight="normal" text-decoration="none" x="185" y="981">26 : getProduct</text></g></g><g transform="translate(-12,-30) scale(1,1)"><rect fill="#ffffff" stroke="none" x="296" y="984" width="13" height="28"></rect></g><g transform="translate(-12,-30) scale(1,1)"><path fill="none" stroke="#000000" d="M 296 984 L 309 984 L 309 1012 L 296 1012 L 296 984 Z Z" stroke-miterlimit="10"></path></g><g transform="translate(-12,-30) scale(1,1)"><path fill="none" stroke="#000000" d="M 296 1008 L 163 1008" stroke-miterlimit="10" stroke-dasharray="3"></path></g><g transform="translate(-12,-30) scale(1,1)"><path fill="none" stroke="#000000" d="M 173.16267485762415 1003.790482243984 L 163 1008 L 173.16267485762415 1012.209517756016" stroke-miterlimit="10"></path></g><g transform="translate(-12,-30) scale(1,1)"><g><path fill="none" stroke="none"></path><text fill="#000000" stroke="none" font-family="Arial" font-size="13px" font-style="normal" font-weight="normal" text-decoration="none" x="199" y="1025">27 : graph</text></g></g><g transform="translate(-12,-30) scale(1,1)"><path fill="none" stroke="#000000" d="M 150 1032 L 62 1032" stroke-miterlimit="10" stroke-dasharray="3"></path></g><g transform="translate(-12,-30) scale(1,1)"><path fill="none" stroke="#000000" d="M 72.16267485762415 1027.7904822439841 L 62 1032 L 72.16267485762415 1036.2095177560159" stroke-miterlimit="10"></path></g><g transform="translate(-12,-30) scale(1,1)"><g><path fill="none" stroke="none"></path><text fill="#000000" stroke="none" font-family="Arial" font-size="13px" font-style="normal" font-weight="normal" text-decoration="none" x="79" y="1029">28 : graph</text></g></g></g></svg>