<svg version="1.1" xmlns="http://www.w3.org/2000/svg" xmlns:xlink="http://www.w3.org/1999/xlink" width="470" height="350"><defs></defs><g><g transform="translate(-38,-30) scale(1,1)"><rect fill="#C0C0C0" stroke="none" x="55" y="47" width="74" height="39" opacity="0.2"></rect></g><g transform="translate(-38,-30) scale(1,1)"><rect fill="#ffffff" stroke="none" x="48" y="40" width="74" height="39"></rect></g><g transform="translate(-38,-30) scale(1,1)"><path fill="none" stroke="#000000" d="M 48 40 L 122 40 L 122 79 L 48 79 L 48 40 Z Z" stroke-miterlimit="10"></path></g><g transform="translate(-38,-30) scale(1,1)"><g><path fill="none" stroke="none"></path><text fill="#000000" stroke="none" font-family="Arial" font-size="13px" font-style="normal" font-weight="bold" text-decoration="none" x="65" y="59.5">aClient</text></g></g><g transform="translate(-38,-30) scale(1,1)"><path fill="none" stroke="#000000" d="M 86.5 80 L 86.5 370" stroke-miterlimit="10" stroke-dasharray="3"></path></g><g transform="translate(-38,-30) scale(1,1)"><rect fill="#C0C0C0" stroke="none" x="263" y="47" width="77" height="39" opacity="0.2"></rect></g><g transform="translate(-38,-30) scale(1,1)"><rect fill="#ffffff" stroke="none" x="256" y="40" width="77" height="39"></rect></g><g transform="translate(-38,-30) scale(1,1)"><path fill="none" stroke="#000000" d="M 256 40 L 333 40 L 333 79 L 256 79 L 256 40 Z Z" stroke-miterlimit="10"></path></g><g transform="translate(-38,-30) scale(1,1)"><g><path fill="none" stroke="none"></path><text fill="#000000" stroke="none" font-family="Arial" font-size="13px" font-style="normal" font-weight="bold" text-decoration="none" x="268.5" y="59.5">aDirector</text></g></g><g transform="translate(-38,-30) scale(1,1)"><path fill="none" stroke="#000000" d="M 295.5 80 L 295.5 368" stroke-miterlimit="10" stroke-dasharray="3"></path></g><g transform="translate(-38,-30) scale(1,1)"><rect fill="#C0C0C0" stroke="none" x="375" y="47" width="130" height="39" opacity="0.2"></rect></g><g transform="translate(-38,-30) scale(1,1)"><rect fill="#ffffff" stroke="none" x="368" y="40" width="130" height="39"></rect></g><g transform="translate(-38,-30) scale(1,1)"><path fill="none" stroke="#000000" d="M 368 40 L 498 40 L 498 79 L 368 79 L 368 40 Z Z" stroke-miterlimit="10"></path></g><g transform="translate(-38,-30) scale(1,1)"><g><path fill="none" stroke="none"></path><text fill="#000000" stroke="none" font-family="Arial" font-size="13px" font-style="normal" font-weight="bold" text-decoration="none" x="383.5" y="59.5">aConcreteBuilder</text></g></g><g transform="translate(-38,-30) scale(1,1)"><path fill="none" stroke="#000000" d="M 434.5 80 L 434.5 370" stroke-miterlimit="10" stroke-dasharray="3"></path></g><g transform="translate(-38,-30) scale(1,1)"><path fill="none" stroke="#000000" d="M 86 104 L 427 104" stroke-miterlimit="10"></path></g><g transform="translate(-38,-30) scale(1,1)"><path fill="#000000" stroke="none" d="M 416.83732514237585 108.20951775601598 L 427 104 L 416.83732514237585 99.79048224398402"></path></g><g transform="translate(-38,-30) scale(1,1)"><path fill="none" stroke="#000000" d="M 416.83732514237585 108.20951775601598 L 427 104 L 416.83732514237585 99.79048224398402 L 416.83732514237585 108.20951775601598" stroke-miterlimit="10"></path></g><g transform="translate(-38,-30) scale(1,1)"><g><path fill="none" stroke="none"></path><text fill="#000000" stroke="none" font-family="Arial" font-size="13px" font-style="normal" font-weight="normal" text-decoration="none" x="187" y="101">1 : new ConcreteBuilder</text></g></g><g transform="translate(-38,-30) scale(1,1)"><rect fill="#ffffff" stroke="none" x="427" y="104" width="13" height="28"></rect></g><g transform="translate(-38,-30) scale(1,1)"><path fill="none" stroke="#000000" d="M 427 104 L 440 104 L 440 132 L 427 132 L 427 104 Z Z" stroke-miterlimit="10"></path></g><g transform="translate(-38,-30) scale(1,1)"><path fill="none" stroke="#000000" d="M 86 144 L 288 144" stroke-miterlimit="10"></path></g><g transform="translate(-38,-30) scale(1,1)"><path fill="#000000" stroke="none" d="M 277.83732514237585 148.209517756016 L 288 144 L 277.83732514237585 139.790482243984"></path></g><g transform="translate(-38,-30) scale(1,1)"><path fill="none" stroke="#000000" d="M 277.83732514237585 148.209517756016 L 288 144 L 277.83732514237585 139.790482243984 L 277.83732514237585 148.209517756016" stroke-miterlimit="10"></path></g><g transform="translate(-38,-30) scale(1,1)"><g><path fill="none" stroke="none"></path><text fill="#000000" stroke="none" font-family="Arial" font-size="13px" font-style="normal" font-weight="normal" text-decoration="none" x="88" y="141">2 : new Director(sConcreteBuilder)</text></g></g><g transform="translate(-38,-30) scale(1,1)"><rect fill="#ffffff" stroke="none" x="288" y="144" width="13" height="28"></rect></g><g transform="translate(-38,-30) scale(1,1)"><path fill="none" stroke="#000000" d="M 288 144 L 301 144 L 301 172 L 288 172 L 288 144 Z Z" stroke-miterlimit="10"></path></g><g transform="translate(-38,-30) scale(1,1)"><path fill="none" stroke="#000000" d="M 86 192 L 288 192" stroke-miterlimit="10"></path></g><g transform="translate(-38,-30) scale(1,1)"><path fill="#000000" stroke="none" d="M 277.83732514237585 196.209517756016 L 288 192 L 277.83732514237585 187.790482243984"></path></g><g transform="translate(-38,-30) scale(1,1)"><path fill="none" stroke="#000000" d="M 277.83732514237585 196.209517756016 L 288 192 L 277.83732514237585 187.790482243984 L 277.83732514237585 196.209517756016" stroke-miterlimit="10"></path></g><g transform="translate(-38,-30) scale(1,1)"><g><path fill="none" stroke="none"></path><text fill="#000000" stroke="none" font-family="Arial" font-size="13px" font-style="normal" font-weight="normal" text-decoration="none" x="151" y="189">3 : construct</text></g></g><g transform="translate(-38,-30) scale(1,1)"><rect fill="#ffffff" stroke="none" x="288" y="192" width="13" height="120"></rect></g><g transform="translate(-38,-30) scale(1,1)"><path fill="none" stroke="#000000" d="M 288 192 L 301 192 L 301 312 L 288 312 L 288 192 Z Z" stroke-miterlimit="10"></path></g><g transform="translate(-38,-30) scale(1,1)"><path fill="none" stroke="#000000" d="M 301 200 L 427 200" stroke-miterlimit="10"></path></g><g transform="translate(-38,-30) scale(1,1)"><path fill="#000000" stroke="none" d="M 416.83732514237585 204.209517756016 L 427 200 L 416.83732514237585 195.790482243984"></path></g><g transform="translate(-38,-30) scale(1,1)"><path fill="none" stroke="#000000" d="M 416.83732514237585 204.209517756016 L 427 200 L 416.83732514237585 195.790482243984 L 416.83732514237585 204.209517756016" stroke-miterlimit="10"></path></g><g transform="translate(-38,-30) scale(1,1)"><g><path fill="none" stroke="none"></path><text fill="#000000" stroke="none" font-family="Arial" font-size="13px" font-style="normal" font-weight="normal" text-decoration="none" x="325" y="197">4 : buildPartA</text></g></g><g transform="translate(-38,-30) scale(1,1)"><rect fill="#ffffff" stroke="none" x="427" y="200" width="13" height="28"></rect></g><g transform="translate(-38,-30) scale(1,1)"><path fill="none" stroke="#000000" d="M 427 200 L 440 200 L 440 228 L 427 228 L 427 200 Z Z" stroke-miterlimit="10"></path></g><g transform="translate(-38,-30) scale(1,1)"><path fill="none" stroke="#000000" d="M 301 240 L 427 240" stroke-miterlimit="10"></path></g><g transform="translate(-38,-30) scale(1,1)"><path fill="#000000" stroke="none" d="M 416.83732514237585 244.209517756016 L 427 240 L 416.83732514237585 235.790482243984"></path></g><g transform="translate(-38,-30) scale(1,1)"><path fill="none" stroke="#000000" d="M 416.83732514237585 244.209517756016 L 427 240 L 416.83732514237585 235.790482243984 L 416.83732514237585 244.209517756016" stroke-miterlimit="10"></path></g><g transform="translate(-38,-30) scale(1,1)"><g><path fill="none" stroke="none"></path><text fill="#000000" stroke="none" font-family="Arial" font-size="13px" font-style="normal" font-weight="normal" text-decoration="none" x="325" y="237">5 : buildPartB</text></g></g><g transform="translate(-38,-30) scale(1,1)"><rect fill="#ffffff" stroke="none" x="427" y="240" width="13" height="28"></rect></g><g transform="translate(-38,-30) scale(1,1)"><path fill="none" stroke="#000000" d="M 427 240 L 440 240 L 440 268 L 427 268 L 427 240 Z Z" stroke-miterlimit="10"></path></g><g transform="translate(-38,-30) scale(1,1)"><path fill="none" stroke="#000000" d="M 301 280 L 427 280" stroke-miterlimit="10"></path></g><g transform="translate(-38,-30) scale(1,1)"><path fill="#000000" stroke="none" d="M 416.83732514237585 284.209517756016 L 427 280 L 416.83732514237585 275.790482243984"></path></g><g transform="translate(-38,-30) scale(1,1)"><path fill="none" stroke="#000000" d="M 416.83732514237585 284.209517756016 L 427 280 L 416.83732514237585 275.790482243984 L 416.83732514237585 284.209517756016" stroke-miterlimit="10"></path></g><g transform="translate(-38,-30) scale(1,1)"><g><path fill="none" stroke="none"></path><text fill="#000000" stroke="none" font-family="Arial" font-size="13px" font-style="normal" font-weight="normal" text-decoration="none" x="325" y="277">6 : buildPartC</text></g></g><g transform="translate(-38,-30) scale(1,1)"><rect fill="#ffffff" stroke="none" x="427" y="280" width="13" height="28"></rect></g><g transform="translate(-38,-30) scale(1,1)"><path fill="none" stroke="#000000" d="M 427 280 L 440 280 L 440 308 L 427 308 L 427 280 Z Z" stroke-miterlimit="10"></path></g><g transform="translate(-38,-30) scale(1,1)"><path fill="none" stroke="#000000" d="M 86 328 L 427 328" stroke-miterlimit="10"></path></g><g transform="translate(-38,-30) scale(1,1)"><path fill="#000000" stroke="none" d="M 416.83732514237585 332.209517756016 L 427 328 L 416.83732514237585 323.790482243984"></path></g><g transform="translate(-38,-30) scale(1,1)"><path fill="none" stroke="#000000" d="M 416.83732514237585 332.209517756016 L 427 328 L 416.83732514237585 323.790482243984 L 416.83732514237585 332.209517756016" stroke-miterlimit="10"></path></g><g transform="translate(-38,-30) scale(1,1)"><g><path fill="none" stroke="none"></path><text fill="#000000" stroke="none" font-family="Arial" font-size="13px" font-style="normal" font-weight="normal" text-decoration="none" x="219" y="325">7 : getResult</text></g></g><g transform="translate(-38,-30) scale(1,1)"><rect fill="#ffffff" stroke="none" x="427" y="328" width="13" height="28"></rect></g><g transform="translate(-38,-30) scale(1,1)"><path fill="none" stroke="#000000" d="M 427 328 L 440 328 L 440 356 L 427 356 L 427 328 Z Z" stroke-miterlimit="10"></path></g></g></svg>