<svg version="1.1" xmlns="http://www.w3.org/2000/svg" xmlns:xlink="http://www.w3.org/1999/xlink" width="969" height="1092"><defs></defs><g><g transform="translate(-30,-30) scale(1,1)"><rect fill="#C0C0C0" stroke="none" x="47" y="47" width="74" height="39" opacity="0.2"></rect></g><g transform="translate(-30,-30) scale(1,1)"><rect fill="#ffffff" stroke="none" x="40" y="40" width="74" height="39"></rect></g><g transform="translate(-30,-30) scale(1,1)"><path fill="none" stroke="#000000" d="M 40 40 L 114 40 L 114 79 L 40 79 L 40 40 Z Z" stroke-miterlimit="10"></path></g><g transform="translate(-30,-30) scale(1,1)"><g><path fill="none" stroke="none"></path><text fill="#000000" stroke="none" font-family="Arial" font-size="13px" font-style="normal" font-weight="bold" text-decoration="none" x="57" y="59.5">aClient</text></g></g><g transform="translate(-30,-30) scale(1,1)"><path fill="none" stroke="#000000" d="M 78.5 80 L 78.5 1112" stroke-miterlimit="10" stroke-dasharray="3"></path></g><g transform="translate(-30,-30) scale(1,1)"><rect fill="#C0C0C0" stroke="none" x="135" y="47" width="104" height="39" opacity="0.2"></rect></g><g transform="translate(-30,-30) scale(1,1)"><rect fill="#ffffff" stroke="none" x="128" y="40" width="104" height="39"></rect></g><g transform="translate(-30,-30) scale(1,1)"><path fill="none" stroke="#000000" d="M 128 40 L 232 40 L 232 79 L 128 79 L 128 40 Z Z" stroke-miterlimit="10"></path></g><g transform="translate(-30,-30) scale(1,1)"><g><path fill="none" stroke="none"></path><text fill="#000000" stroke="none" font-family="Arial" font-size="13px" font-style="normal" font-weight="bold" text-decoration="none" x="141.5" y="59.5">anXMLParser</text></g></g><g transform="translate(-30,-30) scale(1,1)"><path fill="none" stroke="#000000" d="M 181.5 80 L 181.5 1112" stroke-miterlimit="10" stroke-dasharray="3"></path></g><g transform="translate(-30,-30) scale(1,1)"><rect fill="#C0C0C0" stroke="none" x="247" y="47" width="165" height="39" opacity="0.2"></rect></g><g transform="translate(-30,-30) scale(1,1)"><rect fill="#ffffff" stroke="none" x="240" y="40" width="165" height="39"></rect></g><g transform="translate(-30,-30) scale(1,1)"><path fill="none" stroke="#000000" d="M 240 40 L 405 40 L 405 79 L 240 79 L 240 40 Z Z" stroke-miterlimit="10"></path></g><g transform="translate(-30,-30) scale(1,1)"><g><path fill="none" stroke="none"></path><text fill="#000000" stroke="none" font-family="Arial" font-size="13px" font-style="normal" font-weight="bold" text-decoration="none" x="257.5" y="59.5">aNetLogoGraphBuilder</text></g></g><g transform="translate(-30,-30) scale(1,1)"><path fill="none" stroke="#000000" d="M 323.5 80 L 323.5 1112" stroke-miterlimit="10" stroke-dasharray="3"></path></g><g transform="translate(-30,-30) scale(1,1)"><rect fill="#C0C0C0" stroke="none" x="431" y="47" width="82" height="39" opacity="0.2"></rect></g><g transform="translate(-30,-30) scale(1,1)"><rect fill="#ffffff" stroke="none" x="424" y="40" width="82" height="39"></rect></g><g transform="translate(-30,-30) scale(1,1)"><path fill="none" stroke="#000000" d="M 424 40 L 506 40 L 506 79 L 424 79 L 424 40 Z Z" stroke-miterlimit="10"></path></g><g transform="translate(-30,-30) scale(1,1)"><g><path fill="none" stroke="none"></path><text fill="#000000" stroke="none" font-family="Arial" font-size="13px" font-style="normal" font-weight="bold" text-decoration="none" x="444" y="59.5">aGraph</text></g></g><g transform="translate(-30,-30) scale(1,1)"><path fill="none" stroke="#000000" d="M 466.5 80 L 466.5 1112" stroke-miterlimit="10" stroke-dasharray="3"></path></g><g transform="translate(-30,-30) scale(1,1)"><rect fill="#C0C0C0" stroke="none" x="527" y="47" width="110" height="39" opacity="0.2"></rect></g><g transform="translate(-30,-30) scale(1,1)"><rect fill="#ffffff" stroke="none" x="520" y="40" width="110" height="39"></rect></g><g transform="translate(-30,-30) scale(1,1)"><path fill="none" stroke="#000000" d="M 520 40 L 630 40 L 630 79 L 520 79 L 520 40 Z Z" stroke-miterlimit="10"></path></g><g transform="translate(-30,-30) scale(1,1)"><g><path fill="none" stroke="none"></path><text fill="#000000" stroke="none" font-family="Arial" font-size="13px" font-style="normal" font-weight="bold" text-decoration="none" x="534.5" y="59.5">aRegularNode</text></g></g><g transform="translate(-30,-30) scale(1,1)"><path fill="none" stroke="#000000" d="M 576.5 80 L 576.5 1112" stroke-miterlimit="10" stroke-dasharray="3"></path></g><g transform="translate(-30,-30) scale(1,1)"><rect fill="#C0C0C0" stroke="none" x="655" y="47" width="92" height="39" opacity="0.2"></rect></g><g transform="translate(-30,-30) scale(1,1)"><rect fill="#ffffff" stroke="none" x="648" y="40" width="92" height="39"></rect></g><g transform="translate(-30,-30) scale(1,1)"><path fill="none" stroke="#000000" d="M 648 40 L 740 40 L 740 79 L 648 79 L 648 40 Z Z" stroke-miterlimit="10"></path></g><g transform="translate(-30,-30) scale(1,1)"><g><path fill="none" stroke="none"></path><text fill="#000000" stroke="none" font-family="Arial" font-size="13px" font-style="normal" font-weight="bold" text-decoration="none" x="660.5" y="59.5">anExitPoint</text></g></g><g transform="translate(-30,-30) scale(1,1)"><path fill="none" stroke="#000000" d="M 695.5 80 L 695.5 1112" stroke-miterlimit="10" stroke-dasharray="3"></path></g><g transform="translate(-30,-30) scale(1,1)"><rect fill="#C0C0C0" stroke="none" x="759" y="47" width="136" height="39" opacity="0.2"></rect></g><g transform="translate(-30,-30) scale(1,1)"><rect fill="#ffffff" stroke="none" x="752" y="40" width="136" height="39"></rect></g><g transform="translate(-30,-30) scale(1,1)"><path fill="none" stroke="#000000" d="M 752 40 L 888 40 L 888 79 L 752 79 L 752 40 Z Z" stroke-miterlimit="10"></path></g><g transform="translate(-30,-30) scale(1,1)"><g><path fill="none" stroke="none"></path><text fill="#000000" stroke="none" font-family="Arial" font-size="13px" font-style="normal" font-weight="bold" text-decoration="none" x="767" y="59.5">anUndirectedEdge</text></g></g><g transform="translate(-30,-30) scale(1,1)"><path fill="none" stroke="#000000" d="M 821.5 80 L 821.5 1112" stroke-miterlimit="10" stroke-dasharray="3"></path></g><g transform="translate(-30,-30) scale(1,1)"><rect fill="#C0C0C0" stroke="none" x="903" y="47" width="93" height="39" opacity="0.2"></rect></g><g transform="translate(-30,-30) scale(1,1)"><rect fill="#ffffff" stroke="none" x="896" y="40" width="93" height="39"></rect></g><g transform="translate(-30,-30) scale(1,1)"><path fill="none" stroke="#000000" d="M 896 40 L 989 40 L 989 79 L 896 79 L 896 40 Z Z" stroke-miterlimit="10"></path></g><g transform="translate(-30,-30) scale(1,1)"><g><path fill="none" stroke="none"></path><text fill="#000000" stroke="none" font-family="Arial" font-size="13px" font-style="normal" font-weight="bold" text-decoration="none" x="909" y="59.5">anEvacuate</text></g></g><g transform="translate(-30,-30) scale(1,1)"><path fill="none" stroke="#000000" d="M 943.5 80 L 943.5 1112" stroke-miterlimit="10" stroke-dasharray="3"></path></g><g transform="translate(-30,-30) scale(1,1)"><path fill="none" stroke="#000000" d="M 78 112 L 174 112" stroke-miterlimit="10"></path></g><g transform="translate(-30,-30) scale(1,1)"><path fill="#000000" stroke="none" d="M 163.83732514237585 116.20951775601598 L 174 112 L 163.83732514237585 107.79048224398402"></path></g><g transform="translate(-30,-30) scale(1,1)"><path fill="none" stroke="#000000" d="M 163.83732514237585 116.20951775601598 L 174 112 L 163.83732514237585 107.79048224398402 L 163.83732514237585 116.20951775601598" stroke-miterlimit="10"></path></g><g transform="translate(-30,-30) scale(1,1)"><g><path fill="none" stroke="none"></path><text fill="#000000" stroke="none" font-family="Arial" font-size="13px" font-style="normal" font-weight="normal" text-decoration="none" x="42" y="106">1 : parseDocumentForGraph</text></g></g><g transform="translate(-30,-30) scale(1,1)"><rect fill="#ffffff" stroke="none" x="174" y="112" width="13" height="984"></rect></g><g transform="translate(-30,-30) scale(1,1)"><path fill="none" stroke="#000000" d="M 174 112 L 187 112 L 187 1096 L 174 1096 L 174 112 Z Z" stroke-miterlimit="10"></path></g><g transform="translate(-30,-30) scale(1,1)"><path fill="none" stroke="#000000" d="M 187 121 L 316 121" stroke-miterlimit="10"></path></g><g transform="translate(-30,-30) scale(1,1)"><path fill="#000000" stroke="none" d="M 305.83732514237585 125.20951775601598 L 316 121 L 305.83732514237585 116.79048224398402"></path></g><g transform="translate(-30,-30) scale(1,1)"><path fill="none" stroke="#000000" d="M 305.83732514237585 125.20951775601598 L 316 121 L 305.83732514237585 116.79048224398402 L 305.83732514237585 125.20951775601598" stroke-miterlimit="10"></path></g><g transform="translate(-30,-30) scale(1,1)"><g><path fill="none" stroke="none"></path><text fill="#000000" stroke="none" font-family="Arial" font-size="13px" font-style="normal" font-weight="normal" text-decoration="none" x="211" y="118">2 : buildGraph</text></g></g><g transform="translate(-30,-30) scale(1,1)"><rect fill="#ffffff" stroke="none" x="316" y="121" width="13" height="28"></rect></g><g transform="translate(-30,-30) scale(1,1)"><path fill="none" stroke="#000000" d="M 316 121 L 329 121 L 329 149 L 316 149 L 316 121 Z Z" stroke-miterlimit="10"></path></g><g transform="translate(-30,-30) scale(1,1)"><path fill="none" stroke="#000000" d="M 329 128 L 459 128" stroke-miterlimit="10"></path></g><g transform="translate(-30,-30) scale(1,1)"><path fill="#000000" stroke="none" d="M 448.83732514237585 132.209517756016 L 459 128 L 448.83732514237585 123.79048224398402"></path></g><g transform="translate(-30,-30) scale(1,1)"><path fill="none" stroke="#000000" d="M 448.83732514237585 132.209517756016 L 459 128 L 448.83732514237585 123.79048224398402 L 448.83732514237585 132.209517756016" stroke-miterlimit="10"></path></g><g transform="translate(-30,-30) scale(1,1)"><g><path fill="none" stroke="none"></path><text fill="#000000" stroke="none" font-family="Arial" font-size="13px" font-style="normal" font-weight="normal" text-decoration="none" x="354" y="125">3 : new Graph</text></g></g><g transform="translate(-30,-30) scale(1,1)"><rect fill="#ffffff" stroke="none" x="459" y="128" width="13" height="28"></rect></g><g transform="translate(-30,-30) scale(1,1)"><path fill="none" stroke="#000000" d="M 459 128 L 472 128 L 472 156 L 459 156 L 459 128 Z Z" stroke-miterlimit="10"></path></g><g transform="translate(-30,-30) scale(1,1)"><path fill="none" stroke="#000000" d="M 187 152 L 217 152 L 217 172 L 194 172" stroke-miterlimit="10"></path></g><g transform="translate(-30,-30) scale(1,1)"><path fill="#000000" stroke="none" d="M 204.16267485762415 167.790482243984 L 194 172 L 204.16267485762415 176.209517756016"></path></g><g transform="translate(-30,-30) scale(1,1)"><path fill="none" stroke="#000000" d="M 204.16267485762415 167.790482243984 L 194 172 L 204.16267485762415 176.209517756016 L 204.16267485762415 167.790482243984" stroke-miterlimit="10"></path></g><g transform="translate(-30,-30) scale(1,1)"><g><path fill="none" stroke="none"></path><text fill="#000000" stroke="none" font-family="Arial" font-size="13px" font-style="normal" font-weight="normal" text-decoration="none" x="207" y="168">4 : parseTree</text></g></g><g transform="translate(-30,-30) scale(1,1)"><rect fill="#ffffff" stroke="none" x="181" y="172" width="13" height="836"></rect></g><g transform="translate(-30,-30) scale(1,1)"><path fill="none" stroke="#000000" d="M 181 172 L 194 172 L 194 1008 L 181 1008 L 181 172 Z Z" stroke-miterlimit="10"></path></g><g transform="translate(-30,-30) scale(1,1)"><path fill="none" stroke="#000000" d="M 194 184 L 224 184 L 224 204 L 201 204" stroke-miterlimit="10"></path></g><g transform="translate(-30,-30) scale(1,1)"><path fill="#000000" stroke="none" d="M 211.16267485762415 199.790482243984 L 201 204 L 211.16267485762415 208.209517756016"></path></g><g transform="translate(-30,-30) scale(1,1)"><path fill="none" stroke="#000000" d="M 211.16267485762415 199.790482243984 L 201 204 L 211.16267485762415 208.209517756016 L 211.16267485762415 199.790482243984" stroke-miterlimit="10"></path></g><g transform="translate(-30,-30) scale(1,1)"><g><path fill="none" stroke="none"></path><text fill="#000000" stroke="none" font-family="Arial" font-size="13px" font-style="normal" font-weight="normal" text-decoration="none" x="207" y="200">5 : parseNodes</text></g></g><g transform="translate(-30,-30) scale(1,1)"><rect fill="#ffffff" stroke="none" x="188" y="204" width="13" height="364"></rect></g><g transform="translate(-30,-30) scale(1,1)"><path fill="none" stroke="#000000" d="M 188 204 L 201 204 L 201 568 L 188 568 L 188 204 Z Z" stroke-miterlimit="10"></path></g><g transform="translate(-30,-30) scale(1,1)"><path fill="none" stroke="#000000" d="M 201 216 L 231 216 L 231 236 L 208 236" stroke-miterlimit="10"></path></g><g transform="translate(-30,-30) scale(1,1)"><path fill="#000000" stroke="none" d="M 218.16267485762415 231.790482243984 L 208 236 L 218.16267485762415 240.209517756016"></path></g><g transform="translate(-30,-30) scale(1,1)"><path fill="none" stroke="#000000" d="M 218.16267485762415 231.790482243984 L 208 236 L 218.16267485762415 240.209517756016 L 218.16267485762415 231.790482243984" stroke-miterlimit="10"></path></g><g transform="translate(-30,-30) scale(1,1)"><g><path fill="none" stroke="none"></path><text fill="#000000" stroke="none" font-family="Arial" font-size="13px" font-style="normal" font-weight="normal" text-decoration="none" x="215" y="232">6 : validateBehaviorIds</text></g></g><g transform="translate(-30,-30) scale(1,1)"><rect fill="#ffffff" stroke="none" x="195" y="236" width="13" height="28"></rect></g><g transform="translate(-30,-30) scale(1,1)"><path fill="none" stroke="#000000" d="M 195 236 L 208 236 L 208 264 L 195 264 L 195 236 Z Z" stroke-miterlimit="10"></path></g><g transform="translate(-30,-30) scale(1,1)"><path fill="none" stroke="#000000" d="M 201 288 L 316 288" stroke-miterlimit="10"></path></g><g transform="translate(-30,-30) scale(1,1)"><path fill="#000000" stroke="none" d="M 305.83732514237585 292.209517756016 L 316 288 L 305.83732514237585 283.790482243984"></path></g><g transform="translate(-30,-30) scale(1,1)"><path fill="none" stroke="#000000" d="M 305.83732514237585 292.209517756016 L 316 288 L 305.83732514237585 283.790482243984 L 305.83732514237585 292.209517756016" stroke-miterlimit="10"></path></g><g transform="translate(-30,-30) scale(1,1)"><g><path fill="none" stroke="none"></path><text fill="#000000" stroke="none" font-family="Arial" font-size="13px" font-style="normal" font-weight="normal" text-decoration="none" x="205" y="284">7 : buildRegularNode</text></g></g><g transform="translate(-30,-30) scale(1,1)"><rect fill="#ffffff" stroke="none" x="316" y="288" width="13" height="120"></rect></g><g transform="translate(-30,-30) scale(1,1)"><path fill="none" stroke="#000000" d="M 316 288 L 329 288 L 329 408 L 316 408 L 316 288 Z Z" stroke-miterlimit="10"></path></g><g transform="translate(-30,-30) scale(1,1)"><path fill="none" stroke="#000000" d="M 329 288 L 569 288" stroke-miterlimit="10"></path></g><g transform="translate(-30,-30) scale(1,1)"><path fill="#000000" stroke="none" d="M 558.8373251423759 292.209517756016 L 569 288 L 558.8373251423758 283.790482243984"></path></g><g transform="translate(-30,-30) scale(1,1)"><path fill="none" stroke="#000000" d="M 558.8373251423759 292.209517756016 L 569 288 L 558.8373251423758 283.790482243984 L 558.8373251423759 292.209517756016" stroke-miterlimit="10"></path></g><g transform="translate(-30,-30) scale(1,1)"><g><path fill="none" stroke="none"></path><text fill="#000000" stroke="none" font-family="Arial" font-size="13px" font-style="normal" font-weight="normal" text-decoration="none" x="370" y="285">8 : validateNodeParameters</text></g></g><g transform="translate(-30,-30) scale(1,1)"><g><path fill="none" stroke="none"></path><text fill="#000000" stroke="none" font-family="Arial" font-size="13px" font-style="normal" font-weight="normal" text-decoration="none" x="426" y="270">«static»</text></g></g><g transform="translate(-30,-30) scale(1,1)"><rect fill="#ffffff" stroke="none" x="569" y="288" width="13" height="28"></rect></g><g transform="translate(-30,-30) scale(1,1)"><path fill="none" stroke="#000000" d="M 569 288 L 582 288 L 582 316 L 569 316 L 569 288 Z Z" stroke-miterlimit="10"></path></g><g transform="translate(-30,-30) scale(1,1)"><path fill="none" stroke="#000000" d="M 329 320 L 569 320" stroke-miterlimit="10"></path></g><g transform="translate(-30,-30) scale(1,1)"><path fill="#000000" stroke="none" d="M 558.8373251423759 324.209517756016 L 569 320 L 558.8373251423758 315.790482243984"></path></g><g transform="translate(-30,-30) scale(1,1)"><path fill="none" stroke="#000000" d="M 558.8373251423759 324.209517756016 L 569 320 L 558.8373251423758 315.790482243984 L 558.8373251423759 324.209517756016" stroke-miterlimit="10"></path></g><g transform="translate(-30,-30) scale(1,1)"><g><path fill="none" stroke="none"></path><text fill="#000000" stroke="none" font-family="Arial" font-size="13px" font-style="normal" font-weight="normal" text-decoration="none" x="389" y="317">9 : new RegularNode</text></g></g><g transform="translate(-30,-30) scale(1,1)"><rect fill="#ffffff" stroke="none" x="569" y="320" width="13" height="28"></rect></g><g transform="translate(-30,-30) scale(1,1)"><path fill="none" stroke="#000000" d="M 569 320 L 582 320 L 582 348 L 569 348 L 569 320 Z Z" stroke-miterlimit="10"></path></g><g transform="translate(-30,-30) scale(1,1)"><path fill="none" stroke="#000000" d="M 329 344 L 459 344" stroke-miterlimit="10"></path></g><g transform="translate(-30,-30) scale(1,1)"><path fill="#000000" stroke="none" d="M 448.83732514237585 348.209517756016 L 459 344 L 448.83732514237585 339.790482243984"></path></g><g transform="translate(-30,-30) scale(1,1)"><path fill="none" stroke="#000000" d="M 448.83732514237585 348.209517756016 L 459 344 L 448.83732514237585 339.790482243984 L 448.83732514237585 348.209517756016" stroke-miterlimit="10"></path></g><g transform="translate(-30,-30) scale(1,1)"><g><path fill="none" stroke="none"></path><text fill="#000000" stroke="none" font-family="Arial" font-size="13px" font-style="normal" font-weight="normal" text-decoration="none" x="360" y="341">10 : addNode</text></g></g><g transform="translate(-30,-30) scale(1,1)"><rect fill="#ffffff" stroke="none" x="459" y="344" width="13" height="59"></rect></g><g transform="translate(-30,-30) scale(1,1)"><path fill="none" stroke="#000000" d="M 459 344 L 472 344 L 472 403 L 459 403 L 459 344 Z Z" stroke-miterlimit="10"></path></g><g transform="translate(-30,-30) scale(1,1)"><path fill="none" stroke="#000000" d="M 472 352 L 502 352 L 502 372 L 479 372" stroke-miterlimit="10"></path></g><g transform="translate(-30,-30) scale(1,1)"><path fill="#000000" stroke="none" d="M 489.16267485762415 367.790482243984 L 479 372 L 489.16267485762415 376.209517756016"></path></g><g transform="translate(-30,-30) scale(1,1)"><path fill="none" stroke="#000000" d="M 489.16267485762415 367.790482243984 L 479 372 L 489.16267485762415 376.209517756016 L 489.16267485762415 367.790482243984" stroke-miterlimit="10"></path></g><g transform="translate(-30,-30) scale(1,1)"><g><path fill="none" stroke="none"></path><text fill="#000000" stroke="none" font-family="Arial" font-size="13px" font-style="normal" font-weight="normal" text-decoration="none" x="412" y="368">11 : validateNodeFromCoordinates</text></g></g><g transform="translate(-30,-30) scale(1,1)"><rect fill="#ffffff" stroke="none" x="466" y="372" width="13" height="28"></rect></g><g transform="translate(-30,-30) scale(1,1)"><path fill="none" stroke="#000000" d="M 466 372 L 479 372 L 479 400 L 466 400 L 466 372 Z Z" stroke-miterlimit="10"></path></g><g transform="translate(-30,-30) scale(1,1)"><path fill="none" stroke="#000000" d="M 201 432 L 316 432" stroke-miterlimit="10"></path></g><g transform="translate(-30,-30) scale(1,1)"><path fill="#000000" stroke="none" d="M 305.83732514237585 436.209517756016 L 316 432 L 305.83732514237585 427.790482243984"></path></g><g transform="translate(-30,-30) scale(1,1)"><path fill="none" stroke="#000000" d="M 305.83732514237585 436.209517756016 L 316 432 L 305.83732514237585 427.790482243984 L 305.83732514237585 436.209517756016" stroke-miterlimit="10"></path></g><g transform="translate(-30,-30) scale(1,1)"><g><path fill="none" stroke="none"></path><text fill="#000000" stroke="none" font-family="Arial" font-size="13px" font-style="normal" font-weight="normal" text-decoration="none" x="205" y="429">12 : buildExitPoint</text></g></g><g transform="translate(-30,-30) scale(1,1)"><rect fill="#ffffff" stroke="none" x="316" y="432" width="13" height="128"></rect></g><g transform="translate(-30,-30) scale(1,1)"><path fill="none" stroke="#000000" d="M 316 432 L 329 432 L 329 560 L 316 560 L 316 432 Z Z" stroke-miterlimit="10"></path></g><g transform="translate(-30,-30) scale(1,1)"><path fill="none" stroke="#000000" d="M 329 440 L 688 440" stroke-miterlimit="10"></path></g><g transform="translate(-30,-30) scale(1,1)"><path fill="#000000" stroke="none" d="M 677.8373251423759 444.209517756016 L 688 440 L 677.8373251423758 435.790482243984"></path></g><g transform="translate(-30,-30) scale(1,1)"><path fill="none" stroke="#000000" d="M 677.8373251423759 444.209517756016 L 688 440 L 677.8373251423758 435.790482243984 L 677.8373251423759 444.209517756016" stroke-miterlimit="10"></path></g><g transform="translate(-30,-30) scale(1,1)"><g><path fill="none" stroke="none"></path><text fill="#000000" stroke="none" font-family="Arial" font-size="13px" font-style="normal" font-weight="normal" text-decoration="none" x="425" y="437">13 : validateNodeParameters</text></g></g><g transform="translate(-30,-30) scale(1,1)"><g><path fill="none" stroke="none"></path><text fill="#000000" stroke="none" font-family="Arial" font-size="13px" font-style="normal" font-weight="normal" text-decoration="none" x="485" y="422">«static»</text></g></g><g transform="translate(-30,-30) scale(1,1)"><rect fill="#ffffff" stroke="none" x="688" y="440" width="13" height="28"></rect></g><g transform="translate(-30,-30) scale(1,1)"><path fill="none" stroke="#000000" d="M 688 440 L 701 440 L 701 468 L 688 468 L 688 440 Z Z" stroke-miterlimit="10"></path></g><g transform="translate(-30,-30) scale(1,1)"><path fill="none" stroke="#000000" d="M 329 472 L 688 472" stroke-miterlimit="10"></path></g><g transform="translate(-30,-30) scale(1,1)"><path fill="#000000" stroke="none" d="M 677.8373251423759 476.209517756016 L 688 472 L 677.8373251423758 467.790482243984"></path></g><g transform="translate(-30,-30) scale(1,1)"><path fill="none" stroke="#000000" d="M 677.8373251423759 476.209517756016 L 688 472 L 677.8373251423758 467.790482243984 L 677.8373251423759 476.209517756016" stroke-miterlimit="10"></path></g><g transform="translate(-30,-30) scale(1,1)"><g><path fill="none" stroke="none"></path><text fill="#000000" stroke="none" font-family="Arial" font-size="13px" font-style="normal" font-weight="normal" text-decoration="none" x="455" y="469">14 : new ExitPoint</text></g></g><g transform="translate(-30,-30) scale(1,1)"><rect fill="#ffffff" stroke="none" x="688" y="472" width="13" height="28"></rect></g><g transform="translate(-30,-30) scale(1,1)"><path fill="none" stroke="#000000" d="M 688 472 L 701 472 L 701 500 L 688 500 L 688 472 Z Z" stroke-miterlimit="10"></path></g><g transform="translate(-30,-30) scale(1,1)"><path fill="none" stroke="#000000" d="M 329 496 L 459 496" stroke-miterlimit="10"></path></g><g transform="translate(-30,-30) scale(1,1)"><path fill="#000000" stroke="none" d="M 448.83732514237585 500.209517756016 L 459 496 L 448.83732514237585 491.790482243984"></path></g><g transform="translate(-30,-30) scale(1,1)"><path fill="none" stroke="#000000" d="M 448.83732514237585 500.209517756016 L 459 496 L 448.83732514237585 491.790482243984 L 448.83732514237585 500.209517756016" stroke-miterlimit="10"></path></g><g transform="translate(-30,-30) scale(1,1)"><g><path fill="none" stroke="none"></path><text fill="#000000" stroke="none" font-family="Arial" font-size="13px" font-style="normal" font-weight="normal" text-decoration="none" x="356" y="493">15 : addNode</text></g></g><g transform="translate(-30,-30) scale(1,1)"><rect fill="#ffffff" stroke="none" x="459" y="496" width="13" height="59"></rect></g><g transform="translate(-30,-30) scale(1,1)"><path fill="none" stroke="#000000" d="M 459 496 L 472 496 L 472 555 L 459 555 L 459 496 Z Z" stroke-miterlimit="10"></path></g><g transform="translate(-30,-30) scale(1,1)"><path fill="none" stroke="#000000" d="M 472 504 L 502 504 L 502 524 L 479 524" stroke-miterlimit="10"></path></g><g transform="translate(-30,-30) scale(1,1)"><path fill="#000000" stroke="none" d="M 489.16267485762415 519.790482243984 L 479 524 L 489.16267485762415 528.209517756016"></path></g><g transform="translate(-30,-30) scale(1,1)"><path fill="none" stroke="#000000" d="M 489.16267485762415 519.790482243984 L 479 524 L 489.16267485762415 528.209517756016 L 489.16267485762415 519.790482243984" stroke-miterlimit="10"></path></g><g transform="translate(-30,-30) scale(1,1)"><g><path fill="none" stroke="none"></path><text fill="#000000" stroke="none" font-family="Arial" font-size="13px" font-style="normal" font-weight="normal" text-decoration="none" x="412" y="520">16 : validateNodeFromCoordinates</text></g></g><g transform="translate(-30,-30) scale(1,1)"><rect fill="#ffffff" stroke="none" x="466" y="524" width="13" height="28"></rect></g><g transform="translate(-30,-30) scale(1,1)"><path fill="none" stroke="#000000" d="M 466 524 L 479 524 L 479 552 L 466 552 L 466 524 Z Z" stroke-miterlimit="10"></path></g><g transform="translate(-30,-30) scale(1,1)"><path fill="none" stroke="#000000" d="M 194 592 L 224 592 L 224 612 L 201 612" stroke-miterlimit="10"></path></g><g transform="translate(-30,-30) scale(1,1)"><path fill="#000000" stroke="none" d="M 211.16267485762415 607.790482243984 L 201 612 L 211.16267485762415 616.209517756016"></path></g><g transform="translate(-30,-30) scale(1,1)"><path fill="none" stroke="#000000" d="M 211.16267485762415 607.790482243984 L 201 612 L 211.16267485762415 616.209517756016 L 211.16267485762415 607.790482243984" stroke-miterlimit="10"></path></g><g transform="translate(-30,-30) scale(1,1)"><g><path fill="none" stroke="none"></path><text fill="#000000" stroke="none" font-family="Arial" font-size="13px" font-style="normal" font-weight="normal" text-decoration="none" x="186" y="608">17 : parseEdges</text></g></g><g transform="translate(-30,-30) scale(1,1)"><rect fill="#ffffff" stroke="none" x="188" y="612" width="13" height="148"></rect></g><g transform="translate(-30,-30) scale(1,1)"><path fill="none" stroke="#000000" d="M 188 612 L 201 612 L 201 760 L 188 760 L 188 612 Z Z" stroke-miterlimit="10"></path></g><g transform="translate(-30,-30) scale(1,1)"><path fill="none" stroke="#000000" d="M 201 632 L 316 632" stroke-miterlimit="10"></path></g><g transform="translate(-30,-30) scale(1,1)"><path fill="#000000" stroke="none" d="M 305.83732514237585 636.209517756016 L 316 632 L 305.83732514237585 627.790482243984"></path></g><g transform="translate(-30,-30) scale(1,1)"><path fill="none" stroke="#000000" d="M 305.83732514237585 636.209517756016 L 316 632 L 305.83732514237585 627.790482243984 L 305.83732514237585 636.209517756016" stroke-miterlimit="10"></path></g><g transform="translate(-30,-30) scale(1,1)"><g><path fill="none" stroke="none"></path><text fill="#000000" stroke="none" font-family="Arial" font-size="13px" font-style="normal" font-weight="normal" text-decoration="none" x="186" y="629">18 : buildUndirectedEdge</text></g></g><g transform="translate(-30,-30) scale(1,1)"><rect fill="#ffffff" stroke="none" x="316" y="632" width="13" height="112"></rect></g><g transform="translate(-30,-30) scale(1,1)"><path fill="none" stroke="#000000" d="M 316 632 L 329 632 L 329 744 L 316 744 L 316 632 Z Z" stroke-miterlimit="10"></path></g><g transform="translate(-30,-30) scale(1,1)"><path fill="none" stroke="#000000" d="M 329 640 L 814 640" stroke-miterlimit="10"></path></g><g transform="translate(-30,-30) scale(1,1)"><path fill="#000000" stroke="none" d="M 803.8373251423759 644.209517756016 L 814 640 L 803.8373251423758 635.790482243984"></path></g><g transform="translate(-30,-30) scale(1,1)"><path fill="none" stroke="#000000" d="M 803.8373251423759 644.209517756016 L 814 640 L 803.8373251423758 635.790482243984 L 803.8373251423759 644.209517756016" stroke-miterlimit="10"></path></g><g transform="translate(-30,-30) scale(1,1)"><g><path fill="none" stroke="none"></path><text fill="#000000" stroke="none" font-family="Arial" font-size="13px" font-style="normal" font-weight="normal" text-decoration="none" x="499" y="637">19 : new UndirectedEdge</text></g></g><g transform="translate(-30,-30) scale(1,1)"><rect fill="#ffffff" stroke="none" x="814" y="640" width="13" height="28"></rect></g><g transform="translate(-30,-30) scale(1,1)"><path fill="none" stroke="#000000" d="M 814 640 L 827 640 L 827 668 L 814 668 L 814 640 Z Z" stroke-miterlimit="10"></path></g><g transform="translate(-30,-30) scale(1,1)"><path fill="none" stroke="#000000" d="M 329 680 L 459 680" stroke-miterlimit="10"></path></g><g transform="translate(-30,-30) scale(1,1)"><path fill="#000000" stroke="none" d="M 448.83732514237585 684.209517756016 L 459 680 L 448.83732514237585 675.790482243984"></path></g><g transform="translate(-30,-30) scale(1,1)"><path fill="none" stroke="#000000" d="M 448.83732514237585 684.209517756016 L 459 680 L 448.83732514237585 675.790482243984 L 448.83732514237585 684.209517756016" stroke-miterlimit="10"></path></g><g transform="translate(-30,-30) scale(1,1)"><g><path fill="none" stroke="none"></path><text fill="#000000" stroke="none" font-family="Arial" font-size="13px" font-style="normal" font-weight="normal" text-decoration="none" x="356" y="677">20 : addEdge</text></g></g><g transform="translate(-30,-30) scale(1,1)"><rect fill="#ffffff" stroke="none" x="459" y="680" width="13" height="67"></rect></g><g transform="translate(-30,-30) scale(1,1)"><path fill="none" stroke="#000000" d="M 459 680 L 472 680 L 472 747 L 459 747 L 459 680 Z Z" stroke-miterlimit="10"></path></g><g transform="translate(-30,-30) scale(1,1)"><path fill="none" stroke="#000000" d="M 472 688 L 502 688 L 502 708 L 479 708" stroke-miterlimit="10"></path></g><g transform="translate(-30,-30) scale(1,1)"><path fill="#000000" stroke="none" d="M 489.16267485762415 703.790482243984 L 479 708 L 489.16267485762415 712.209517756016"></path></g><g transform="translate(-30,-30) scale(1,1)"><path fill="none" stroke="#000000" d="M 489.16267485762415 703.790482243984 L 479 708 L 489.16267485762415 712.209517756016 L 489.16267485762415 703.790482243984" stroke-miterlimit="10"></path></g><g transform="translate(-30,-30) scale(1,1)"><g><path fill="none" stroke="none"></path><text fill="#000000" stroke="none" font-family="Arial" font-size="13px" font-style="normal" font-weight="normal" text-decoration="none" x="462" y="704">21 : validateEdge</text></g></g><g transform="translate(-30,-30) scale(1,1)"><rect fill="#ffffff" stroke="none" x="466" y="708" width="13" height="28"></rect></g><g transform="translate(-30,-30) scale(1,1)"><path fill="none" stroke="#000000" d="M 466 708 L 479 708 L 479 736 L 466 736 L 466 708 Z Z" stroke-miterlimit="10"></path></g><g transform="translate(-30,-30) scale(1,1)"><path fill="none" stroke="#000000" d="M 194 784 L 224 784 L 224 804 L 201 804" stroke-miterlimit="10"></path></g><g transform="translate(-30,-30) scale(1,1)"><path fill="#000000" stroke="none" d="M 211.16267485762415 799.790482243984 L 201 804 L 211.16267485762415 808.209517756016"></path></g><g transform="translate(-30,-30) scale(1,1)"><path fill="none" stroke="#000000" d="M 211.16267485762415 799.790482243984 L 201 804 L 211.16267485762415 808.209517756016 L 211.16267485762415 799.790482243984" stroke-miterlimit="10"></path></g><g transform="translate(-30,-30) scale(1,1)"><g><path fill="none" stroke="none"></path><text fill="#000000" stroke="none" font-family="Arial" font-size="13px" font-style="normal" font-weight="normal" text-decoration="none" x="199" y="781">22 : parseBehaviors</text></g></g><g transform="translate(-30,-30) scale(1,1)"><rect fill="#ffffff" stroke="none" x="188" y="804" width="13" height="180"></rect></g><g transform="translate(-30,-30) scale(1,1)"><path fill="none" stroke="#000000" d="M 188 804 L 201 804 L 201 984 L 188 984 L 188 804 Z Z" stroke-miterlimit="10"></path></g><g transform="translate(-30,-30) scale(1,1)"><path fill="none" stroke="#000000" d="M 201 824 L 316 824" stroke-miterlimit="10"></path></g><g transform="translate(-30,-30) scale(1,1)"><path fill="#000000" stroke="none" d="M 305.83732514237585 828.209517756016 L 316 824 L 305.83732514237585 819.790482243984"></path></g><g transform="translate(-30,-30) scale(1,1)"><path fill="none" stroke="#000000" d="M 305.83732514237585 828.209517756016 L 316 824 L 305.83732514237585 819.790482243984 L 305.83732514237585 828.209517756016" stroke-miterlimit="10"></path></g><g transform="translate(-30,-30) scale(1,1)"><g><path fill="none" stroke="none"></path><text fill="#000000" stroke="none" font-family="Arial" font-size="13px" font-style="normal" font-weight="normal" text-decoration="none" x="222" y="821">23 : buildEvacuateBehavior</text></g></g><g transform="translate(-30,-30) scale(1,1)"><rect fill="#ffffff" stroke="none" x="316" y="824" width="13" height="56"></rect></g><g transform="translate(-30,-30) scale(1,1)"><path fill="none" stroke="#000000" d="M 316 824 L 329 824 L 329 880 L 316 880 L 316 824 Z Z" stroke-miterlimit="10"></path></g><g transform="translate(-30,-30) scale(1,1)"><path fill="none" stroke="#000000" d="M 329 832 L 936 832" stroke-miterlimit="10"></path></g><g transform="translate(-30,-30) scale(1,1)"><path fill="#000000" stroke="none" d="M 925.8373251423759 836.209517756016 L 936 832 L 925.8373251423758 827.790482243984"></path></g><g transform="translate(-30,-30) scale(1,1)"><path fill="none" stroke="#000000" d="M 925.8373251423759 836.209517756016 L 936 832 L 925.8373251423758 827.790482243984 L 925.8373251423759 836.209517756016" stroke-miterlimit="10"></path></g><g transform="translate(-30,-30) scale(1,1)"><g><path fill="none" stroke="none"></path><text fill="#000000" stroke="none" font-family="Arial" font-size="13px" font-style="normal" font-weight="normal" text-decoration="none" x="555" y="829">24 : new EvacuateBehavior</text></g></g><g transform="translate(-30,-30) scale(1,1)"><rect fill="#ffffff" stroke="none" x="936" y="832" width="13" height="28"></rect></g><g transform="translate(-30,-30) scale(1,1)"><path fill="none" stroke="#000000" d="M 936 832 L 949 832 L 949 860 L 936 860 L 936 832 Z Z" stroke-miterlimit="10"></path></g><g transform="translate(-30,-30) scale(1,1)"><path fill="none" stroke="#000000" d="M 329 856 L 459 856" stroke-miterlimit="10"></path></g><g transform="translate(-30,-30) scale(1,1)"><path fill="#000000" stroke="none" d="M 448.83732514237585 860.209517756016 L 459 856 L 448.83732514237585 851.790482243984"></path></g><g transform="translate(-30,-30) scale(1,1)"><path fill="none" stroke="#000000" d="M 448.83732514237585 860.209517756016 L 459 856 L 448.83732514237585 851.790482243984 L 448.83732514237585 860.209517756016" stroke-miterlimit="10"></path></g><g transform="translate(-30,-30) scale(1,1)"><g><path fill="none" stroke="none"></path><text fill="#000000" stroke="none" font-family="Arial" font-size="13px" font-style="normal" font-weight="normal" text-decoration="none" x="346" y="853">25 : addBehavior</text></g></g><g transform="translate(-30,-30) scale(1,1)"><rect fill="#ffffff" stroke="none" x="459" y="856" width="13" height="28"></rect></g><g transform="translate(-30,-30) scale(1,1)"><path fill="none" stroke="#000000" d="M 459 856 L 472 856 L 472 884 L 459 884 L 459 856 Z Z" stroke-miterlimit="10"></path></g><g transform="translate(-30,-30) scale(1,1)"><path fill="none" stroke="#000000" d="M 201 904 L 316 904" stroke-miterlimit="10"></path></g><g transform="translate(-30,-30) scale(1,1)"><path fill="#000000" stroke="none" d="M 305.83732514237585 908.209517756016 L 316 904 L 305.83732514237585 899.790482243984"></path></g><g transform="translate(-30,-30) scale(1,1)"><path fill="none" stroke="#000000" d="M 305.83732514237585 908.209517756016 L 316 904 L 305.83732514237585 899.790482243984 L 305.83732514237585 908.209517756016" stroke-miterlimit="10"></path></g><g transform="translate(-30,-30) scale(1,1)"><g><path fill="none" stroke="none"></path><text fill="#000000" stroke="none" font-family="Arial" font-size="13px" font-style="normal" font-weight="normal" text-decoration="none" x="195" y="901">26 : buildInterestPoint</text></g></g><g transform="translate(-30,-30) scale(1,1)"><rect fill="#ffffff" stroke="none" x="316" y="904" width="13" height="56"></rect></g><g transform="translate(-30,-30) scale(1,1)"><path fill="none" stroke="#000000" d="M 316 904 L 329 904 L 329 960 L 316 960 L 316 904 Z Z" stroke-miterlimit="10"></path></g><g transform="translate(-30,-30) scale(1,1)"><path fill="none" stroke="#000000" d="M 329 912 L 459 912" stroke-miterlimit="10"></path></g><g transform="translate(-30,-30) scale(1,1)"><path fill="#000000" stroke="none" d="M 448.83732514237585 916.209517756016 L 459 912 L 448.83732514237585 907.790482243984"></path></g><g transform="translate(-30,-30) scale(1,1)"><path fill="none" stroke="#000000" d="M 448.83732514237585 916.209517756016 L 459 912 L 448.83732514237585 907.790482243984 L 448.83732514237585 916.209517756016" stroke-miterlimit="10"></path></g><g transform="translate(-30,-30) scale(1,1)"><g><path fill="none" stroke="none"></path><text fill="#000000" stroke="none" font-family="Arial" font-size="13px" font-style="normal" font-weight="normal" text-decoration="none" x="338" y="909">27 : getNodeFromCoordinates</text></g></g><g transform="translate(-30,-30) scale(1,1)"><rect fill="#ffffff" stroke="none" x="459" y="912" width="13" height="28"></rect></g><g transform="translate(-30,-30) scale(1,1)"><path fill="none" stroke="#000000" d="M 459 912 L 472 912 L 472 940 L 459 940 L 459 912 Z Z" stroke-miterlimit="10"></path></g><g transform="translate(-30,-30) scale(1,1)"><path fill="none" stroke="#000000" d="M 329 952 L 936 952" stroke-miterlimit="10"></path></g><g transform="translate(-30,-30) scale(1,1)"><path fill="#000000" stroke="none" d="M 925.8373251423759 956.209517756016 L 936 952 L 925.8373251423758 947.790482243984"></path></g><g transform="translate(-30,-30) scale(1,1)"><path fill="none" stroke="#000000" d="M 925.8373251423759 956.209517756016 L 936 952 L 925.8373251423758 947.790482243984 L 925.8373251423759 956.209517756016" stroke-miterlimit="10"></path></g><g transform="translate(-30,-30) scale(1,1)"><g><path fill="none" stroke="none"></path><text fill="#000000" stroke="none" font-family="Arial" font-size="13px" font-style="normal" font-weight="normal" text-decoration="none" x="559" y="949">28 : addCoreInterestPoint</text></g></g><g transform="translate(-30,-30) scale(1,1)"><rect fill="#ffffff" stroke="none" x="936" y="952" width="13" height="28"></rect></g><g transform="translate(-30,-30) scale(1,1)"><path fill="none" stroke="#000000" d="M 936 952 L 949 952 L 949 980 L 936 980 L 936 952 Z Z" stroke-miterlimit="10"></path></g><g transform="translate(-30,-30) scale(1,1)"><path fill="none" stroke="#000000" d="M 187 1032 L 316 1032" stroke-miterlimit="10"></path></g><g transform="translate(-30,-30) scale(1,1)"><path fill="#000000" stroke="none" d="M 305.83732514237585 1036.2095177560159 L 316 1032 L 305.83732514237585 1027.7904822439841"></path></g><g transform="translate(-30,-30) scale(1,1)"><path fill="none" stroke="#000000" d="M 305.83732514237585 1036.2095177560159 L 316 1032 L 305.83732514237585 1027.7904822439841 L 305.83732514237585 1036.2095177560159" stroke-miterlimit="10"></path></g><g transform="translate(-30,-30) scale(1,1)"><g><path fill="none" stroke="none"></path><text fill="#000000" stroke="none" font-family="Arial" font-size="13px" font-style="normal" font-weight="normal" text-decoration="none" x="207" y="1029">29 : getProduct</text></g></g><g transform="translate(-30,-30) scale(1,1)"><rect fill="#ffffff" stroke="none" x="316" y="1032" width="13" height="28"></rect></g><g transform="translate(-30,-30) scale(1,1)"><path fill="none" stroke="#000000" d="M 316 1032 L 329 1032 L 329 1060 L 316 1060 L 316 1032 Z Z" stroke-miterlimit="10"></path></g><g transform="translate(-30,-30) scale(1,1)"><path fill="none" stroke="#000000" d="M 316 1056 L 187 1056" stroke-miterlimit="10" stroke-dasharray="3"></path></g><g transform="translate(-30,-30) scale(1,1)"><path fill="none" stroke="#000000" d="M 197.16267485762415 1051.7904822439841 L 187 1056 L 197.16267485762415 1060.2095177560159" stroke-miterlimit="10"></path></g><g transform="translate(-30,-30) scale(1,1)"><g><path fill="none" stroke="none"></path><text fill="#000000" stroke="none" font-family="Arial" font-size="13px" font-style="normal" font-weight="normal" text-decoration="none" x="221" y="1073">30 : graph</text></g></g><g transform="translate(-30,-30) scale(1,1)"><path fill="none" stroke="#000000" d="M 174 1088 L 78 1088" stroke-miterlimit="10" stroke-dasharray="3"></path></g><g transform="translate(-30,-30) scale(1,1)"><path fill="none" stroke="#000000" d="M 88.16267485762415 1083.7904822439841 L 78 1088 L 88.16267485762415 1092.2095177560159" stroke-miterlimit="10"></path></g><g transform="translate(-30,-30) scale(1,1)"><g><path fill="none" stroke="none"></path><text fill="#000000" stroke="none" font-family="Arial" font-size="13px" font-style="normal" font-weight="normal" text-decoration="none" x="99" y="1085">31 : graph</text></g></g></g></svg>