<svg version="1.1" xmlns="http://www.w3.org/2000/svg" xmlns:xlink="http://www.w3.org/1999/xlink" width="564" height="212"><defs></defs><g><g transform="translate(-38,-30) scale(1,1)"><rect fill="#C0C0C0" stroke="none" x="111" y="47" width="88" height="57" opacity="0.2"></rect></g><g transform="translate(-38,-30) scale(1,1)"><rect fill="#ffffff" stroke="none" x="104" y="40" width="88" height="57"></rect></g><g transform="translate(-38,-30) scale(1,1)"><path fill="none" stroke="#000000" d="M 104 40 L 192 40 L 192 97 L 104 97 L 104 40 Z Z" stroke-miterlimit="10"></path></g><g transform="translate(-38,-30) scale(1,1)"><path fill="none" stroke="#000000" d="M 104 65 L 192 65" stroke-miterlimit="10"></path></g><g transform="translate(-38,-30) scale(1,1)"><path fill="none" stroke="#000000" d="M 104 75 L 192 75" stroke-miterlimit="10"></path></g><g transform="translate(-38,-30) scale(1,1)"><g><path fill="none" stroke="none"></path><text fill="#000000" stroke="none" font-family="Arial" font-size="13px" font-style="normal" font-weight="bold" text-decoration="none" x="125.5" y="59.5">Director</text></g></g><g transform="translate(-38,-30) scale(1,1)"><g><path fill="none" stroke="none"></path><text fill="#000000" stroke="none" font-family="Arial" font-size="13px" font-style="normal" font-weight="normal" text-decoration="none" x="109" y="92.5">Construct()</text></g></g><g transform="translate(-38,-30) scale(1,1)"><rect fill="#C0C0C0" stroke="none" x="303" y="47" width="88" height="57" opacity="0.2"></rect></g><g transform="translate(-38,-30) scale(1,1)"><rect fill="#ffffff" stroke="none" x="296" y="40" width="88" height="57"></rect></g><g transform="translate(-38,-30) scale(1,1)"><path fill="none" stroke="#000000" d="M 296 40 L 384 40 L 384 97 L 296 97 L 296 40 Z Z" stroke-miterlimit="10"></path></g><g transform="translate(-38,-30) scale(1,1)"><path fill="none" stroke="#000000" d="M 296 65 L 384 65" stroke-miterlimit="10"></path></g><g transform="translate(-38,-30) scale(1,1)"><path fill="none" stroke="#000000" d="M 296 75 L 384 75" stroke-miterlimit="10"></path></g><g transform="translate(-38,-30) scale(1,1)"><g><path fill="none" stroke="none"></path><text fill="#000000" stroke="none" font-family="Arial" font-size="13px" font-style="italic" font-weight="bold" text-decoration="none" x="320" y="59.5">Builder</text></g></g><g transform="translate(-38,-30) scale(1,1)"><g><path fill="none" stroke="none"></path><text fill="#000000" stroke="none" font-family="Arial" font-size="13px" font-style="normal" font-weight="normal" text-decoration="none" x="301" y="92.5">BuildPart()</text></g></g><g transform="translate(-38,-30) scale(1,1)"><rect fill="#C0C0C0" stroke="none" x="295" y="167" width="112" height="72" opacity="0.2"></rect></g><g transform="translate(-38,-30) scale(1,1)"><rect fill="#ffffff" stroke="none" x="288" y="160" width="112" height="72"></rect></g><g transform="translate(-38,-30) scale(1,1)"><path fill="none" stroke="#000000" d="M 288 160 L 400 160 L 400 232 L 288 232 L 288 160 Z Z" stroke-miterlimit="10"></path></g><g transform="translate(-38,-30) scale(1,1)"><path fill="none" stroke="#000000" d="M 288 185 L 400 185" stroke-miterlimit="10"></path></g><g transform="translate(-38,-30) scale(1,1)"><path fill="none" stroke="#000000" d="M 288 195 L 400 195" stroke-miterlimit="10"></path></g><g transform="translate(-38,-30) scale(1,1)"><g><path fill="none" stroke="none"></path><text fill="#000000" stroke="none" font-family="Arial" font-size="13px" font-style="normal" font-weight="bold" text-decoration="none" x="298" y="179.5">ConcreteBuilder</text></g></g><g transform="translate(-38,-30) scale(1,1)"><g><path fill="none" stroke="none"></path><text fill="#000000" stroke="none" font-family="Arial" font-size="13px" font-style="normal" font-weight="normal" text-decoration="none" x="293" y="212.5">BuildPart()</text></g></g><g transform="translate(-38,-30) scale(1,1)"><g><path fill="none" stroke="none"></path><text fill="#000000" stroke="none" font-family="Arial" font-size="13px" font-style="normal" font-weight="normal" text-decoration="none" x="293" y="227.5">GetProduct()</text></g></g><g transform="translate(-38,-30) scale(1,1)"><path fill="none" stroke="#000000" d="M 341 160 L 341 97" stroke-miterlimit="10"></path></g><g transform="translate(-38,-30) scale(1,1)"><path fill="#FFFFFF" stroke="none" d="M 349.419035512032 117.32534971524831 L 341 97 L 332.580964487968 117.32534971524831"></path></g><g transform="translate(-38,-30) scale(1,1)"><path fill="none" stroke="#000000" d="M 349.419035512032 117.32534971524831 L 341 97 L 332.580964487968 117.32534971524831 L 349.419035512032 117.32534971524831" stroke-miterlimit="10"></path></g><g transform="translate(-38,-30) scale(1,1)"><rect fill="#C0C0C0" stroke="none" x="511" y="183" width="88" height="24" opacity="0.2"></rect></g><g transform="translate(-38,-30) scale(1,1)"><rect fill="#ffffff" stroke="none" x="504" y="176" width="88" height="24"></rect></g><g transform="translate(-38,-30) scale(1,1)"><path fill="none" stroke="#000000" d="M 504 176 L 592 176 L 592 200 L 504 200 L 504 176 Z Z" stroke-miterlimit="10"></path></g><g transform="translate(-38,-30) scale(1,1)"><g><path fill="none" stroke="none"></path><text fill="#000000" stroke="none" font-family="Arial" font-size="13px" font-style="normal" font-weight="bold" text-decoration="none" x="525.5" y="195.5">Product</text></g></g><g transform="translate(-38,-30) scale(1,1)"><path fill="#ffffff" stroke="none" d="M 48 168 L 253 168 L 263 178 L 263 223 L 48 223 L 48 168"></path></g><g transform="translate(-38,-30) scale(1,1)"><path fill="none" stroke="#000000" d="M 48 168 L 253 168 L 263 178 L 263 223 L 48 223 L 48 168 L 48 168" stroke-miterlimit="10"></path></g><g transform="translate(-38,-30) scale(1,1)"><path fill="none" stroke="#000000" d="M 253 168 L 253 178 L 263 178 L 253 168" stroke-miterlimit="10"></path></g><g transform="translate(-38,-30) scale(1,1)"><g><path fill="none" stroke="none"></path><text fill="#000000" stroke="none" font-family="Arial" font-size="13px" font-style="normal" font-weight="normal" text-decoration="none" x="53" y="186">per tutti gli oggetti della struttura{</text></g></g><g transform="translate(-38,-30) scale(1,1)"><g><path fill="none" stroke="none"></path><text fill="#000000" stroke="none" font-family="Arial" font-size="13px" font-style="normal" font-weight="normal" text-decoration="none" x="53" y="201">      builder.BuildPart( )</text></g></g><g transform="translate(-38,-30) scale(1,1)"><g><path fill="none" stroke="none"></path><text fill="#000000" stroke="none" font-family="Arial" font-size="13px" font-style="normal" font-weight="normal" text-decoration="none" x="53" y="216">      }</text></g></g><g transform="translate(-38,-30) scale(1,1)"><path fill="none" stroke="#000000" d="M 150 97 L 150 168" stroke-miterlimit="10" stroke-dasharray="3"></path></g><g transform="translate(-38,-30) scale(1,1)"><path fill="none" stroke="#000000" d="M 295 68 L 193 68" stroke-miterlimit="10"></path></g><g transform="translate(-38,-30) scale(1,1)"><path fill="#FFFFFF" stroke="none" d="M 203.16267485762415 63.790482243984016 L 193 68 L 203.16267485762415 72.20951775601598 L 215 68"></path></g><g transform="translate(-38,-30) scale(1,1)"><path fill="none" stroke="#000000" d="M 203.16267485762415 63.790482243984016 L 193 68 L 203.16267485762415 72.20951775601598 L 215 68 L 203.16267485762415 63.790482243984016" stroke-miterlimit="10"></path></g><g transform="translate(-38,-30) scale(1,1)"><g><path fill="none" stroke="none"></path><text fill="#000000" stroke="none" font-family="Arial" font-size="13px" font-style="normal" font-weight="normal" text-decoration="none" x="224" y="90">builder</text></g></g><g transform="translate(-38,-30) scale(1,1)"><path fill="none" stroke="#000000" d="M 400 187 L 504 187" stroke-miterlimit="10" stroke-dasharray="3"></path></g><g transform="translate(-38,-30) scale(1,1)"><path fill="none" stroke="#000000" d="M 493.83732514237585 191.209517756016 L 504 187 L 493.83732514237585 182.790482243984" stroke-miterlimit="10"></path></g></g></svg>