<svg version="1.1" xmlns="http://www.w3.org/2000/svg" xmlns:xlink="http://www.w3.org/1999/xlink" width="668" height="558"><defs></defs><g><g transform="translate(-198,-40) scale(1,1)"><rect fill="#C0C0C0" stroke="none" x="215" y="239" width="248" height="205" opacity="0.2"></rect></g><g transform="translate(-198,-40) scale(1,1)"><rect fill="#ffffff" stroke="none" x="208" y="232" width="248" height="205"></rect></g><g transform="translate(-198,-40) scale(1,1)"><path fill="none" stroke="#000000" d="M 208 232 L 456 232 L 456 437 L 208 437 L 208 232 Z Z" stroke-miterlimit="10"></path></g><g transform="translate(-198,-40) scale(1,1)"><path fill="none" stroke="#000000" d="M 208 257 L 456 257" stroke-miterlimit="10"></path></g><g transform="translate(-198,-40) scale(1,1)"><path fill="none" stroke="#000000" d="M 208 280 L 456 280" stroke-miterlimit="10"></path></g><g transform="translate(-198,-40) scale(1,1)"><g><path fill="none" stroke="none"></path><text fill="#000000" stroke="none" font-family="Arial" font-size="13px" font-style="normal" font-weight="bold" text-decoration="none" x="270.5" y="251.5">NetLogoGraphBuilder</text></g></g><g transform="translate(-198,-40) scale(1,1)"><g><path fill="none" stroke="none"></path><text fill="#000000" stroke="none" font-family="Arial" font-size="13px" font-style="normal" font-weight="normal" text-decoration="none" x="213" y="274.5">-Graph product</text></g></g><g transform="translate(-198,-40) scale(1,1)"><g><path fill="none" stroke="none"></path><text fill="#000000" stroke="none" font-family="Arial" font-size="13px" font-style="normal" font-weight="normal" text-decoration="none" x="213" y="297.5">+buildDirectedEdge()</text></g></g><g transform="translate(-198,-40) scale(1,1)"><g><path fill="none" stroke="none"></path><text fill="#000000" stroke="none" font-family="Arial" font-size="13px" font-style="normal" font-weight="normal" text-decoration="none" x="213" y="312.5">+buildUndirectedEdge()</text></g></g><g transform="translate(-198,-40) scale(1,1)"><g><path fill="none" stroke="none"></path><text fill="#000000" stroke="none" font-family="Arial" font-size="13px" font-style="normal" font-weight="normal" text-decoration="none" x="213" y="327.5">+buildGraph()</text></g></g><g transform="translate(-198,-40) scale(1,1)"><g><path fill="none" stroke="none"></path><text fill="#000000" stroke="none" font-family="Arial" font-size="13px" font-style="normal" font-weight="normal" text-decoration="none" x="213" y="342.5">+getProduct()</text></g></g><g transform="translate(-198,-40) scale(1,1)"><g><path fill="none" stroke="none"></path><text fill="#000000" stroke="none" font-family="Arial" font-size="13px" font-style="normal" font-weight="normal" text-decoration="none" x="213" y="357.5">+buildEvacuateBehavior()</text></g></g><g transform="translate(-198,-40) scale(1,1)"><g><path fill="none" stroke="none"></path><text fill="#000000" stroke="none" font-family="Arial" font-size="13px" font-style="normal" font-weight="normal" text-decoration="none" x="213" y="372.5">+buildVisitBehavior()</text></g></g><g transform="translate(-198,-40) scale(1,1)"><g><path fill="none" stroke="none"></path><text fill="#000000" stroke="none" font-family="Arial" font-size="13px" font-style="normal" font-weight="normal" text-decoration="none" x="213" y="387.5">+buildInterestPointOnBehavior()</text></g></g><g transform="translate(-198,-40) scale(1,1)"><g><path fill="none" stroke="none"></path><text fill="#000000" stroke="none" font-family="Arial" font-size="13px" font-style="normal" font-weight="normal" text-decoration="none" x="213" y="402.5">+buildRegualrNode()</text></g></g><g transform="translate(-198,-40) scale(1,1)"><g><path fill="none" stroke="none"></path><text fill="#000000" stroke="none" font-family="Arial" font-size="13px" font-style="normal" font-weight="normal" text-decoration="none" x="213" y="417.5">+buildExitPoint()</text></g></g><g transform="translate(-198,-40) scale(1,1)"><g><path fill="none" stroke="none"></path><text fill="#000000" stroke="none" font-family="Arial" font-size="13px" font-style="normal" font-weight="normal" text-decoration="none" x="213" y="432.5">+buildEntryPoint()</text></g></g><g transform="translate(-198,-40) scale(1,1)"><rect fill="#C0C0C0" stroke="none" x="647" y="249" width="216" height="87" opacity="0.2"></rect></g><g transform="translate(-198,-40) scale(1,1)"><rect fill="#ffffff" stroke="none" x="640" y="242" width="216" height="87"></rect></g><g transform="translate(-198,-40) scale(1,1)"><path fill="none" stroke="#000000" d="M 640 242 L 856 242 L 856 329 L 640 329 L 640 242 Z Z" stroke-miterlimit="10"></path></g><g transform="translate(-198,-40) scale(1,1)"><path fill="none" stroke="#000000" d="M 640 267 L 856 267" stroke-miterlimit="10"></path></g><g transform="translate(-198,-40) scale(1,1)"><path fill="none" stroke="#000000" d="M 640 277 L 856 277" stroke-miterlimit="10"></path></g><g transform="translate(-198,-40) scale(1,1)"><g><path fill="none" stroke="none"></path><text fill="#000000" stroke="none" font-family="Arial" font-size="13px" font-style="normal" font-weight="bold" text-decoration="none" x="716.5" y="261.5">XMLParser</text></g></g><g transform="translate(-198,-40) scale(1,1)"><g><path fill="none" stroke="none"></path><text fill="#000000" stroke="none" font-family="Arial" font-size="13px" font-style="normal" font-weight="normal" text-decoration="none" x="645" y="294.5">+parseTree()</text></g></g><g transform="translate(-198,-40) scale(1,1)"><g><path fill="none" stroke="none"></path><text fill="#000000" stroke="none" font-family="Arial" font-size="13px" font-style="normal" font-weight="normal" text-decoration="none" x="645" y="309.5">+getElementWithAttributeValue()</text></g></g><g transform="translate(-198,-40) scale(1,1)"><g><path fill="none" stroke="none"></path><text fill="#000000" stroke="none" font-family="Arial" font-size="13px" font-style="normal" font-weight="normal" text-decoration="none" x="645" y="324.5">+getTextAttributeOfElement()</text></g></g><g transform="translate(-198,-40) scale(1,1)"><rect fill="#C0C0C0" stroke="none" x="615" y="57" width="247" height="70" opacity="0.2"></rect></g><g transform="translate(-198,-40) scale(1,1)"><rect fill="#ffffff" stroke="none" x="608" y="50" width="247" height="70"></rect></g><g transform="translate(-198,-40) scale(1,1)"><path fill="none" stroke="#000000" d="M 608 50 L 855 50 L 855 120 L 608 120 L 608 50 Z Z" stroke-miterlimit="10"></path></g><g transform="translate(-198,-40) scale(1,1)"><path fill="none" stroke="#000000" d="M 608 88 L 855 88" stroke-miterlimit="10"></path></g><g transform="translate(-198,-40) scale(1,1)"><path fill="none" stroke="#000000" d="M 608 98 L 855 98" stroke-miterlimit="10"></path></g><g transform="translate(-198,-40) scale(1,1)"><g><path fill="none" stroke="none"></path><text fill="#000000" stroke="none" font-family="Arial" font-size="13px" font-style="normal" font-weight="normal" text-decoration="none" x="700" y="67.5">«interface»</text></g></g><g transform="translate(-198,-40) scale(1,1)"><g><path fill="none" stroke="none"></path><text fill="#000000" stroke="none" font-family="Arial" font-size="13px" font-style="italic" font-weight="bold" text-decoration="none" x="712.5" y="82.5">Parser</text></g></g><g transform="translate(-198,-40) scale(1,1)"><g><path fill="none" stroke="none"></path><text fill="#000000" stroke="none" font-family="Arial" font-size="13px" font-style="normal" font-weight="normal" text-decoration="none" x="613" y="115.5">+parseDocumentForGraph()</text></g></g><g transform="translate(-198,-40) scale(1,1)"><path fill="none" stroke="#000000" d="M 747 242 L 747 120" stroke-miterlimit="10"></path></g><g transform="translate(-198,-40) scale(1,1)"><path fill="#FFFFFF" stroke="none" d="M 755.419035512032 140.3253497152483 L 747 120 L 738.580964487968 140.3253497152483"></path></g><g transform="translate(-198,-40) scale(1,1)"><path fill="none" stroke="#000000" d="M 755.419035512032 140.3253497152483 L 747 120 L 738.580964487968 140.3253497152483 L 755.419035512032 140.3253497152483" stroke-miterlimit="10"></path></g><g transform="translate(-198,-40) scale(1,1)"><rect fill="#C0C0C0" stroke="none" x="279" y="57" width="83" height="57" opacity="0.2"></rect></g><g transform="translate(-198,-40) scale(1,1)"><rect fill="#ffffff" stroke="none" x="272" y="50" width="83" height="57"></rect></g><g transform="translate(-198,-40) scale(1,1)"><path fill="none" stroke="#000000" d="M 272 50 L 355 50 L 355 107 L 272 107 L 272 50 Z Z" stroke-miterlimit="10"></path></g><g transform="translate(-198,-40) scale(1,1)"><path fill="none" stroke="#000000" d="M 272 88 L 355 88" stroke-miterlimit="10"></path></g><g transform="translate(-198,-40) scale(1,1)"><path fill="none" stroke="#000000" d="M 272 98 L 355 98" stroke-miterlimit="10"></path></g><g transform="translate(-198,-40) scale(1,1)"><g><path fill="none" stroke="none"></path><text fill="#000000" stroke="none" font-family="Arial" font-size="13px" font-style="normal" font-weight="normal" text-decoration="none" x="282" y="67.5">«interface»</text></g></g><g transform="translate(-198,-40) scale(1,1)"><g><path fill="none" stroke="none"></path><text fill="#000000" stroke="none" font-family="Arial" font-size="13px" font-style="italic" font-weight="bold" text-decoration="none" x="293.5" y="82.5">Builder</text></g></g><g transform="translate(-198,-40) scale(1,1)"><path fill="none" stroke="#000000" d="M 313 232 L 313 107" stroke-miterlimit="10"></path></g><g transform="translate(-198,-40) scale(1,1)"><path fill="#FFFFFF" stroke="none" d="M 321.419035512032 127.32534971524831 L 313 107 L 304.580964487968 127.32534971524831"></path></g><g transform="translate(-198,-40) scale(1,1)"><path fill="none" stroke="#000000" d="M 321.419035512032 127.32534971524831 L 313 107 L 304.580964487968 127.32534971524831 L 321.419035512032 127.32534971524831" stroke-miterlimit="10"></path></g><g transform="translate(-198,-40) scale(1,1)"><path fill="none" stroke="#000000" d="M 355 90 L 608 90" stroke-miterlimit="10"></path></g><g transform="translate(-198,-40) scale(1,1)"><path fill="#FFFFFF" stroke="none" d="M 597.8373251423759 94.20951775601598 L 608 90 L 597.8373251423758 85.79048224398402 L 586 90"></path></g><g transform="translate(-198,-40) scale(1,1)"><path fill="none" stroke="#000000" d="M 597.8373251423759 94.20951775601598 L 608 90 L 597.8373251423758 85.79048224398402 L 586 90 L 597.8373251423759 94.20951775601598" stroke-miterlimit="10"></path></g><g transform="translate(-198,-40) scale(1,1)"><g><path fill="none" stroke="none"></path><text fill="#000000" stroke="none" font-family="Arial" font-size="13px" font-style="normal" font-weight="normal" text-decoration="none" x="460" y="82">-builder</text></g></g><g transform="translate(-198,-40) scale(1,1)"><rect fill="#C0C0C0" stroke="none" x="271" y="551" width="120" height="44" opacity="0.2"></rect></g><g transform="translate(-198,-40) scale(1,1)"><rect fill="#ffffff" stroke="none" x="264" y="544" width="120" height="44"></rect></g><g transform="translate(-198,-40) scale(1,1)"><path fill="none" stroke="#000000" d="M 264 544 L 384 544 L 384 588 L 264 588 L 264 544 Z Z" stroke-miterlimit="10"></path></g><g transform="translate(-198,-40) scale(1,1)"><path fill="none" stroke="#000000" d="M 264 569 L 384 569" stroke-miterlimit="10"></path></g><g transform="translate(-198,-40) scale(1,1)"><path fill="none" stroke="#000000" d="M 264 579 L 384 579" stroke-miterlimit="10"></path></g><g transform="translate(-198,-40) scale(1,1)"><g><path fill="none" stroke="none"></path><text fill="#000000" stroke="none" font-family="Arial" font-size="13px" font-style="normal" font-weight="bold" text-decoration="none" x="306.5" y="563.5">Graph</text></g></g><g transform="translate(-198,-40) scale(1,1)"><path fill="none" stroke="#000000" d="M 327 437 L 327 544" stroke-miterlimit="10" stroke-dasharray="3"></path></g><g transform="translate(-198,-40) scale(1,1)"><path fill="none" stroke="#000000" d="M 322.790482243984 533.8373251423759 L 327 544 L 331.209517756016 533.8373251423759" stroke-miterlimit="10"></path></g><g transform="translate(-198,-40) scale(1,1)"><g><path fill="none" stroke="none"></path><text fill="#000000" stroke="none" font-family="Arial" font-size="13px" font-style="normal" font-weight="normal" text-decoration="none" x="335" y="496">builds</text></g></g></g></svg>