<svg version="1.1" xmlns="http://www.w3.org/2000/svg" xmlns:xlink="http://www.w3.org/1999/xlink" width="1004" height="1133"><defs></defs><g><g transform="translate(-518,-70) scale(1,1)"><rect fill="#C0C0C0" stroke="none" x="759" y="87" width="414" height="282" opacity="0.2"></rect></g><g transform="translate(-518,-70) scale(1,1)"><rect fill="#ffffff" stroke="none" x="752" y="80" width="414" height="282"></rect></g><g transform="translate(-518,-70) scale(1,1)"><path fill="none" stroke="#000000" d="M 752 80 L 1166 80 L 1166 362 L 752 362 L 752 80 Z Z" stroke-miterlimit="10"></path></g><g transform="translate(-518,-70) scale(1,1)"><path fill="none" stroke="#000000" d="M 752 105 L 1166 105" stroke-miterlimit="10"></path></g><g transform="translate(-518,-70) scale(1,1)"><path fill="none" stroke="#000000" d="M 752 115 L 1166 115" stroke-miterlimit="10"></path></g><g transform="translate(-518,-70) scale(1,1)"><g><path fill="none" stroke="none"></path><text fill="#000000" stroke="none" font-family="Arial" font-size="13px" font-style="normal" font-weight="bold" text-decoration="none" x="941.5" y="99.5">Graph</text></g></g><g transform="translate(-518,-70) scale(1,1)"><g><path fill="none" stroke="none"></path><text fill="#000000" stroke="none" font-family="Arial" font-size="13px" font-style="normal" font-weight="normal" text-decoration="none" x="757" y="132.5">+addEdge(e: Edge): void</text></g></g><g transform="translate(-518,-70) scale(1,1)"><g><path fill="none" stroke="none"></path><text fill="#000000" stroke="none" font-family="Arial" font-size="13px" font-style="normal" font-weight="normal" text-decoration="none" x="757" y="147.5">+addNode(n: Node): void</text></g></g><g transform="translate(-518,-70) scale(1,1)"><g><path fill="none" stroke="none"></path><text fill="#000000" stroke="none" font-family="Arial" font-size="13px" font-style="normal" font-weight="normal" text-decoration="none" x="757" y="162.5">+getEdges(): ArrayList&lt;Edge&gt;</text></g></g><g transform="translate(-518,-70) scale(1,1)"><g><path fill="none" stroke="none"></path><text fill="#000000" stroke="none" font-family="Arial" font-size="13px" font-style="normal" font-weight="normal" text-decoration="none" x="757" y="177.5">+getNode(id: int): Node</text></g></g><g transform="translate(-518,-70) scale(1,1)"><g><path fill="none" stroke="none"></path><text fill="#000000" stroke="none" font-family="Arial" font-size="13px" font-style="normal" font-weight="normal" text-decoration="none" x="757" y="192.5">+getNodeFromCoordinates(x: int, y: int): Node</text></g></g><g transform="translate(-518,-70) scale(1,1)"><g><path fill="none" stroke="none"></path><text fill="#000000" stroke="none" font-family="Arial" font-size="13px" font-style="normal" font-weight="normal" text-decoration="none" x="757" y="207.5">+getNodes(): ArrayList&lt;Node&gt;</text></g></g><g transform="translate(-518,-70) scale(1,1)"><g><path fill="none" stroke="none"></path><text fill="#000000" stroke="none" font-family="Arial" font-size="13px" font-style="normal" font-weight="normal" text-decoration="none" x="757" y="222.5">+getBehaviors(): List&lt;Behavior&gt;</text></g></g><g transform="translate(-518,-70) scale(1,1)"><g><path fill="none" stroke="none"></path><text fill="#000000" stroke="none" font-family="Arial" font-size="13px" font-style="normal" font-weight="normal" text-decoration="none" x="757" y="237.5">+getBehaviorFromId(id: int): Behavior</text></g></g><g transform="translate(-518,-70) scale(1,1)"><g><path fill="none" stroke="none"></path><text fill="#000000" stroke="none" font-family="Arial" font-size="13px" font-style="normal" font-weight="normal" text-decoration="none" x="757" y="252.5">+getMaxNorthCoordinate(): int</text></g></g><g transform="translate(-518,-70) scale(1,1)"><g><path fill="none" stroke="none"></path><text fill="#000000" stroke="none" font-family="Arial" font-size="13px" font-style="normal" font-weight="normal" text-decoration="none" x="757" y="267.5">+getMaxEastCoordinate(): int</text></g></g><g transform="translate(-518,-70) scale(1,1)"><g><path fill="none" stroke="none"></path><text fill="#000000" stroke="none" font-family="Arial" font-size="13px" font-style="normal" font-weight="normal" text-decoration="none" x="757" y="282.5">+validateNode(id: int): boolean</text></g></g><g transform="translate(-518,-70) scale(1,1)"><g><path fill="none" stroke="none"></path><text fill="#000000" stroke="none" font-family="Arial" font-size="13px" font-style="normal" font-weight="normal" text-decoration="none" x="757" y="297.5">+validateNodeFromCoordinates(x: int, y: int): boolean</text></g></g><g transform="translate(-518,-70) scale(1,1)"><g><path fill="none" stroke="none"></path><text fill="#000000" stroke="none" font-family="Arial" font-size="13px" font-style="normal" font-weight="normal" text-decoration="none" x="757" y="312.5">+validateEdge(e: Edge): boolean</text></g></g><g transform="translate(-518,-70) scale(1,1)"><g><path fill="none" stroke="none"></path><text fill="#000000" stroke="none" font-family="Arial" font-size="13px" font-style="normal" font-weight="normal" text-decoration="none" x="757" y="327.5">+addBehavior(b: Behvior): void</text></g></g><g transform="translate(-518,-70) scale(1,1)"><g><path fill="none" stroke="none"></path><text fill="#000000" stroke="none" font-family="Arial" font-size="13px" font-style="normal" font-weight="normal" text-decoration="none" x="757" y="342.5">+accept(v: Visitor): void</text></g></g><g transform="translate(-518,-70) scale(1,1)"><g><path fill="none" stroke="none"></path><text fill="#000000" stroke="none" font-family="Arial" font-size="13px" font-style="normal" font-weight="normal" text-decoration="none" x="757" y="357.5">+toString(): String</text></g></g><g transform="translate(-518,-70) scale(1,1)"><rect fill="#C0C0C0" stroke="none" x="593" y="950" width="278" height="192" opacity="0.2"></rect></g><g transform="translate(-518,-70) scale(1,1)"><rect fill="#ffffff" stroke="none" x="586" y="943" width="278" height="192"></rect></g><g transform="translate(-518,-70) scale(1,1)"><path fill="none" stroke="#000000" d="M 586 943 L 864 943 L 864 1135 L 586 1135 L 586 943 Z Z" stroke-miterlimit="10"></path></g><g transform="translate(-518,-70) scale(1,1)"><path fill="none" stroke="#000000" d="M 586 968 L 864 968" stroke-miterlimit="10"></path></g><g transform="translate(-518,-70) scale(1,1)"><path fill="none" stroke="#000000" d="M 586 1111 L 864 1111" stroke-miterlimit="10"></path></g><g transform="translate(-518,-70) scale(1,1)"><g><path fill="none" stroke="none"></path><text fill="#000000" stroke="none" font-family="Arial" font-size="13px" font-style="normal" font-weight="bold" text-decoration="none" x="686" y="962.5">Regular Node</text></g></g><g transform="translate(-518,-70) scale(1,1)"><g><path fill="none" stroke="none"></path><text fill="#000000" stroke="none" font-family="Arial" font-size="13px" font-style="normal" font-weight="normal" text-decoration="none" x="591" y="985.5">-ID: int</text></g></g><g transform="translate(-518,-70) scale(1,1)"><g><path fill="none" stroke="none"></path><text fill="#000000" stroke="none" font-family="Arial" font-size="13px" font-style="normal" font-weight="normal" text-decoration="none" x="591" y="1000.5">-capacity: int</text></g></g><g transform="translate(-518,-70) scale(1,1)"><g><path fill="none" stroke="none"></path><text fill="#000000" stroke="none" font-family="Arial" font-size="13px" font-style="normal" font-weight="normal" text-decoration="none" x="591" y="1015.5">-x: int</text></g></g><g transform="translate(-518,-70) scale(1,1)"><g><path fill="none" stroke="none"></path><text fill="#000000" stroke="none" font-family="Arial" font-size="13px" font-style="normal" font-weight="normal" text-decoration="none" x="591" y="1030.5">-y: int</text></g></g><g transform="translate(-518,-70) scale(1,1)"><g><path fill="none" stroke="none"></path><text fill="#000000" stroke="none" font-family="Arial" font-size="13px" font-style="normal" font-weight="normal" text-decoration="none" x="591" y="1045.5">-width: int</text></g></g><g transform="translate(-518,-70) scale(1,1)"><g><path fill="none" stroke="none"></path><text fill="#000000" stroke="none" font-family="Arial" font-size="13px" font-style="normal" font-weight="normal" text-decoration="none" x="591" y="1060.5">-height: int</text></g></g><g transform="translate(-518,-70) scale(1,1)"><g><path fill="none" stroke="none"></path><text fill="#000000" stroke="none" font-family="Arial" font-size="13px" font-style="normal" font-weight="normal" text-decoration="none" x="591" y="1075.5">-radius: int</text></g></g><g transform="translate(-518,-70) scale(1,1)"><g><path fill="none" stroke="none"></path><text fill="#000000" stroke="none" font-family="Arial" font-size="13px" font-style="normal" font-weight="normal" text-decoration="none" x="591" y="1090.5">-state: HashMap&lt;Integer,Integer&gt;</text></g></g><g transform="translate(-518,-70) scale(1,1)"><g><path fill="none" stroke="none"></path><text fill="#000000" stroke="none" font-family="Arial" font-size="13px" font-style="normal" font-weight="normal" text-decoration="none" x="591" y="1105.5">-reachables: List&lt;Node&gt;</text></g></g><g transform="translate(-518,-70) scale(1,1)"><g><path fill="none" stroke="none"></path><text fill="#000000" stroke="none" font-family="Arial" font-size="13px" font-style="normal" font-weight="normal" text-decoration="none" x="591" y="1128.5">«static»+validateNodeParameters(): boolean</text></g></g><g transform="translate(-518,-70) scale(1,1)"><rect fill="#C0C0C0" stroke="none" x="1295" y="375" width="151" height="175" opacity="0.2"></rect></g><g transform="translate(-518,-70) scale(1,1)"><rect fill="#ffffff" stroke="none" x="1288" y="368" width="151" height="175"></rect></g><g transform="translate(-518,-70) scale(1,1)"><path fill="none" stroke="#000000" d="M 1288 368 L 1439 368 L 1439 543 L 1288 543 L 1288 368 Z Z" stroke-miterlimit="10"></path></g><g transform="translate(-518,-70) scale(1,1)"><path fill="none" stroke="#000000" d="M 1288 406 L 1439 406" stroke-miterlimit="10"></path></g><g transform="translate(-518,-70) scale(1,1)"><path fill="none" stroke="#000000" d="M 1288 416 L 1439 416" stroke-miterlimit="10"></path></g><g transform="translate(-518,-70) scale(1,1)"><g><path fill="none" stroke="none"></path><text fill="#000000" stroke="none" font-family="Arial" font-size="13px" font-style="normal" font-weight="normal" text-decoration="none" x="1332" y="385.5">«Interface»</text></g></g><g transform="translate(-518,-70) scale(1,1)"><g><path fill="none" stroke="none"></path><text fill="#000000" stroke="none" font-family="Arial" font-size="13px" font-style="italic" font-weight="bold" text-decoration="none" x="1348.5" y="400.5">Edge</text></g></g><g transform="translate(-518,-70) scale(1,1)"><g><path fill="none" stroke="none"></path><text fill="#000000" stroke="none" font-family="Arial" font-size="13px" font-style="normal" font-weight="normal" text-decoration="none" x="1293" y="433.5">+getDistance(): int</text></g></g><g transform="translate(-518,-70) scale(1,1)"><g><path fill="none" stroke="none"></path><text fill="#000000" stroke="none" font-family="Arial" font-size="13px" font-style="normal" font-weight="normal" text-decoration="none" x="1293" y="448.5">+getWidth(): int</text></g></g><g transform="translate(-518,-70) scale(1,1)"><g><path fill="none" stroke="none"></path><text fill="#000000" stroke="none" font-family="Arial" font-size="13px" font-style="normal" font-weight="normal" text-decoration="none" x="1293" y="463.5">+accept(v: Visitor): void</text></g></g><g transform="translate(-518,-70) scale(1,1)"><g><path fill="none" stroke="none"></path><text fill="#000000" stroke="none" font-family="Arial" font-size="13px" font-style="normal" font-weight="normal" text-decoration="none" x="1293" y="478.5">+getSource(): Node</text></g></g><g transform="translate(-518,-70) scale(1,1)"><g><path fill="none" stroke="none"></path><text fill="#000000" stroke="none" font-family="Arial" font-size="13px" font-style="normal" font-weight="normal" text-decoration="none" x="1293" y="493.5">+getTarget(): Node</text></g></g><g transform="translate(-518,-70) scale(1,1)"><g><path fill="none" stroke="none"></path><text fill="#000000" stroke="none" font-family="Arial" font-size="13px" font-style="normal" font-weight="normal" text-decoration="none" x="1293" y="508.5">+setSource(n: Node): int</text></g></g><g transform="translate(-518,-70) scale(1,1)"><g><path fill="none" stroke="none"></path><text fill="#000000" stroke="none" font-family="Arial" font-size="13px" font-style="normal" font-weight="normal" text-decoration="none" x="1293" y="523.5">+setTarget(n: Node): int</text></g></g><g transform="translate(-518,-70) scale(1,1)"><g><path fill="none" stroke="none"></path><text fill="#000000" stroke="none" font-family="Arial" font-size="13px" font-style="normal" font-weight="normal" text-decoration="none" x="1293" y="538.5">+getWeight(): int</text></g></g><g transform="translate(-518,-70) scale(1,1)"><path fill="none" stroke="#000000" d="M 1368 368 L 1368 208 L 1166 208" stroke-miterlimit="10"></path></g><g transform="translate(-518,-70) scale(1,1)"><path fill="#000000" stroke="none" d="M 1176.162674857624 203.790482243984 L 1166 208 L 1176.162674857624 212.209517756016 L 1188 208"></path></g><g transform="translate(-518,-70) scale(1,1)"><path fill="none" stroke="#000000" d="M 1176.162674857624 203.790482243984 L 1166 208 L 1176.162674857624 212.209517756016 L 1188 208 L 1176.162674857624 203.790482243984" stroke-miterlimit="10"></path></g><g transform="translate(-518,-70) scale(1,1)"><g><path fill="none" stroke="none"></path><text fill="#000000" stroke="none" font-family="Arial" font-size="13px" font-style="normal" font-weight="normal" text-decoration="none" x="1325" y="244">-edges</text></g></g><g transform="translate(-518,-70) scale(1,1)"><g><path fill="none" stroke="none"></path><text fill="#000000" stroke="none" font-family="Arial" font-size="13px" font-style="normal" font-weight="normal" text-decoration="none" x="1376" y="365">*</text></g></g><g transform="translate(-518,-70) scale(1,1)"><rect fill="#C0C0C0" stroke="none" x="913" y="950" width="331" height="250" opacity="0.2"></rect></g><g transform="translate(-518,-70) scale(1,1)"><rect fill="#ffffff" stroke="none" x="906" y="943" width="331" height="250"></rect></g><g transform="translate(-518,-70) scale(1,1)"><path fill="none" stroke="#000000" d="M 906 943 L 1237 943 L 1237 1193 L 906 1193 L 906 943 Z Z" stroke-miterlimit="10"></path></g><g transform="translate(-518,-70) scale(1,1)"><path fill="none" stroke="#000000" d="M 906 968 L 1237 968" stroke-miterlimit="10"></path></g><g transform="translate(-518,-70) scale(1,1)"><path fill="none" stroke="#000000" d="M 906 1126 L 1237 1126" stroke-miterlimit="10"></path></g><g transform="translate(-518,-70) scale(1,1)"><g><path fill="none" stroke="none"></path><text fill="#000000" stroke="none" font-family="Arial" font-size="13px" font-style="normal" font-weight="bold" text-decoration="none" x="1039" y="962.5">Entry Point</text></g></g><g transform="translate(-518,-70) scale(1,1)"><g><path fill="none" stroke="none"></path><text fill="#000000" stroke="none" font-family="Arial" font-size="13px" font-style="normal" font-weight="normal" text-decoration="none" x="911" y="985.5">-ID: int</text></g></g><g transform="translate(-518,-70) scale(1,1)"><g><path fill="none" stroke="none"></path><text fill="#000000" stroke="none" font-family="Arial" font-size="13px" font-style="normal" font-weight="normal" text-decoration="none" x="911" y="1000.5">-x: int</text></g></g><g transform="translate(-518,-70) scale(1,1)"><g><path fill="none" stroke="none"></path><text fill="#000000" stroke="none" font-family="Arial" font-size="13px" font-style="normal" font-weight="normal" text-decoration="none" x="911" y="1015.5">-y: int</text></g></g><g transform="translate(-518,-70) scale(1,1)"><g><path fill="none" stroke="none"></path><text fill="#000000" stroke="none" font-family="Arial" font-size="13px" font-style="normal" font-weight="normal" text-decoration="none" x="911" y="1030.5">- width: int</text></g></g><g transform="translate(-518,-70) scale(1,1)"><g><path fill="none" stroke="none"></path><text fill="#000000" stroke="none" font-family="Arial" font-size="13px" font-style="normal" font-weight="normal" text-decoration="none" x="911" y="1045.5">-height: int</text></g></g><g transform="translate(-518,-70) scale(1,1)"><g><path fill="none" stroke="none"></path><text fill="#000000" stroke="none" font-family="Arial" font-size="13px" font-style="normal" font-weight="normal" text-decoration="none" x="911" y="1060.5">-capacity: int</text></g></g><g transform="translate(-518,-70) scale(1,1)"><g><path fill="none" stroke="none"></path><text fill="#000000" stroke="none" font-family="Arial" font-size="13px" font-style="normal" font-weight="normal" text-decoration="none" x="911" y="1075.5">-radius: int</text></g></g><g transform="translate(-518,-70) scale(1,1)"><g><path fill="none" stroke="none"></path><text fill="#000000" stroke="none" font-family="Arial" font-size="13px" font-style="normal" font-weight="normal" text-decoration="none" x="911" y="1090.5">-generationPercentage: HashMap&lt;Integer,Float&gt;</text></g></g><g transform="translate(-518,-70) scale(1,1)"><g><path fill="none" stroke="none"></path><text fill="#000000" stroke="none" font-family="Arial" font-size="13px" font-style="normal" font-weight="normal" text-decoration="none" x="911" y="1105.5">-reachables: List&lt;Node&gt;</text></g></g><g transform="translate(-518,-70) scale(1,1)"><g><path fill="none" stroke="none"></path><text fill="#000000" stroke="none" font-family="Arial" font-size="13px" font-style="normal" font-weight="normal" text-decoration="none" x="911" y="1120.5">-state: HashMap&lt;Integer,Integer&gt;</text></g></g><g transform="translate(-518,-70) scale(1,1)"><g><path fill="none" stroke="none"></path><text fill="#000000" stroke="none" font-family="Arial" font-size="13px" font-style="normal" font-weight="normal" text-decoration="none" x="911" y="1143.5">«static»+validateNodeParameters(): boolean</text></g></g><g transform="translate(-518,-70) scale(1,1)"><g><path fill="none" stroke="none"></path><text fill="#000000" stroke="none" font-family="Arial" font-size="13px" font-style="normal" font-weight="normal" text-decoration="none" x="911" y="1158.5">+getGenerationPercentage(): : HashMap&lt;Integer,Float&gt;</text></g></g><g transform="translate(-518,-70) scale(1,1)"><g><path fill="none" stroke="none"></path><text fill="#000000" stroke="none" font-family="Arial" font-size="13px" font-style="normal" font-weight="normal" text-decoration="none" x="911" y="1173.5">+getEntryLimit(): int</text></g></g><g transform="translate(-518,-70) scale(1,1)"><g><path fill="none" stroke="none"></path><text fill="#000000" stroke="none" font-family="Arial" font-size="13px" font-style="normal" font-weight="normal" text-decoration="none" x="911" y="1188.5">+getEntryRate(): float</text></g></g><g transform="translate(-518,-70) scale(1,1)"><rect fill="#C0C0C0" stroke="none" x="1273" y="950" width="240" height="235" opacity="0.2"></rect></g><g transform="translate(-518,-70) scale(1,1)"><rect fill="#ffffff" stroke="none" x="1266" y="943" width="240" height="235"></rect></g><g transform="translate(-518,-70) scale(1,1)"><path fill="none" stroke="#000000" d="M 1266 943 L 1506 943 L 1506 1178 L 1266 1178 L 1266 943 Z Z" stroke-miterlimit="10"></path></g><g transform="translate(-518,-70) scale(1,1)"><path fill="none" stroke="#000000" d="M 1266 968 L 1506 968" stroke-miterlimit="10"></path></g><g transform="translate(-518,-70) scale(1,1)"><path fill="none" stroke="#000000" d="M 1266 1126 L 1506 1126" stroke-miterlimit="10"></path></g><g transform="translate(-518,-70) scale(1,1)"><g><path fill="none" stroke="none"></path><text fill="#000000" stroke="none" font-family="Arial" font-size="13px" font-style="normal" font-weight="bold" text-decoration="none" x="1357.5" y="962.5">Exit Point</text></g></g><g transform="translate(-518,-70) scale(1,1)"><g><path fill="none" stroke="none"></path><text fill="#000000" stroke="none" font-family="Arial" font-size="13px" font-style="normal" font-weight="normal" text-decoration="none" x="1271" y="985.5">-ID: int</text></g></g><g transform="translate(-518,-70) scale(1,1)"><g><path fill="none" stroke="none"></path><text fill="#000000" stroke="none" font-family="Arial" font-size="13px" font-style="normal" font-weight="normal" text-decoration="none" x="1271" y="1000.5">-x: int</text></g></g><g transform="translate(-518,-70) scale(1,1)"><g><path fill="none" stroke="none"></path><text fill="#000000" stroke="none" font-family="Arial" font-size="13px" font-style="normal" font-weight="normal" text-decoration="none" x="1271" y="1015.5">-y: int</text></g></g><g transform="translate(-518,-70) scale(1,1)"><g><path fill="none" stroke="none"></path><text fill="#000000" stroke="none" font-family="Arial" font-size="13px" font-style="normal" font-weight="normal" text-decoration="none" x="1271" y="1030.5">-width: int</text></g></g><g transform="translate(-518,-70) scale(1,1)"><g><path fill="none" stroke="none"></path><text fill="#000000" stroke="none" font-family="Arial" font-size="13px" font-style="normal" font-weight="normal" text-decoration="none" x="1271" y="1045.5">-height: int</text></g></g><g transform="translate(-518,-70) scale(1,1)"><g><path fill="none" stroke="none"></path><text fill="#000000" stroke="none" font-family="Arial" font-size="13px" font-style="normal" font-weight="normal" text-decoration="none" x="1271" y="1060.5">-capacity: int</text></g></g><g transform="translate(-518,-70) scale(1,1)"><g><path fill="none" stroke="none"></path><text fill="#000000" stroke="none" font-family="Arial" font-size="13px" font-style="normal" font-weight="normal" text-decoration="none" x="1271" y="1075.5">-radius: int</text></g></g><g transform="translate(-518,-70) scale(1,1)"><g><path fill="none" stroke="none"></path><text fill="#000000" stroke="none" font-family="Arial" font-size="13px" font-style="normal" font-weight="normal" text-decoration="none" x="1271" y="1090.5">-sinkingRate: : HashMap&lt;Integer,Float&gt;</text></g></g><g transform="translate(-518,-70) scale(1,1)"><g><path fill="none" stroke="none"></path><text fill="#000000" stroke="none" font-family="Arial" font-size="13px" font-style="normal" font-weight="normal" text-decoration="none" x="1271" y="1105.5">-reachables: List&lt;Node&gt;</text></g></g><g transform="translate(-518,-70) scale(1,1)"><g><path fill="none" stroke="none"></path><text fill="#000000" stroke="none" font-family="Arial" font-size="13px" font-style="normal" font-weight="normal" text-decoration="none" x="1271" y="1120.5">-state: : HashMap&lt;Integer,Integer&gt;</text></g></g><g transform="translate(-518,-70) scale(1,1)"><g><path fill="none" stroke="none"></path><text fill="#000000" stroke="none" font-family="Arial" font-size="13px" font-style="normal" font-weight="normal" text-decoration="none" x="1271" y="1143.5">«static»+validateNodeParameters()</text></g></g><g transform="translate(-518,-70) scale(1,1)"><g><path fill="none" stroke="none"></path><text fill="#000000" stroke="none" font-family="Arial" font-size="13px" font-style="normal" font-weight="normal" text-decoration="none" x="1271" y="1158.5">+getSinkingPercentage()</text></g></g><g transform="translate(-518,-70) scale(1,1)"><g><path fill="none" stroke="none"></path><text fill="#000000" stroke="none" font-family="Arial" font-size="13px" font-style="normal" font-weight="normal" text-decoration="none" x="1271" y="1173.5">+getExitRate()</text></g></g><g transform="translate(-518,-70) scale(1,1)"><rect fill="#C0C0C0" stroke="none" x="535" y="671" width="78" height="57" opacity="0.2"></rect></g><g transform="translate(-518,-70) scale(1,1)"><rect fill="#ffffff" stroke="none" x="528" y="664" width="78" height="57"></rect></g><g transform="translate(-518,-70) scale(1,1)"><path fill="none" stroke="#000000" d="M 528 664 L 606 664 L 606 721 L 528 721 L 528 664 Z Z" stroke-miterlimit="10"></path></g><g transform="translate(-518,-70) scale(1,1)"><path fill="none" stroke="#000000" d="M 528 689 L 606 689" stroke-miterlimit="10"></path></g><g transform="translate(-518,-70) scale(1,1)"><path fill="none" stroke="#000000" d="M 528 712 L 606 712" stroke-miterlimit="10"></path></g><g transform="translate(-518,-70) scale(1,1)"><g><path fill="none" stroke="none"></path><text fill="#000000" stroke="none" font-family="Arial" font-size="13px" font-style="normal" font-weight="bold" text-decoration="none" x="540.5" y="683.5">Evacuate</text></g></g><g transform="translate(-518,-70) scale(1,1)"><g><path fill="none" stroke="none"></path><text fill="#000000" stroke="none" font-family="Arial" font-size="13px" font-style="normal" font-weight="normal" text-decoration="none" x="533" y="706.5">-id: int</text></g></g><g transform="translate(-518,-70) scale(1,1)"><rect fill="#C0C0C0" stroke="none" x="631" y="671" width="75" height="57" opacity="0.2"></rect></g><g transform="translate(-518,-70) scale(1,1)"><rect fill="#ffffff" stroke="none" x="624" y="664" width="75" height="57"></rect></g><g transform="translate(-518,-70) scale(1,1)"><path fill="none" stroke="#000000" d="M 624 664 L 699 664 L 699 721 L 624 721 L 624 664 Z Z" stroke-miterlimit="10"></path></g><g transform="translate(-518,-70) scale(1,1)"><path fill="none" stroke="#000000" d="M 624 689 L 699 689" stroke-miterlimit="10"></path></g><g transform="translate(-518,-70) scale(1,1)"><path fill="none" stroke="#000000" d="M 624 712 L 699 712" stroke-miterlimit="10"></path></g><g transform="translate(-518,-70) scale(1,1)"><g><path fill="none" stroke="none"></path><text fill="#000000" stroke="none" font-family="Arial" font-size="13px" font-style="normal" font-weight="bold" text-decoration="none" x="648.5" y="683.5">Visit</text></g></g><g transform="translate(-518,-70) scale(1,1)"><g><path fill="none" stroke="none"></path><text fill="#000000" stroke="none" font-family="Arial" font-size="13px" font-style="normal" font-weight="normal" text-decoration="none" x="629" y="706.5">-id: int</text></g></g><g transform="translate(-518,-70) scale(1,1)"><rect fill="#C0C0C0" stroke="none" x="897" y="574" width="312" height="310" opacity="0.2"></rect></g><g transform="translate(-518,-70) scale(1,1)"><rect fill="#ffffff" stroke="none" x="890" y="567" width="312" height="310"></rect></g><g transform="translate(-518,-70) scale(1,1)"><path fill="none" stroke="#000000" d="M 890 567 L 1202 567 L 1202 877 L 890 877 L 890 567 Z Z" stroke-miterlimit="10"></path></g><g transform="translate(-518,-70) scale(1,1)"><path fill="none" stroke="#000000" d="M 890 605 L 1202 605" stroke-miterlimit="10"></path></g><g transform="translate(-518,-70) scale(1,1)"><path fill="none" stroke="#000000" d="M 890 615 L 1202 615" stroke-miterlimit="10"></path></g><g transform="translate(-518,-70) scale(1,1)"><g><path fill="none" stroke="none"></path><text fill="#000000" stroke="none" font-family="Arial" font-size="13px" font-style="normal" font-weight="normal" text-decoration="none" x="1014.5" y="584.5">«interface»</text></g></g><g transform="translate(-518,-70) scale(1,1)"><g><path fill="none" stroke="none"></path><text fill="#000000" stroke="none" font-family="Arial" font-size="13px" font-style="italic" font-weight="bold" text-decoration="none" x="1031" y="599.5">Node</text></g></g><g transform="translate(-518,-70) scale(1,1)"><g><path fill="none" stroke="none"></path><text fill="#000000" stroke="none" font-family="Arial" font-size="13px" font-style="normal" font-weight="normal" text-decoration="none" x="895" y="632.5">+getId(): int</text></g></g><g transform="translate(-518,-70) scale(1,1)"><g><path fill="none" stroke="none"></path><text fill="#000000" stroke="none" font-family="Arial" font-size="13px" font-style="normal" font-weight="normal" text-decoration="none" x="895" y="647.5">+getX(): int</text></g></g><g transform="translate(-518,-70) scale(1,1)"><g><path fill="none" stroke="none"></path><text fill="#000000" stroke="none" font-family="Arial" font-size="13px" font-style="normal" font-weight="normal" text-decoration="none" x="895" y="662.5">+getY(): int</text></g></g><g transform="translate(-518,-70) scale(1,1)"><g><path fill="none" stroke="none"></path><text fill="#000000" stroke="none" font-family="Arial" font-size="13px" font-style="normal" font-weight="normal" text-decoration="none" x="895" y="677.5">+getRadius(): int</text></g></g><g transform="translate(-518,-70) scale(1,1)"><g><path fill="none" stroke="none"></path><text fill="#000000" stroke="none" font-family="Arial" font-size="13px" font-style="normal" font-weight="normal" text-decoration="none" x="895" y="692.5">+getWidth(): int</text></g></g><g transform="translate(-518,-70) scale(1,1)"><g><path fill="none" stroke="none"></path><text fill="#000000" stroke="none" font-family="Arial" font-size="13px" font-style="normal" font-weight="normal" text-decoration="none" x="895" y="707.5">+getHeight(): int</text></g></g><g transform="translate(-518,-70) scale(1,1)"><g><path fill="none" stroke="none"></path><text fill="#000000" stroke="none" font-family="Arial" font-size="13px" font-style="normal" font-weight="normal" text-decoration="none" x="895" y="722.5">+getType(): String</text></g></g><g transform="translate(-518,-70) scale(1,1)"><g><path fill="none" stroke="none"></path><text fill="#000000" stroke="none" font-family="Arial" font-size="13px" font-style="normal" font-weight="normal" text-decoration="none" x="895" y="737.5">+getState(): HashMap</text></g></g><g transform="translate(-518,-70) scale(1,1)"><g><path fill="none" stroke="none"></path><text fill="#000000" stroke="none" font-family="Arial" font-size="13px" font-style="normal" font-weight="normal" text-decoration="none" x="895" y="752.5">+getCapacity(): int</text></g></g><g transform="translate(-518,-70) scale(1,1)"><g><path fill="none" stroke="none"></path><text fill="#000000" stroke="none" font-family="Arial" font-size="13px" font-style="normal" font-weight="normal" text-decoration="none" x="895" y="767.5">+getReachableNodes(): List</text></g></g><g transform="translate(-518,-70) scale(1,1)"><g><path fill="none" stroke="none"></path><text fill="#000000" stroke="none" font-family="Arial" font-size="13px" font-style="normal" font-weight="normal" text-decoration="none" x="895" y="782.5">+addReachableNode(n: Node): void</text></g></g><g transform="translate(-518,-70) scale(1,1)"><g><path fill="none" stroke="none"></path><text fill="#000000" stroke="none" font-family="Arial" font-size="13px" font-style="normal" font-weight="normal" text-decoration="none" x="895" y="797.5">+changeReachableNode(old: Node, new: Node): void</text></g></g><g transform="translate(-518,-70) scale(1,1)"><g><path fill="none" stroke="none"></path><text fill="#000000" stroke="none" font-family="Arial" font-size="13px" font-style="normal" font-weight="normal" text-decoration="none" x="895" y="812.5">+accept(v: Visitor): void</text></g></g><g transform="translate(-518,-70) scale(1,1)"><g><path fill="none" stroke="none"></path><text fill="#000000" stroke="none" font-family="Arial" font-size="13px" font-style="normal" font-weight="normal" text-decoration="none" x="895" y="827.5">+calculateCapacity(): int</text></g></g><g transform="translate(-518,-70) scale(1,1)"><g><path fill="none" stroke="none"></path><text fill="#000000" stroke="none" font-family="Arial" font-size="13px" font-style="normal" font-weight="normal" text-decoration="none" x="895" y="842.5">+toString(): String</text></g></g><g transform="translate(-518,-70) scale(1,1)"><path fill="none" stroke="#000000" d="M 1026 567 L 1026 362" stroke-miterlimit="10"></path></g><g transform="translate(-518,-70) scale(1,1)"><path fill="#000000" stroke="none" d="M 1030.2095177560159 372.16267485762415 L 1026 362 L 1021.790482243984 372.16267485762415 L 1026 384"></path></g><g transform="translate(-518,-70) scale(1,1)"><path fill="none" stroke="#000000" d="M 1030.2095177560159 372.16267485762415 L 1026 362 L 1021.790482243984 372.16267485762415 L 1026 384 L 1030.2095177560159 372.16267485762415" stroke-miterlimit="10"></path></g><g transform="translate(-518,-70) scale(1,1)"><g><path fill="none" stroke="none"></path><text fill="#000000" stroke="none" font-family="Arial" font-size="13px" font-style="normal" font-weight="normal" text-decoration="none" x="977" y="470">-nodes</text></g></g><g transform="translate(-518,-70) scale(1,1)"><g><path fill="none" stroke="none"></path><text fill="#000000" stroke="none" font-family="Arial" font-size="13px" font-style="normal" font-weight="normal" text-decoration="none" x="1034" y="564">*</text></g></g><g transform="translate(-518,-70) scale(1,1)"><path fill="none" stroke="#000000" d="M 1090 943 L 1090 877" stroke-miterlimit="10"></path></g><g transform="translate(-518,-70) scale(1,1)"><path fill="#FFFFFF" stroke="none" d="M 1098.419035512032 897.3253497152483 L 1090 877 L 1081.580964487968 897.3253497152483"></path></g><g transform="translate(-518,-70) scale(1,1)"><path fill="none" stroke="#000000" d="M 1098.419035512032 897.3253497152483 L 1090 877 L 1081.580964487968 897.3253497152483 L 1098.419035512032 897.3253497152483" stroke-miterlimit="10"></path></g><g transform="translate(-518,-70) scale(1,1)"><path fill="none" stroke="#000000" d="M 1378 943 L 1378 911 L 1090 911 L 1090 877" stroke-miterlimit="10"></path></g><g transform="translate(-518,-70) scale(1,1)"><path fill="#FFFFFF" stroke="none" d="M 1098.419035512032 897.3253497152483 L 1090 877 L 1081.580964487968 897.3253497152483"></path></g><g transform="translate(-518,-70) scale(1,1)"><path fill="none" stroke="#000000" d="M 1098.419035512032 897.3253497152483 L 1090 877 L 1081.580964487968 897.3253497152483 L 1098.419035512032 897.3253497152483" stroke-miterlimit="10"></path></g><g transform="translate(-518,-70) scale(1,1)"><path fill="none" stroke="#000000" d="M 810 943 L 810 911 L 1090 911 L 1090 877" stroke-miterlimit="10"></path></g><g transform="translate(-518,-70) scale(1,1)"><path fill="#FFFFFF" stroke="none" d="M 1098.419035512032 897.3253497152483 L 1090 877 L 1081.580964487968 897.3253497152483"></path></g><g transform="translate(-518,-70) scale(1,1)"><path fill="none" stroke="#000000" d="M 1098.419035512032 897.3253497152483 L 1090 877 L 1081.580964487968 897.3253497152483 L 1098.419035512032 897.3253497152483" stroke-miterlimit="10"></path></g><g transform="translate(-518,-70) scale(1,1)"><rect fill="#C0C0C0" stroke="none" x="537" y="463" width="246" height="145" opacity="0.2"></rect></g><g transform="translate(-518,-70) scale(1,1)"><rect fill="#ffffff" stroke="none" x="530" y="456" width="246" height="145"></rect></g><g transform="translate(-518,-70) scale(1,1)"><path fill="none" stroke="#000000" d="M 530 456 L 776 456 L 776 601 L 530 601 L 530 456 Z Z" stroke-miterlimit="10"></path></g><g transform="translate(-518,-70) scale(1,1)"><path fill="none" stroke="#000000" d="M 530 494 L 776 494" stroke-miterlimit="10"></path></g><g transform="translate(-518,-70) scale(1,1)"><path fill="none" stroke="#000000" d="M 530 504 L 776 504" stroke-miterlimit="10"></path></g><g transform="translate(-518,-70) scale(1,1)"><g><path fill="none" stroke="none"></path><text fill="#000000" stroke="none" font-family="Arial" font-size="13px" font-style="normal" font-weight="normal" text-decoration="none" x="621.5" y="473.5">«interface»</text></g></g><g transform="translate(-518,-70) scale(1,1)"><g><path fill="none" stroke="none"></path><text fill="#000000" stroke="none" font-family="Arial" font-size="13px" font-style="italic" font-weight="bold" text-decoration="none" x="628" y="488.5">Behavior</text></g></g><g transform="translate(-518,-70) scale(1,1)"><g><path fill="none" stroke="none"></path><text fill="#000000" stroke="none" font-family="Arial" font-size="13px" font-style="normal" font-weight="normal" text-decoration="none" x="535" y="521.5">+accpet(v: Visitor)</text></g></g><g transform="translate(-518,-70) scale(1,1)"><g><path fill="none" stroke="none"></path><text fill="#000000" stroke="none" font-family="Arial" font-size="13px" font-style="normal" font-weight="normal" text-decoration="none" x="535" y="536.5">+addCoreInterestPoint(n: Node)</text></g></g><g transform="translate(-518,-70) scale(1,1)"><g><path fill="none" stroke="none"></path><text fill="#000000" stroke="none" font-family="Arial" font-size="13px" font-style="normal" font-weight="normal" text-decoration="none" x="535" y="551.5">+addOptionalInterestPoint(n: Node)</text></g></g><g transform="translate(-518,-70) scale(1,1)"><g><path fill="none" stroke="none"></path><text fill="#000000" stroke="none" font-family="Arial" font-size="13px" font-style="normal" font-weight="normal" text-decoration="none" x="535" y="566.5">+getCoreInterestPoints(): List&lt;Node&gt;</text></g></g><g transform="translate(-518,-70) scale(1,1)"><g><path fill="none" stroke="none"></path><text fill="#000000" stroke="none" font-family="Arial" font-size="13px" font-style="normal" font-weight="normal" text-decoration="none" x="535" y="581.5">+getOptionalInterestPoints(): List&lt;Node&gt;</text></g></g><g transform="translate(-518,-70) scale(1,1)"><g><path fill="none" stroke="none"></path><text fill="#000000" stroke="none" font-family="Arial" font-size="13px" font-style="normal" font-weight="normal" text-decoration="none" x="535" y="596.5">+getId(): int</text></g></g><g transform="translate(-518,-70) scale(1,1)"><path fill="none" stroke="#000000" d="M 661 664 L 661 647 L 608 647 L 608 601" stroke-miterlimit="10"></path></g><g transform="translate(-518,-70) scale(1,1)"><path fill="#FFFFFF" stroke="none" d="M 616.419035512032 621.3253497152483 L 608 601 L 599.580964487968 621.3253497152483"></path></g><g transform="translate(-518,-70) scale(1,1)"><path fill="none" stroke="#000000" d="M 616.419035512032 621.3253497152483 L 608 601 L 599.580964487968 621.3253497152483 L 616.419035512032 621.3253497152483" stroke-miterlimit="10"></path></g><g transform="translate(-518,-70) scale(1,1)"><path fill="none" stroke="#000000" d="M 567 664 L 567 647 L 608 647 L 608 601" stroke-miterlimit="10"></path></g><g transform="translate(-518,-70) scale(1,1)"><path fill="#FFFFFF" stroke="none" d="M 616.419035512032 621.3253497152483 L 608 601 L 599.580964487968 621.3253497152483"></path></g><g transform="translate(-518,-70) scale(1,1)"><path fill="none" stroke="#000000" d="M 616.419035512032 621.3253497152483 L 608 601 L 599.580964487968 621.3253497152483 L 616.419035512032 621.3253497152483" stroke-miterlimit="10"></path></g><g transform="translate(-518,-70) scale(1,1)"><path fill="none" stroke="#000000" d="M 1144 567 L 1144 400 L 1288 400" stroke-miterlimit="10"></path></g><g transform="translate(-518,-70) scale(1,1)"><path fill="#FFFFFF" stroke="none" d="M 1277.837325142376 404.209517756016 L 1288 400 L 1277.837325142376 395.790482243984 L 1266 400"></path></g><g transform="translate(-518,-70) scale(1,1)"><path fill="none" stroke="#000000" d="M 1277.837325142376 404.209517756016 L 1288 400 L 1277.837325142376 395.790482243984 L 1266 400 L 1277.837325142376 404.209517756016" stroke-miterlimit="10"></path></g><g transform="translate(-518,-70) scale(1,1)"><g><path fill="none" stroke="none"></path><text fill="#000000" stroke="none" font-family="Arial" font-size="13px" font-style="normal" font-weight="normal" text-decoration="none" x="1153" y="563">2</text></g></g><g transform="translate(-518,-70) scale(1,1)"><rect fill="#C0C0C0" stroke="none" x="1249" y="630" width="94" height="117" opacity="0.2"></rect></g><g transform="translate(-518,-70) scale(1,1)"><rect fill="#ffffff" stroke="none" x="1242" y="623" width="94" height="117"></rect></g><g transform="translate(-518,-70) scale(1,1)"><path fill="none" stroke="#000000" d="M 1242 623 L 1336 623 L 1336 740 L 1242 740 L 1242 623 Z Z" stroke-miterlimit="10"></path></g><g transform="translate(-518,-70) scale(1,1)"><path fill="none" stroke="#000000" d="M 1242 648 L 1336 648" stroke-miterlimit="10"></path></g><g transform="translate(-518,-70) scale(1,1)"><path fill="none" stroke="#000000" d="M 1242 731 L 1336 731" stroke-miterlimit="10"></path></g><g transform="translate(-518,-70) scale(1,1)"><g><path fill="none" stroke="none"></path><text fill="#000000" stroke="none" font-family="Arial" font-size="13px" font-style="normal" font-weight="bold" text-decoration="none" x="1250" y="642.5">DirectedEdge</text></g></g><g transform="translate(-518,-70) scale(1,1)"><g><path fill="none" stroke="none"></path><text fill="#000000" stroke="none" font-family="Arial" font-size="13px" font-style="normal" font-weight="normal" text-decoration="none" x="1247" y="665.5">-distance: int</text></g></g><g transform="translate(-518,-70) scale(1,1)"><g><path fill="none" stroke="none"></path><text fill="#000000" stroke="none" font-family="Arial" font-size="13px" font-style="normal" font-weight="normal" text-decoration="none" x="1247" y="680.5">-width: int</text></g></g><g transform="translate(-518,-70) scale(1,1)"><g><path fill="none" stroke="none"></path><text fill="#000000" stroke="none" font-family="Arial" font-size="13px" font-style="normal" font-weight="normal" text-decoration="none" x="1247" y="695.5">-weight: int</text></g></g><g transform="translate(-518,-70) scale(1,1)"><g><path fill="none" stroke="none"></path><text fill="#000000" stroke="none" font-family="Arial" font-size="13px" font-style="normal" font-weight="normal" text-decoration="none" x="1247" y="710.5">-source: Node</text></g></g><g transform="translate(-518,-70) scale(1,1)"><g><path fill="none" stroke="none"></path><text fill="#000000" stroke="none" font-family="Arial" font-size="13px" font-style="normal" font-weight="normal" text-decoration="none" x="1247" y="725.5">-target: Node</text></g></g><g transform="translate(-518,-70) scale(1,1)"><rect fill="#C0C0C0" stroke="none" x="1409" y="630" width="110" height="117" opacity="0.2"></rect></g><g transform="translate(-518,-70) scale(1,1)"><rect fill="#ffffff" stroke="none" x="1402" y="623" width="110" height="117"></rect></g><g transform="translate(-518,-70) scale(1,1)"><path fill="none" stroke="#000000" d="M 1402 623 L 1512 623 L 1512 740 L 1402 740 L 1402 623 Z Z" stroke-miterlimit="10"></path></g><g transform="translate(-518,-70) scale(1,1)"><path fill="none" stroke="#000000" d="M 1402 648 L 1512 648" stroke-miterlimit="10"></path></g><g transform="translate(-518,-70) scale(1,1)"><path fill="none" stroke="#000000" d="M 1402 731 L 1512 731" stroke-miterlimit="10"></path></g><g transform="translate(-518,-70) scale(1,1)"><g><path fill="none" stroke="none"></path><text fill="#000000" stroke="none" font-family="Arial" font-size="13px" font-style="normal" font-weight="bold" text-decoration="none" x="1411" y="642.5">UndirectedEdge</text></g></g><g transform="translate(-518,-70) scale(1,1)"><g><path fill="none" stroke="none"></path><text fill="#000000" stroke="none" font-family="Arial" font-size="13px" font-style="normal" font-weight="normal" text-decoration="none" x="1407" y="665.5">-a: Node</text></g></g><g transform="translate(-518,-70) scale(1,1)"><g><path fill="none" stroke="none"></path><text fill="#000000" stroke="none" font-family="Arial" font-size="13px" font-style="normal" font-weight="normal" text-decoration="none" x="1407" y="680.5">-b: Node</text></g></g><g transform="translate(-518,-70) scale(1,1)"><g><path fill="none" stroke="none"></path><text fill="#000000" stroke="none" font-family="Arial" font-size="13px" font-style="normal" font-weight="normal" text-decoration="none" x="1407" y="695.5">-distance: int</text></g></g><g transform="translate(-518,-70) scale(1,1)"><g><path fill="none" stroke="none"></path><text fill="#000000" stroke="none" font-family="Arial" font-size="13px" font-style="normal" font-weight="normal" text-decoration="none" x="1407" y="710.5">-width: int</text></g></g><g transform="translate(-518,-70) scale(1,1)"><g><path fill="none" stroke="none"></path><text fill="#000000" stroke="none" font-family="Arial" font-size="13px" font-style="normal" font-weight="normal" text-decoration="none" x="1407" y="725.5">-weight: int</text></g></g><g transform="translate(-518,-70) scale(1,1)"><path fill="none" stroke="#000000" d="M 1298 623 L 1298 591 L 1363 591 L 1363 543" stroke-miterlimit="10"></path></g><g transform="translate(-518,-70) scale(1,1)"><path fill="#FFFFFF" stroke="none" d="M 1371.419035512032 563.3253497152483 L 1363 543 L 1354.580964487968 563.3253497152483"></path></g><g transform="translate(-518,-70) scale(1,1)"><path fill="none" stroke="#000000" d="M 1371.419035512032 563.3253497152483 L 1363 543 L 1354.580964487968 563.3253497152483 L 1371.419035512032 563.3253497152483" stroke-miterlimit="10"></path></g><g transform="translate(-518,-70) scale(1,1)"><path fill="none" stroke="#000000" d="M 1457 623 L 1457 591 L 1363 591 L 1363 543" stroke-miterlimit="10"></path></g><g transform="translate(-518,-70) scale(1,1)"><path fill="#FFFFFF" stroke="none" d="M 1371.419035512032 563.3253497152483 L 1363 543 L 1354.580964487968 563.3253497152483"></path></g><g transform="translate(-518,-70) scale(1,1)"><path fill="none" stroke="#000000" d="M 1371.419035512032 563.3253497152483 L 1363 543 L 1354.580964487968 563.3253497152483 L 1371.419035512032 563.3253497152483" stroke-miterlimit="10"></path></g><g transform="translate(-518,-70) scale(1,1)"><path fill="none" stroke="#000000" d="M 608 456 L 608 216 L 752 216" stroke-miterlimit="10"></path></g><g transform="translate(-518,-70) scale(1,1)"><path fill="#000000" stroke="none" d="M 741.8373251423759 220.209517756016 L 752 216 L 741.8373251423758 211.790482243984 L 730 216"></path></g><g transform="translate(-518,-70) scale(1,1)"><path fill="none" stroke="#000000" d="M 741.8373251423759 220.209517756016 L 752 216 L 741.8373251423758 211.790482243984 L 730 216 L 741.8373251423759 220.209517756016" stroke-miterlimit="10"></path></g><g transform="translate(-518,-70) scale(1,1)"><g><path fill="none" stroke="none"></path><text fill="#000000" stroke="none" font-family="Arial" font-size="13px" font-style="normal" font-weight="normal" text-decoration="none" x="627" y="236">-behaviors</text></g></g><g transform="translate(-518,-70) scale(1,1)"><g><path fill="none" stroke="none"></path><text fill="#000000" stroke="none" font-family="Arial" font-size="13px" font-style="normal" font-weight="normal" text-decoration="none" x="618" y="441">*</text></g></g><g transform="translate(-518,-70) scale(1,1)"><path fill="none" stroke="#000000" d="M 664 943 L 664 721" stroke-miterlimit="10"></path></g><g transform="translate(-518,-70) scale(1,1)"><path fill="#FFFFFF" stroke="none" d="M 668.209517756016 731.1626748576241 L 664 721 L 659.790482243984 731.1626748576241 L 664 743"></path></g><g transform="translate(-518,-70) scale(1,1)"><path fill="none" stroke="#000000" d="M 668.209517756016 731.1626748576241 L 664 721 L 659.790482243984 731.1626748576241 L 664 743 L 668.209517756016 731.1626748576241" stroke-miterlimit="10"></path></g><g transform="translate(-518,-70) scale(1,1)"><g><path fill="none" stroke="none"></path><text fill="#000000" stroke="none" font-family="Arial" font-size="13px" font-style="normal" font-weight="normal" text-decoration="none" x="560" y="780">-optionalInterestPoints</text></g></g><g transform="translate(-518,-70) scale(1,1)"><g><path fill="none" stroke="none"></path><text fill="#000000" stroke="none" font-family="Arial" font-size="13px" font-style="normal" font-weight="normal" text-decoration="none" x="674" y="928">*</text></g></g><g transform="translate(-518,-70) scale(1,1)"><path fill="none" stroke="#000000" d="M 744 943 L 744 601" stroke-miterlimit="10"></path></g><g transform="translate(-518,-70) scale(1,1)"><path fill="#FFFFFF" stroke="none" d="M 748.209517756016 611.1626748576241 L 744 601 L 739.790482243984 611.1626748576241 L 744 623"></path></g><g transform="translate(-518,-70) scale(1,1)"><path fill="none" stroke="#000000" d="M 748.209517756016 611.1626748576241 L 744 601 L 739.790482243984 611.1626748576241 L 744 623 L 748.209517756016 611.1626748576241" stroke-miterlimit="10"></path></g><g transform="translate(-518,-70) scale(1,1)"><g><path fill="none" stroke="none"></path><text fill="#000000" stroke="none" font-family="Arial" font-size="13px" font-style="normal" font-weight="normal" text-decoration="none" x="726" y="653">-coreInterestPoints</text></g></g><g transform="translate(-518,-70) scale(1,1)"><g><path fill="none" stroke="none"></path><text fill="#000000" stroke="none" font-family="Arial" font-size="13px" font-style="normal" font-weight="normal" text-decoration="none" x="754" y="928">*</text></g></g></g></svg>