<svg version="1.1" xmlns="http://www.w3.org/2000/svg" xmlns:xlink="http://www.w3.org/1999/xlink" width="703" height="328"><defs></defs><g><g transform="translate(-54,-22) scale(1,1)"><rect fill="#C0C0C0" stroke="none" x="423" y="39" width="88" height="44" opacity="0.2"></rect></g><g transform="translate(-54,-22) scale(1,1)"><rect fill="#ffffff" stroke="none" x="416" y="32" width="88" height="44"></rect></g><g transform="translate(-54,-22) scale(1,1)"><path fill="none" stroke="#000000" d="M 416 32 L 504 32 L 504 76 L 416 76 L 416 32 Z Z" stroke-miterlimit="10"></path></g><g transform="translate(-54,-22) scale(1,1)"><path fill="none" stroke="#000000" d="M 416 57 L 504 57" stroke-miterlimit="10"></path></g><g transform="translate(-54,-22) scale(1,1)"><path fill="none" stroke="#000000" d="M 416 67 L 504 67" stroke-miterlimit="10"></path></g><g transform="translate(-54,-22) scale(1,1)"><g><path fill="none" stroke="none"></path><text fill="#000000" stroke="none" font-family="Arial" font-size="13px" font-style="normal" font-weight="bold" text-decoration="none" x="442.5" y="51.5">Graph</text></g></g><g transform="translate(-54,-22) scale(1,1)"><rect fill="#C0C0C0" stroke="none" x="415" y="151" width="104" height="57" opacity="0.2"></rect></g><g transform="translate(-54,-22) scale(1,1)"><rect fill="#ffffff" stroke="none" x="408" y="144" width="104" height="57"></rect></g><g transform="translate(-54,-22) scale(1,1)"><path fill="none" stroke="#000000" d="M 408 144 L 512 144 L 512 201 L 408 201 L 408 144 Z Z" stroke-miterlimit="10"></path></g><g transform="translate(-54,-22) scale(1,1)"><path fill="none" stroke="#000000" d="M 408 182 L 512 182" stroke-miterlimit="10"></path></g><g transform="translate(-54,-22) scale(1,1)"><path fill="none" stroke="#000000" d="M 408 192 L 512 192" stroke-miterlimit="10"></path></g><g transform="translate(-54,-22) scale(1,1)"><g><path fill="none" stroke="none"></path><text fill="#000000" stroke="none" font-family="Arial" font-size="13px" font-style="normal" font-weight="normal" text-decoration="none" x="428.5" y="161.5">«interface»</text></g></g><g transform="translate(-54,-22) scale(1,1)"><g><path fill="none" stroke="none"></path><text fill="#000000" stroke="none" font-family="Arial" font-size="13px" font-style="normal" font-weight="bold" text-decoration="none" x="445" y="176.5">Node</text></g></g><g transform="translate(-54,-22) scale(1,1)"><rect fill="#C0C0C0" stroke="none" x="639" y="151" width="72" height="57" opacity="0.2"></rect></g><g transform="translate(-54,-22) scale(1,1)"><rect fill="#ffffff" stroke="none" x="632" y="144" width="72" height="57"></rect></g><g transform="translate(-54,-22) scale(1,1)"><path fill="none" stroke="#000000" d="M 632 144 L 704 144 L 704 201 L 632 201 L 632 144 Z Z" stroke-miterlimit="10"></path></g><g transform="translate(-54,-22) scale(1,1)"><path fill="none" stroke="#000000" d="M 632 182 L 704 182" stroke-miterlimit="10"></path></g><g transform="translate(-54,-22) scale(1,1)"><path fill="none" stroke="#000000" d="M 632 192 L 704 192" stroke-miterlimit="10"></path></g><g transform="translate(-54,-22) scale(1,1)"><g><path fill="none" stroke="none"></path><text fill="#000000" stroke="none" font-family="Arial" font-size="13px" font-style="normal" font-weight="normal" text-decoration="none" x="636.5" y="161.5">«interface»</text></g></g><g transform="translate(-54,-22) scale(1,1)"><g><path fill="none" stroke="none"></path><text fill="#000000" stroke="none" font-family="Arial" font-size="13px" font-style="normal" font-weight="bold" text-decoration="none" x="643.5" y="176.5">Behavior</text></g></g><g transform="translate(-54,-22) scale(1,1)"><rect fill="#C0C0C0" stroke="none" x="319" y="303" width="80" height="44" opacity="0.2"></rect></g><g transform="translate(-54,-22) scale(1,1)"><rect fill="#ffffff" stroke="none" x="312" y="296" width="80" height="44"></rect></g><g transform="translate(-54,-22) scale(1,1)"><path fill="none" stroke="#000000" d="M 312 296 L 392 296 L 392 340 L 312 340 L 312 296 Z Z" stroke-miterlimit="10"></path></g><g transform="translate(-54,-22) scale(1,1)"><path fill="none" stroke="#000000" d="M 312 321 L 392 321" stroke-miterlimit="10"></path></g><g transform="translate(-54,-22) scale(1,1)"><path fill="none" stroke="#000000" d="M 312 331 L 392 331" stroke-miterlimit="10"></path></g><g transform="translate(-54,-22) scale(1,1)"><g><path fill="none" stroke="none"></path><text fill="#000000" stroke="none" font-family="Arial" font-size="13px" font-style="normal" font-weight="bold" text-decoration="none" x="325.5" y="315.5">ExitPoint</text></g></g><g transform="translate(-54,-22) scale(1,1)"><rect fill="#C0C0C0" stroke="none" x="407" y="303" width="74" height="44" opacity="0.2"></rect></g><g transform="translate(-54,-22) scale(1,1)"><rect fill="#ffffff" stroke="none" x="400" y="296" width="74" height="44"></rect></g><g transform="translate(-54,-22) scale(1,1)"><path fill="none" stroke="#000000" d="M 400 296 L 474 296 L 474 340 L 400 340 L 400 296 Z Z" stroke-miterlimit="10"></path></g><g transform="translate(-54,-22) scale(1,1)"><path fill="none" stroke="#000000" d="M 400 321 L 474 321" stroke-miterlimit="10"></path></g><g transform="translate(-54,-22) scale(1,1)"><path fill="none" stroke="#000000" d="M 400 331 L 474 331" stroke-miterlimit="10"></path></g><g transform="translate(-54,-22) scale(1,1)"><g><path fill="none" stroke="none"></path><text fill="#000000" stroke="none" font-family="Arial" font-size="13px" font-style="normal" font-weight="bold" text-decoration="none" x="406.5" y="315.5">EntryPoint</text></g></g><g transform="translate(-54,-22) scale(1,1)"><rect fill="#C0C0C0" stroke="none" x="487" y="303" width="92" height="44" opacity="0.2"></rect></g><g transform="translate(-54,-22) scale(1,1)"><rect fill="#ffffff" stroke="none" x="480" y="296" width="92" height="44"></rect></g><g transform="translate(-54,-22) scale(1,1)"><path fill="none" stroke="#000000" d="M 480 296 L 572 296 L 572 340 L 480 340 L 480 296 Z Z" stroke-miterlimit="10"></path></g><g transform="translate(-54,-22) scale(1,1)"><path fill="none" stroke="#000000" d="M 480 321 L 572 321" stroke-miterlimit="10"></path></g><g transform="translate(-54,-22) scale(1,1)"><path fill="none" stroke="#000000" d="M 480 331 L 572 331" stroke-miterlimit="10"></path></g><g transform="translate(-54,-22) scale(1,1)"><g><path fill="none" stroke="none"></path><text fill="#000000" stroke="none" font-family="Arial" font-size="13px" font-style="normal" font-weight="bold" text-decoration="none" x="489" y="315.5">RegularNode</text></g></g><g transform="translate(-54,-22) scale(1,1)"><rect fill="#C0C0C0" stroke="none" x="607" y="303" width="49" height="44" opacity="0.2"></rect></g><g transform="translate(-54,-22) scale(1,1)"><rect fill="#ffffff" stroke="none" x="600" y="296" width="49" height="44"></rect></g><g transform="translate(-54,-22) scale(1,1)"><path fill="none" stroke="#000000" d="M 600 296 L 649 296 L 649 340 L 600 340 L 600 296 Z Z" stroke-miterlimit="10"></path></g><g transform="translate(-54,-22) scale(1,1)"><path fill="none" stroke="#000000" d="M 600 321 L 649 321" stroke-miterlimit="10"></path></g><g transform="translate(-54,-22) scale(1,1)"><path fill="none" stroke="#000000" d="M 600 331 L 649 331" stroke-miterlimit="10"></path></g><g transform="translate(-54,-22) scale(1,1)"><g><path fill="none" stroke="none"></path><text fill="#000000" stroke="none" font-family="Arial" font-size="13px" font-style="normal" font-weight="bold" text-decoration="none" x="611.5" y="315.5">Visit</text></g></g><g transform="translate(-54,-22) scale(1,1)"><rect fill="#C0C0C0" stroke="none" x="687" y="303" width="67" height="44" opacity="0.2"></rect></g><g transform="translate(-54,-22) scale(1,1)"><rect fill="#ffffff" stroke="none" x="680" y="296" width="67" height="44"></rect></g><g transform="translate(-54,-22) scale(1,1)"><path fill="none" stroke="#000000" d="M 680 296 L 747 296 L 747 340 L 680 340 L 680 296 Z Z" stroke-miterlimit="10"></path></g><g transform="translate(-54,-22) scale(1,1)"><path fill="none" stroke="#000000" d="M 680 321 L 747 321" stroke-miterlimit="10"></path></g><g transform="translate(-54,-22) scale(1,1)"><path fill="none" stroke="#000000" d="M 680 331 L 747 331" stroke-miterlimit="10"></path></g><g transform="translate(-54,-22) scale(1,1)"><g><path fill="none" stroke="none"></path><text fill="#000000" stroke="none" font-family="Arial" font-size="13px" font-style="normal" font-weight="bold" text-decoration="none" x="687" y="315.5">Evacuate</text></g></g><g transform="translate(-54,-22) scale(1,1)"><path fill="none" stroke="#000000" d="M 460 144 L 460 76" stroke-miterlimit="10"></path></g><g transform="translate(-54,-22) scale(1,1)"><path fill="#000000" stroke="none" d="M 464.209517756016 86.16267485762415 L 460 76 L 455.790482243984 86.16267485762415 L 460 98"></path></g><g transform="translate(-54,-22) scale(1,1)"><path fill="none" stroke="#000000" d="M 464.209517756016 86.16267485762415 L 460 76 L 455.790482243984 86.16267485762415 L 460 98 L 464.209517756016 86.16267485762415" stroke-miterlimit="10"></path></g><g transform="translate(-54,-22) scale(1,1)"><path fill="none" stroke="#000000" d="M 665 144 L 665 56 L 504 56" stroke-miterlimit="10"></path></g><g transform="translate(-54,-22) scale(1,1)"><path fill="#000000" stroke="none" d="M 514.1626748576241 51.790482243984016 L 504 56 L 514.1626748576241 60.209517756015984 L 526 56"></path></g><g transform="translate(-54,-22) scale(1,1)"><path fill="none" stroke="#000000" d="M 514.1626748576241 51.790482243984016 L 504 56 L 514.1626748576241 60.209517756015984 L 526 56 L 514.1626748576241 51.790482243984016" stroke-miterlimit="10"></path></g><g transform="translate(-54,-22) scale(1,1)"><path fill="none" stroke="#000000" d="M 360 296 L 360 256 L 456 256 L 456 201" stroke-miterlimit="10"></path></g><g transform="translate(-54,-22) scale(1,1)"><path fill="#FFFFFF" stroke="none" d="M 464.419035512032 221.3253497152483 L 456 201 L 447.580964487968 221.3253497152483"></path></g><g transform="translate(-54,-22) scale(1,1)"><path fill="none" stroke="#000000" d="M 464.419035512032 221.3253497152483 L 456 201 L 447.580964487968 221.3253497152483 L 464.419035512032 221.3253497152483" stroke-miterlimit="10"></path></g><g transform="translate(-54,-22) scale(1,1)"><path fill="none" stroke="#000000" d="M 456 296 L 456 201" stroke-miterlimit="10"></path></g><g transform="translate(-54,-22) scale(1,1)"><path fill="#FFFFFF" stroke="none" d="M 464.419035512032 221.3253497152483 L 456 201 L 447.580964487968 221.3253497152483"></path></g><g transform="translate(-54,-22) scale(1,1)"><path fill="none" stroke="#000000" d="M 464.419035512032 221.3253497152483 L 456 201 L 447.580964487968 221.3253497152483 L 464.419035512032 221.3253497152483" stroke-miterlimit="10"></path></g><g transform="translate(-54,-22) scale(1,1)"><path fill="none" stroke="#000000" d="M 528 296 L 528 256 L 456 256 L 456 201" stroke-miterlimit="10"></path></g><g transform="translate(-54,-22) scale(1,1)"><path fill="#FFFFFF" stroke="none" d="M 464.419035512032 221.3253497152483 L 456 201 L 447.580964487968 221.3253497152483"></path></g><g transform="translate(-54,-22) scale(1,1)"><path fill="none" stroke="#000000" d="M 464.419035512032 221.3253497152483 L 456 201 L 447.580964487968 221.3253497152483 L 464.419035512032 221.3253497152483" stroke-miterlimit="10"></path></g><g transform="translate(-54,-22) scale(1,1)"><path fill="none" stroke="#000000" d="M 624 296 L 624 272 L 665 272 L 665 201" stroke-miterlimit="10"></path></g><g transform="translate(-54,-22) scale(1,1)"><path fill="#FFFFFF" stroke="none" d="M 673.419035512032 221.3253497152483 L 665 201 L 656.580964487968 221.3253497152483"></path></g><g transform="translate(-54,-22) scale(1,1)"><path fill="none" stroke="#000000" d="M 673.419035512032 221.3253497152483 L 665 201 L 656.580964487968 221.3253497152483 L 673.419035512032 221.3253497152483" stroke-miterlimit="10"></path></g><g transform="translate(-54,-22) scale(1,1)"><path fill="none" stroke="#000000" d="M 713 296 L 713 272 L 665 272 L 665 201" stroke-miterlimit="10"></path></g><g transform="translate(-54,-22) scale(1,1)"><path fill="#FFFFFF" stroke="none" d="M 673.419035512032 221.3253497152483 L 665 201 L 656.580964487968 221.3253497152483"></path></g><g transform="translate(-54,-22) scale(1,1)"><path fill="none" stroke="#000000" d="M 673.419035512032 221.3253497152483 L 665 201 L 656.580964487968 221.3253497152483 L 673.419035512032 221.3253497152483" stroke-miterlimit="10"></path></g><g transform="translate(-54,-22) scale(1,1)"><rect fill="#C0C0C0" stroke="none" x="135" y="151" width="81" height="57" opacity="0.2"></rect></g><g transform="translate(-54,-22) scale(1,1)"><rect fill="#ffffff" stroke="none" x="128" y="144" width="81" height="57"></rect></g><g transform="translate(-54,-22) scale(1,1)"><path fill="none" stroke="#000000" d="M 128 144 L 209 144 L 209 201 L 128 201 L 128 144 Z Z" stroke-miterlimit="10"></path></g><g transform="translate(-54,-22) scale(1,1)"><path fill="none" stroke="#000000" d="M 128 182 L 209 182" stroke-miterlimit="10"></path></g><g transform="translate(-54,-22) scale(1,1)"><path fill="none" stroke="#000000" d="M 128 192 L 209 192" stroke-miterlimit="10"></path></g><g transform="translate(-54,-22) scale(1,1)"><g><path fill="none" stroke="none"></path><text fill="#000000" stroke="none" font-family="Arial" font-size="13px" font-style="normal" font-weight="normal" text-decoration="none" x="137" y="161.5">«interface»</text></g></g><g transform="translate(-54,-22) scale(1,1)"><g><path fill="none" stroke="none"></path><text fill="#000000" stroke="none" font-family="Arial" font-size="13px" font-style="normal" font-weight="bold" text-decoration="none" x="153.5" y="176.5">Edge</text></g></g><g transform="translate(-54,-22) scale(1,1)"><rect fill="#C0C0C0" stroke="none" x="71" y="303" width="94" height="44" opacity="0.2"></rect></g><g transform="translate(-54,-22) scale(1,1)"><rect fill="#ffffff" stroke="none" x="64" y="296" width="94" height="44"></rect></g><g transform="translate(-54,-22) scale(1,1)"><path fill="none" stroke="#000000" d="M 64 296 L 158 296 L 158 340 L 64 340 L 64 296 Z Z" stroke-miterlimit="10"></path></g><g transform="translate(-54,-22) scale(1,1)"><path fill="none" stroke="#000000" d="M 64 321 L 158 321" stroke-miterlimit="10"></path></g><g transform="translate(-54,-22) scale(1,1)"><path fill="none" stroke="#000000" d="M 64 331 L 158 331" stroke-miterlimit="10"></path></g><g transform="translate(-54,-22) scale(1,1)"><g><path fill="none" stroke="none"></path><text fill="#000000" stroke="none" font-family="Arial" font-size="13px" font-style="normal" font-weight="bold" text-decoration="none" x="72" y="315.5">DirectedEdge</text></g></g><g transform="translate(-54,-22) scale(1,1)"><rect fill="#C0C0C0" stroke="none" x="183" y="303" width="110" height="44" opacity="0.2"></rect></g><g transform="translate(-54,-22) scale(1,1)"><rect fill="#ffffff" stroke="none" x="176" y="296" width="110" height="44"></rect></g><g transform="translate(-54,-22) scale(1,1)"><path fill="none" stroke="#000000" d="M 176 296 L 286 296 L 286 340 L 176 340 L 176 296 Z Z" stroke-miterlimit="10"></path></g><g transform="translate(-54,-22) scale(1,1)"><path fill="none" stroke="#000000" d="M 176 321 L 286 321" stroke-miterlimit="10"></path></g><g transform="translate(-54,-22) scale(1,1)"><path fill="none" stroke="#000000" d="M 176 331 L 286 331" stroke-miterlimit="10"></path></g><g transform="translate(-54,-22) scale(1,1)"><g><path fill="none" stroke="none"></path><text fill="#000000" stroke="none" font-family="Arial" font-size="13px" font-style="normal" font-weight="bold" text-decoration="none" x="185" y="315.5">UndirectedEdge</text></g></g><g transform="translate(-54,-22) scale(1,1)"><path fill="none" stroke="#000000" d="M 112 296 L 112 256 L 168 256 L 168 201" stroke-miterlimit="10"></path></g><g transform="translate(-54,-22) scale(1,1)"><path fill="#FFFFFF" stroke="none" d="M 176.41903551203197 221.3253497152483 L 168 201 L 159.58096448796803 221.3253497152483"></path></g><g transform="translate(-54,-22) scale(1,1)"><path fill="none" stroke="#000000" d="M 176.41903551203197 221.3253497152483 L 168 201 L 159.58096448796803 221.3253497152483 L 176.41903551203197 221.3253497152483" stroke-miterlimit="10"></path></g><g transform="translate(-54,-22) scale(1,1)"><path fill="none" stroke="#000000" d="M 232 296 L 232 256 L 168 256 L 168 201" stroke-miterlimit="10"></path></g><g transform="translate(-54,-22) scale(1,1)"><path fill="#FFFFFF" stroke="none" d="M 176.41903551203197 221.3253497152483 L 168 201 L 159.58096448796803 221.3253497152483"></path></g><g transform="translate(-54,-22) scale(1,1)"><path fill="none" stroke="#000000" d="M 176.41903551203197 221.3253497152483 L 168 201 L 159.58096448796803 221.3253497152483 L 176.41903551203197 221.3253497152483" stroke-miterlimit="10"></path></g><g transform="translate(-54,-22) scale(1,1)"><path fill="none" stroke="#000000" d="M 168 144 L 168 56 L 416 56" stroke-miterlimit="10"></path></g><g transform="translate(-54,-22) scale(1,1)"><path fill="#000000" stroke="none" d="M 405.83732514237585 60.20951775601599 L 416 56 L 405.83732514237585 51.790482243984016 L 394 56"></path></g><g transform="translate(-54,-22) scale(1,1)"><path fill="none" stroke="#000000" d="M 405.83732514237585 60.20951775601599 L 416 56 L 405.83732514237585 51.790482243984016 L 394 56 L 405.83732514237585 60.20951775601599" stroke-miterlimit="10"></path></g><g transform="translate(-54,-22) scale(1,1)"><path fill="none" stroke="#000000" d="M 407 172 L 210 172" stroke-miterlimit="10"></path></g><g transform="translate(-54,-22) scale(1,1)"><path fill="#FFFFFF" stroke="none" d="M 220.16267485762415 167.790482243984 L 210 172 L 220.16267485762415 176.209517756016 L 232 172"></path></g><g transform="translate(-54,-22) scale(1,1)"><path fill="none" stroke="#000000" d="M 220.16267485762415 167.790482243984 L 210 172 L 220.16267485762415 176.209517756016 L 232 172 L 220.16267485762415 167.790482243984" stroke-miterlimit="10"></path></g><g transform="translate(-54,-22) scale(1,1)"><g><path fill="none" stroke="none"></path><text fill="#000000" stroke="none" font-family="Arial" font-size="13px" font-style="normal" font-weight="normal" text-decoration="none" x="382" y="166">2</text></g></g><g transform="translate(-54,-22) scale(1,1)"><path fill="none" stroke="#000000" d="M 552 296 L 552 168 L 632 168" stroke-miterlimit="10"></path></g><g transform="translate(-54,-22) scale(1,1)"><path fill="#FFFFFF" stroke="none" d="M 621.8373251423759 172.209517756016 L 632 168 L 621.8373251423758 163.790482243984 L 610 168"></path></g><g transform="translate(-54,-22) scale(1,1)"><path fill="none" stroke="#000000" d="M 621.8373251423759 172.209517756016 L 632 168 L 621.8373251423758 163.790482243984 L 610 168 L 621.8373251423759 172.209517756016" stroke-miterlimit="10"></path></g><g transform="translate(-54,-22) scale(1,1)"><g><path fill="none" stroke="none"></path><text fill="#000000" stroke="none" font-family="Arial" font-size="13px" font-style="normal" font-weight="normal" text-decoration="none" x="562" y="281">*</text></g></g></g></svg>