<svg version="1.1" xmlns="http://www.w3.org/2000/svg" xmlns:xlink="http://www.w3.org/1999/xlink" width="892" height="519"><defs></defs><g><g transform="translate(-46,-30) scale(1,1)"><rect fill="#C0C0C0" stroke="none" x="351" y="47" width="269" height="72" opacity="0.2"></rect></g><g transform="translate(-46,-30) scale(1,1)"><rect fill="#ffffff" stroke="none" x="344" y="40" width="269" height="72"></rect></g><g transform="translate(-46,-30) scale(1,1)"><path fill="none" stroke="#000000" d="M 344 40 L 613 40 L 613 112 L 344 112 L 344 40 Z Z" stroke-miterlimit="10"></path></g><g transform="translate(-46,-30) scale(1,1)"><path fill="none" stroke="#000000" d="M 344 65 L 613 65" stroke-miterlimit="10"></path></g><g transform="translate(-46,-30) scale(1,1)"><g><path fill="none" stroke="none"></path><text fill="#000000" stroke="none" font-family="Arial" font-size="13px" font-style="normal" font-weight="bold" text-decoration="none" x="460" y="59.5">Visitor</text></g></g><g transform="translate(-46,-30) scale(1,1)"><g><path fill="none" stroke="none"></path><text fill="#000000" stroke="none" font-family="Arial" font-size="13px" font-style="italic" font-weight="normal" text-decoration="none" x="349" y="82.5">VisitConcreteElementA(ConcreteElementA)</text></g></g><g transform="translate(-46,-30) scale(1,1)"><g><path fill="none" stroke="none"></path><text fill="#000000" stroke="none" font-family="Arial" font-size="13px" font-style="italic" font-weight="normal" text-decoration="none" x="349" y="97.5">VisitConcreteElementB(ConcreteElementB)</text></g></g><g transform="translate(-46,-30) scale(1,1)"><rect fill="#C0C0C0" stroke="none" x="151" y="183" width="284" height="72" opacity="0.2"></rect></g><g transform="translate(-46,-30) scale(1,1)"><rect fill="#ffffff" stroke="none" x="144" y="176" width="284" height="72"></rect></g><g transform="translate(-46,-30) scale(1,1)"><path fill="none" stroke="#000000" d="M 144 176 L 428 176 L 428 248 L 144 248 L 144 176 Z Z" stroke-miterlimit="10"></path></g><g transform="translate(-46,-30) scale(1,1)"><path fill="none" stroke="#000000" d="M 144 201 L 428 201" stroke-miterlimit="10"></path></g><g transform="translate(-46,-30) scale(1,1)"><g><path fill="none" stroke="none"></path><text fill="#000000" stroke="none" font-family="Arial" font-size="13px" font-style="normal" font-weight="bold" text-decoration="none" x="238" y="195.5">ConcreteVisitor1</text></g></g><g transform="translate(-46,-30) scale(1,1)"><g><path fill="none" stroke="none"></path><text fill="#000000" stroke="none" font-family="Arial" font-size="13px" font-style="normal" font-weight="normal" text-decoration="none" x="149" y="218.5">VisitConcreteElementA(e: ConcreteElementA)</text></g></g><g transform="translate(-46,-30) scale(1,1)"><g><path fill="none" stroke="none"></path><text fill="#000000" stroke="none" font-family="Arial" font-size="13px" font-style="normal" font-weight="normal" text-decoration="none" x="149" y="233.5">VisitConcreteElementB(e: ConcreteElementB)</text></g></g><g transform="translate(-46,-30) scale(1,1)"><rect fill="#C0C0C0" stroke="none" x="511" y="183" width="284" height="72" opacity="0.2"></rect></g><g transform="translate(-46,-30) scale(1,1)"><rect fill="#ffffff" stroke="none" x="504" y="176" width="284" height="72"></rect></g><g transform="translate(-46,-30) scale(1,1)"><path fill="none" stroke="#000000" d="M 504 176 L 788 176 L 788 248 L 504 248 L 504 176 Z Z" stroke-miterlimit="10"></path></g><g transform="translate(-46,-30) scale(1,1)"><path fill="none" stroke="#000000" d="M 504 201 L 788 201" stroke-miterlimit="10"></path></g><g transform="translate(-46,-30) scale(1,1)"><g><path fill="none" stroke="none"></path><text fill="#000000" stroke="none" font-family="Arial" font-size="13px" font-style="normal" font-weight="bold" text-decoration="none" x="598" y="195.5">CocnreteVisitor2</text></g></g><g transform="translate(-46,-30) scale(1,1)"><g><path fill="none" stroke="none"></path><text fill="#000000" stroke="none" font-family="Arial" font-size="13px" font-style="normal" font-weight="normal" text-decoration="none" x="509" y="218.5">VisitConcreteElementA(e: ConcreteElementA)</text></g></g><g transform="translate(-46,-30) scale(1,1)"><g><path fill="none" stroke="none"></path><text fill="#000000" stroke="none" font-family="Arial" font-size="13px" font-style="normal" font-weight="normal" text-decoration="none" x="509" y="233.5">VisitConcreteElementB(e: ConcreteElementB)</text></g></g><g transform="translate(-46,-30) scale(1,1)"><rect fill="#C0C0C0" stroke="none" x="423" y="335" width="103" height="57" opacity="0.2"></rect></g><g transform="translate(-46,-30) scale(1,1)"><rect fill="#ffffff" stroke="none" x="416" y="328" width="103" height="57"></rect></g><g transform="translate(-46,-30) scale(1,1)"><path fill="none" stroke="#000000" d="M 416 328 L 519 328 L 519 385 L 416 385 L 416 328 Z Z" stroke-miterlimit="10"></path></g><g transform="translate(-46,-30) scale(1,1)"><path fill="none" stroke="#000000" d="M 416 353 L 519 353" stroke-miterlimit="10"></path></g><g transform="translate(-46,-30) scale(1,1)"><g><path fill="none" stroke="none"></path><text fill="#000000" stroke="none" font-family="Arial" font-size="13px" font-style="italic" font-weight="bold" text-decoration="none" x="443.5" y="347.5">Element</text></g></g><g transform="translate(-46,-30) scale(1,1)"><g><path fill="none" stroke="none"></path><text fill="#000000" stroke="none" font-family="Arial" font-size="13px" font-style="italic" font-weight="normal" text-decoration="none" x="421" y="370.5">Accept(Visitor)</text></g></g><g transform="translate(-46,-30) scale(1,1)"><rect fill="#C0C0C0" stroke="none" x="335" y="471" width="127" height="72" opacity="0.2"></rect></g><g transform="translate(-46,-30) scale(1,1)"><rect fill="#ffffff" stroke="none" x="328" y="464" width="127" height="72"></rect></g><g transform="translate(-46,-30) scale(1,1)"><path fill="none" stroke="#000000" d="M 328 464 L 455 464 L 455 536 L 328 536 L 328 464 Z Z" stroke-miterlimit="10"></path></g><g transform="translate(-46,-30) scale(1,1)"><path fill="none" stroke="#000000" d="M 328 489 L 455 489" stroke-miterlimit="10"></path></g><g transform="translate(-46,-30) scale(1,1)"><g><path fill="none" stroke="none"></path><text fill="#000000" stroke="none" font-family="Arial" font-size="13px" font-style="normal" font-weight="bold" text-decoration="none" x="337" y="483.5">ConcreteElementA</text></g></g><g transform="translate(-46,-30) scale(1,1)"><g><path fill="none" stroke="none"></path><text fill="#000000" stroke="none" font-family="Arial" font-size="13px" font-style="normal" font-weight="normal" text-decoration="none" x="333" y="506.5">Accept(v: Visitor)</text></g></g><g transform="translate(-46,-30) scale(1,1)"><g><path fill="none" stroke="none"></path><text fill="#000000" stroke="none" font-family="Arial" font-size="13px" font-style="normal" font-weight="normal" text-decoration="none" x="333" y="521.5">OperationA()</text></g></g><g transform="translate(-46,-30) scale(1,1)"><rect fill="#C0C0C0" stroke="none" x="503" y="471" width="127" height="72" opacity="0.2"></rect></g><g transform="translate(-46,-30) scale(1,1)"><rect fill="#ffffff" stroke="none" x="496" y="464" width="127" height="72"></rect></g><g transform="translate(-46,-30) scale(1,1)"><path fill="none" stroke="#000000" d="M 496 464 L 623 464 L 623 536 L 496 536 L 496 464 Z Z" stroke-miterlimit="10"></path></g><g transform="translate(-46,-30) scale(1,1)"><path fill="none" stroke="#000000" d="M 496 489 L 623 489" stroke-miterlimit="10"></path></g><g transform="translate(-46,-30) scale(1,1)"><g><path fill="none" stroke="none"></path><text fill="#000000" stroke="none" font-family="Arial" font-size="13px" font-style="normal" font-weight="bold" text-decoration="none" x="505" y="483.5">ConcreteElementB</text></g></g><g transform="translate(-46,-30) scale(1,1)"><g><path fill="none" stroke="none"></path><text fill="#000000" stroke="none" font-family="Arial" font-size="13px" font-style="normal" font-weight="normal" text-decoration="none" x="501" y="506.5">Accept(v: Visitor)</text></g></g><g transform="translate(-46,-30) scale(1,1)"><g><path fill="none" stroke="none"></path><text fill="#000000" stroke="none" font-family="Arial" font-size="13px" font-style="normal" font-weight="normal" text-decoration="none" x="501" y="521.5">OperationB()</text></g></g><g transform="translate(-46,-30) scale(1,1)"><rect fill="#C0C0C0" stroke="none" x="63" y="351" width="108" height="24" opacity="0.2"></rect></g><g transform="translate(-46,-30) scale(1,1)"><rect fill="#ffffff" stroke="none" x="56" y="344" width="108" height="24"></rect></g><g transform="translate(-46,-30) scale(1,1)"><path fill="none" stroke="#000000" d="M 56 344 L 164 344 L 164 368 L 56 368 L 56 344 Z Z" stroke-miterlimit="10"></path></g><g transform="translate(-46,-30) scale(1,1)"><g><path fill="none" stroke="none"></path><text fill="#000000" stroke="none" font-family="Arial" font-size="13px" font-style="normal" font-weight="bold" text-decoration="none" x="64.5" y="363.5">ObjectStructure</text></g></g><g transform="translate(-46,-30) scale(1,1)"><rect fill="#C0C0C0" stroke="none" x="87" y="87" width="50" height="24" opacity="0.2"></rect></g><g transform="translate(-46,-30) scale(1,1)"><rect fill="#ffffff" stroke="none" x="80" y="80" width="50" height="24"></rect></g><g transform="translate(-46,-30) scale(1,1)"><path fill="none" stroke="#000000" d="M 80 80 L 130 80 L 130 104 L 80 104 L 80 80 Z Z" stroke-miterlimit="10"></path></g><g transform="translate(-46,-30) scale(1,1)"><g><path fill="none" stroke="none"></path><text fill="#000000" stroke="none" font-family="Arial" font-size="13px" font-style="normal" font-weight="bold" text-decoration="none" x="88.5" y="99.5">Client</text></g></g><g transform="translate(-46,-30) scale(1,1)"><path fill="none" stroke="#000000" d="M 288 176 L 288 152 L 472 152 L 472 112" stroke-miterlimit="10"></path></g><g transform="translate(-46,-30) scale(1,1)"><path fill="#FFFFFF" stroke="none" d="M 480.419035512032 132.3253497152483 L 472 112 L 463.580964487968 132.3253497152483"></path></g><g transform="translate(-46,-30) scale(1,1)"><path fill="none" stroke="#000000" d="M 480.419035512032 132.3253497152483 L 472 112 L 463.580964487968 132.3253497152483 L 480.419035512032 132.3253497152483" stroke-miterlimit="10"></path></g><g transform="translate(-46,-30) scale(1,1)"><path fill="none" stroke="#000000" d="M 648 176 L 648 152 L 472 152 L 472 112" stroke-miterlimit="10"></path></g><g transform="translate(-46,-30) scale(1,1)"><path fill="#FFFFFF" stroke="none" d="M 480.419035512032 132.3253497152483 L 472 112 L 463.580964487968 132.3253497152483"></path></g><g transform="translate(-46,-30) scale(1,1)"><path fill="none" stroke="#000000" d="M 480.419035512032 132.3253497152483 L 472 112 L 463.580964487968 132.3253497152483 L 480.419035512032 132.3253497152483" stroke-miterlimit="10"></path></g><g transform="translate(-46,-30) scale(1,1)"><path fill="none" stroke="#000000" d="M 392 464 L 392 440 L 472 440 L 472 385" stroke-miterlimit="10"></path></g><g transform="translate(-46,-30) scale(1,1)"><path fill="#FFFFFF" stroke="none" d="M 480.419035512032 405.3253497152483 L 472 385 L 463.580964487968 405.3253497152483"></path></g><g transform="translate(-46,-30) scale(1,1)"><path fill="none" stroke="#000000" d="M 480.419035512032 405.3253497152483 L 472 385 L 463.580964487968 405.3253497152483 L 480.419035512032 405.3253497152483" stroke-miterlimit="10"></path></g><g transform="translate(-46,-30) scale(1,1)"><path fill="none" stroke="#000000" d="M 560 464 L 560 440 L 472 440 L 472 385" stroke-miterlimit="10"></path></g><g transform="translate(-46,-30) scale(1,1)"><path fill="#FFFFFF" stroke="none" d="M 480.419035512032 405.3253497152483 L 472 385 L 463.580964487968 405.3253497152483"></path></g><g transform="translate(-46,-30) scale(1,1)"><path fill="none" stroke="#000000" d="M 480.419035512032 405.3253497152483 L 472 385 L 463.580964487968 405.3253497152483 L 480.419035512032 405.3253497152483" stroke-miterlimit="10"></path></g><g transform="translate(-46,-30) scale(1,1)"><path fill="none" stroke="#000000" d="M 108 104 L 108 344" stroke-miterlimit="10"></path></g><g transform="translate(-46,-30) scale(1,1)"><path fill="none" stroke="#000000" d="M 103.79048224398402 333.83732514237585 L 108 344 L 112.20951775601598 333.83732514237585" stroke-miterlimit="10"></path></g><g transform="translate(-46,-30) scale(1,1)"><path fill="none" stroke="#000000" d="M 130 91 L 344 91" stroke-miterlimit="10"></path></g><g transform="translate(-46,-30) scale(1,1)"><path fill="none" stroke="#000000" d="M 333.83732514237585 95.20951775601598 L 344 91 L 333.83732514237585 86.79048224398402" stroke-miterlimit="10"></path></g><g transform="translate(-46,-30) scale(1,1)"><path fill="none" stroke="#000000" d="M 416 352 L 164 352" stroke-miterlimit="10"></path></g><g transform="translate(-46,-30) scale(1,1)"><path fill="#000000" stroke="none" d="M 174.16267485762415 347.790482243984 L 164 352 L 174.16267485762415 356.209517756016 L 186 352"></path></g><g transform="translate(-46,-30) scale(1,1)"><path fill="none" stroke="#000000" d="M 174.16267485762415 347.790482243984 L 164 352 L 174.16267485762415 356.209517756016 L 186 352 L 174.16267485762415 347.790482243984" stroke-miterlimit="10"></path></g><g transform="translate(-46,-30) scale(1,1)"><g><path fill="none" stroke="none"></path><text fill="#000000" stroke="none" font-family="Arial" font-size="13px" font-style="normal" font-weight="normal" text-decoration="none" x="400" y="348">*</text></g></g><g transform="translate(-46,-30) scale(1,1)"><path fill="#ffffff" stroke="none" d="M 544 272 L 917 272 L 927 282 L 927 335 L 544 335 L 544 272"></path></g><g transform="translate(-46,-30) scale(1,1)"><path fill="none" stroke="#000000" d="M 544 272 L 917 272 L 927 282 L 927 335 L 544 335 L 544 272 L 544 272" stroke-miterlimit="10"></path></g><g transform="translate(-46,-30) scale(1,1)"><path fill="none" stroke="#000000" d="M 917 272 L 917 282 L 927 282 L 917 272" stroke-miterlimit="10"></path></g><g transform="translate(-46,-30) scale(1,1)"><g><path fill="none" stroke="none"></path><text fill="#000000" stroke="none" font-family="Arial" font-size="13px" font-style="normal" font-weight="normal" text-decoration="none" x="549" y="290">VisitConcreteElementA(ConcreteElementA e){</text></g></g><g transform="translate(-46,-30) scale(1,1)"><g><path fill="none" stroke="none"></path><text fill="#000000" stroke="none" font-family="Arial" font-size="13px" font-style="normal" font-weight="normal" text-decoration="none" x="549" y="305">      e.operationB();</text></g></g><g transform="translate(-46,-30) scale(1,1)"><g><path fill="none" stroke="none"></path><text fill="#000000" stroke="none" font-family="Arial" font-size="13px" font-style="normal" font-weight="normal" text-decoration="none" x="549" y="320">}</text></g></g><g transform="translate(-46,-30) scale(1,1)"><path fill="none" stroke="#000000" d="M 788 216 L 840 216 L 840 272" stroke-miterlimit="10" stroke-dasharray="3"></path></g><g transform="translate(-46,-30) scale(1,1)"><path fill="#ffffff" stroke="none" d="M 80 472 L 277 472 L 287 482 L 287 538 L 80 538 L 80 472"></path></g><g transform="translate(-46,-30) scale(1,1)"><path fill="none" stroke="#000000" d="M 80 472 L 277 472 L 287 482 L 287 538 L 80 538 L 80 472 L 80 472" stroke-miterlimit="10"></path></g><g transform="translate(-46,-30) scale(1,1)"><path fill="none" stroke="#000000" d="M 277 472 L 277 482 L 287 482 L 277 472" stroke-miterlimit="10"></path></g><g transform="translate(-46,-30) scale(1,1)"><g><path fill="none" stroke="none"></path><text fill="#000000" stroke="none" font-family="Arial" font-size="13px" font-style="normal" font-weight="normal" text-decoration="none" x="85" y="490">accept(ConcreteVisitor1 v){</text></g></g><g transform="translate(-46,-30) scale(1,1)"><g><path fill="none" stroke="none"></path><text fill="#000000" stroke="none" font-family="Arial" font-size="13px" font-style="normal" font-weight="normal" text-decoration="none" x="85" y="505">     v.visitConcreteElementA(this);</text></g></g><g transform="translate(-46,-30) scale(1,1)"><g><path fill="none" stroke="none"></path><text fill="#000000" stroke="none" font-family="Arial" font-size="13px" font-style="normal" font-weight="normal" text-decoration="none" x="85" y="520">}</text></g></g><g transform="translate(-46,-30) scale(1,1)"><path fill="none" stroke="#000000" d="M 288 496 L 328 496" stroke-miterlimit="10" stroke-dasharray="3"></path></g></g></svg>