<svg version="1.1" xmlns="http://www.w3.org/2000/svg" xmlns:xlink="http://www.w3.org/1999/xlink" width="870" height="484"><defs></defs><g><g transform="translate(-46,-30) scale(1,1)"><rect fill="#C0C0C0" stroke="none" x="63" y="47" width="74" height="39" opacity="0.2"></rect></g><g transform="translate(-46,-30) scale(1,1)"><rect fill="#ffffff" stroke="none" x="56" y="40" width="74" height="39"></rect></g><g transform="translate(-46,-30) scale(1,1)"><path fill="none" stroke="#000000" d="M 56 40 L 130 40 L 130 79 L 56 79 L 56 40 Z Z" stroke-miterlimit="10"></path></g><g transform="translate(-46,-30) scale(1,1)"><g><path fill="none" stroke="none"></path><text fill="#000000" stroke="none" font-family="Arial" font-size="13px" font-style="normal" font-weight="bold" text-decoration="none" x="76.5" y="59.5">Client</text></g></g><g transform="translate(-46,-30) scale(1,1)"><path fill="none" stroke="#000000" d="M 94.5 80 L 94.5 504" stroke-miterlimit="10" stroke-dasharray="3"></path></g><g transform="translate(-46,-30) scale(1,1)"><rect fill="#C0C0C0" stroke="none" x="183" y="47" width="151" height="39" opacity="0.2"></rect></g><g transform="translate(-46,-30) scale(1,1)"><rect fill="#ffffff" stroke="none" x="176" y="40" width="151" height="39"></rect></g><g transform="translate(-46,-30) scale(1,1)"><path fill="none" stroke="#000000" d="M 176 40 L 327 40 L 327 79 L 176 79 L 176 40 Z Z" stroke-miterlimit="10"></path></g><g transform="translate(-46,-30) scale(1,1)"><g><path fill="none" stroke="none"></path><text fill="#000000" stroke="none" font-family="Arial" font-size="13px" font-style="normal" font-weight="bold" text-decoration="none" x="191.5" y="59.5">NetLogoGraphVisitor</text></g></g><g transform="translate(-46,-30) scale(1,1)"><path fill="none" stroke="#000000" d="M 252.5 80 L 252.5 504" stroke-miterlimit="10" stroke-dasharray="3"></path></g><g transform="translate(-46,-30) scale(1,1)"><rect fill="#C0C0C0" stroke="none" x="383" y="47" width="74" height="39" opacity="0.2"></rect></g><g transform="translate(-46,-30) scale(1,1)"><rect fill="#ffffff" stroke="none" x="376" y="40" width="74" height="39"></rect></g><g transform="translate(-46,-30) scale(1,1)"><path fill="none" stroke="#000000" d="M 376 40 L 450 40 L 450 79 L 376 79 L 376 40 Z Z" stroke-miterlimit="10"></path></g><g transform="translate(-46,-30) scale(1,1)"><g><path fill="none" stroke="none"></path><text fill="#000000" stroke="none" font-family="Arial" font-size="13px" font-style="normal" font-weight="bold" text-decoration="none" x="395.5" y="59.5">Graph</text></g></g><g transform="translate(-46,-30) scale(1,1)"><path fill="none" stroke="#000000" d="M 414.5 80 L 414.5 504" stroke-miterlimit="10" stroke-dasharray="3"></path></g><g transform="translate(-46,-30) scale(1,1)"><rect fill="#C0C0C0" stroke="none" x="503" y="47" width="119" height="39" opacity="0.2"></rect></g><g transform="translate(-46,-30) scale(1,1)"><rect fill="#ffffff" stroke="none" x="496" y="40" width="119" height="39"></rect></g><g transform="translate(-46,-30) scale(1,1)"><path fill="none" stroke="#000000" d="M 496 40 L 615 40 L 615 79 L 496 79 L 496 40 Z Z" stroke-miterlimit="10"></path></g><g transform="translate(-46,-30) scale(1,1)"><g><path fill="none" stroke="none"></path><text fill="#000000" stroke="none" font-family="Arial" font-size="13px" font-style="normal" font-weight="bold" text-decoration="none" x="511.5" y="59.5">BufferedReader</text></g></g><g transform="translate(-46,-30) scale(1,1)"><path fill="none" stroke="#000000" d="M 556.5 80 L 556.5 496" stroke-miterlimit="10" stroke-dasharray="3"></path></g><g transform="translate(-46,-30) scale(1,1)"><rect fill="#C0C0C0" stroke="none" x="663" y="47" width="88" height="39" opacity="0.2"></rect></g><g transform="translate(-46,-30) scale(1,1)"><rect fill="#ffffff" stroke="none" x="656" y="40" width="88" height="39"></rect></g><g transform="translate(-46,-30) scale(1,1)"><path fill="none" stroke="#000000" d="M 656 40 L 744 40 L 744 79 L 656 79 L 656 40 Z Z" stroke-miterlimit="10"></path></g><g transform="translate(-46,-30) scale(1,1)"><g><path fill="none" stroke="none"></path><text fill="#000000" stroke="none" font-family="Arial" font-size="13px" font-style="normal" font-weight="bold" text-decoration="none" x="669" y="59.5">PrintWriter</text></g></g><g transform="translate(-46,-30) scale(1,1)"><path fill="none" stroke="#000000" d="M 701.5 80 L 701.5 496" stroke-miterlimit="10" stroke-dasharray="3"></path></g><g transform="translate(-46,-30) scale(1,1)"><rect fill="#C0C0C0" stroke="none" x="839" y="47" width="74" height="39" opacity="0.2"></rect></g><g transform="translate(-46,-30) scale(1,1)"><rect fill="#ffffff" stroke="none" x="832" y="40" width="74" height="39"></rect></g><g transform="translate(-46,-30) scale(1,1)"><path fill="none" stroke="#000000" d="M 832 40 L 906 40 L 906 79 L 832 79 L 832 40 Z Z" stroke-miterlimit="10"></path></g><g transform="translate(-46,-30) scale(1,1)"><g><path fill="none" stroke="none"></path><text fill="#000000" stroke="none" font-family="Arial" font-size="13px" font-style="normal" font-weight="bold" text-decoration="none" x="854" y="59.5">Node</text></g></g><g transform="translate(-46,-30) scale(1,1)"><path fill="none" stroke="#000000" d="M 870.5 80 L 870.5 496" stroke-miterlimit="10" stroke-dasharray="3"></path></g><g transform="translate(-46,-30) scale(1,1)"><path fill="none" stroke="#000000" d="M 94 99 L 407 99" stroke-miterlimit="10"></path></g><g transform="translate(-46,-30) scale(1,1)"><path fill="#000000" stroke="none" d="M 396.83732514237585 103.20951775601598 L 407 99 L 396.83732514237585 94.79048224398402"></path></g><g transform="translate(-46,-30) scale(1,1)"><path fill="none" stroke="#000000" d="M 396.83732514237585 103.20951775601598 L 407 99 L 396.83732514237585 94.79048224398402 L 396.83732514237585 103.20951775601598" stroke-miterlimit="10"></path></g><g transform="translate(-46,-30) scale(1,1)"><g><path fill="none" stroke="none"></path><text fill="#000000" stroke="none" font-family="Arial" font-size="13px" font-style="normal" font-weight="normal" text-decoration="none" x="157" y="96">1 : accept(NetLogoGraphVisitor)</text></g></g><g transform="translate(-46,-30) scale(1,1)"><rect fill="#ffffff" stroke="none" x="407" y="99" width="13" height="381"></rect></g><g transform="translate(-46,-30) scale(1,1)"><path fill="none" stroke="#000000" d="M 407 99 L 420 99 L 420 480 L 407 480 L 407 99 Z Z" stroke-miterlimit="10"></path></g><g transform="translate(-46,-30) scale(1,1)"><path fill="none" stroke="#000000" d="M 407 120 L 258 120" stroke-miterlimit="10"></path></g><g transform="translate(-46,-30) scale(1,1)"><path fill="#000000" stroke="none" d="M 268.16267485762415 115.79048224398402 L 258 120 L 268.16267485762415 124.20951775601598"></path></g><g transform="translate(-46,-30) scale(1,1)"><path fill="none" stroke="#000000" d="M 268.16267485762415 115.79048224398402 L 258 120 L 268.16267485762415 124.20951775601598 L 268.16267485762415 115.79048224398402" stroke-miterlimit="10"></path></g><g transform="translate(-46,-30) scale(1,1)"><g><path fill="none" stroke="none"></path><text fill="#000000" stroke="none" font-family="Arial" font-size="13px" font-style="normal" font-weight="normal" text-decoration="none" x="289" y="137">2 : visit(Graph)</text></g></g><g transform="translate(-46,-30) scale(1,1)"><rect fill="#ffffff" stroke="none" x="245" y="120" width="13" height="352"></rect></g><g transform="translate(-46,-30) scale(1,1)"><path fill="none" stroke="#000000" d="M 245 120 L 258 120 L 258 472 L 245 472 L 245 120 Z Z" stroke-miterlimit="10"></path></g><g transform="translate(-46,-30) scale(1,1)"><path fill="none" stroke="#000000" d="M 258 168 L 549 168" stroke-miterlimit="10"></path></g><g transform="translate(-46,-30) scale(1,1)"><path fill="none" stroke="#000000" d="M 538.8373251423759 172.209517756016 L 549 168 L 538.8373251423758 163.790482243984" stroke-miterlimit="10"></path></g><g transform="translate(-46,-30) scale(1,1)"><g><path fill="none" stroke="none"></path><text fill="#000000" stroke="none" font-family="Arial" font-size="13px" font-style="normal" font-weight="normal" text-decoration="none" x="369" y="165">3 : readLine</text></g></g><g transform="translate(-46,-30) scale(1,1)"><rect fill="#ffffff" stroke="none" x="549" y="168" width="13" height="28"></rect></g><g transform="translate(-46,-30) scale(1,1)"><path fill="none" stroke="#000000" d="M 549 168 L 562 168 L 562 196 L 549 196 L 549 168 Z Z" stroke-miterlimit="10"></path></g><g transform="translate(-46,-30) scale(1,1)"><path fill="none" stroke="#000000" d="M 549 184 L 258 184" stroke-miterlimit="10" stroke-dasharray="3"></path></g><g transform="translate(-46,-30) scale(1,1)"><path fill="none" stroke="#000000" d="M 268.16267485762415 179.790482243984 L 258 184 L 268.16267485762415 188.209517756016" stroke-miterlimit="10"></path></g><g transform="translate(-46,-30) scale(1,1)"><g><path fill="none" stroke="none"></path><text fill="#000000" stroke="none" font-family="Arial" font-size="13px" font-style="normal" font-weight="normal" text-decoration="none" x="364" y="201">4 : String line</text></g></g><g transform="translate(-46,-30) scale(1,1)"><path fill="none" stroke="#000000" d="M 258 224 L 694 224" stroke-miterlimit="10"></path></g><g transform="translate(-46,-30) scale(1,1)"><path fill="none" stroke="#000000" d="M 683.8373251423759 228.209517756016 L 694 224 L 683.8373251423758 219.790482243984" stroke-miterlimit="10"></path></g><g transform="translate(-46,-30) scale(1,1)"><g><path fill="none" stroke="none"></path><text fill="#000000" stroke="none" font-family="Arial" font-size="13px" font-style="normal" font-weight="normal" text-decoration="none" x="435" y="221">5 : println(line)</text></g></g><g transform="translate(-46,-30) scale(1,1)"><rect fill="#ffffff" stroke="none" x="694" y="224" width="13" height="28"></rect></g><g transform="translate(-46,-30) scale(1,1)"><path fill="none" stroke="#000000" d="M 694 224 L 707 224 L 707 252 L 694 252 L 694 224 Z Z" stroke-miterlimit="10"></path></g><g transform="translate(-46,-30) scale(1,1)"><path fill="none" stroke="#000000" d="M 258 272 L 414 272" stroke-miterlimit="10"></path></g><g transform="translate(-46,-30) scale(1,1)"><path fill="#000000" stroke="none" d="M 403.83732514237585 276.209517756016 L 414 272 L 403.83732514237585 267.790482243984"></path></g><g transform="translate(-46,-30) scale(1,1)"><path fill="none" stroke="#000000" d="M 403.83732514237585 276.209517756016 L 414 272 L 403.83732514237585 267.790482243984 L 403.83732514237585 276.209517756016" stroke-miterlimit="10"></path></g><g transform="translate(-46,-30) scale(1,1)"><g><path fill="none" stroke="none"></path><text fill="#000000" stroke="none" font-family="Arial" font-size="13px" font-style="normal" font-weight="normal" text-decoration="none" x="299" y="269">6 : getNodes</text></g></g><g transform="translate(-46,-30) scale(1,1)"><rect fill="#ffffff" stroke="none" x="414" y="272" width="13" height="28"></rect></g><g transform="translate(-46,-30) scale(1,1)"><path fill="none" stroke="#000000" d="M 414 272 L 427 272 L 427 300 L 414 300 L 414 272 Z Z" stroke-miterlimit="10"></path></g><g transform="translate(-46,-30) scale(1,1)"><path fill="none" stroke="#000000" d="M 414 297 L 258 297" stroke-miterlimit="10" stroke-dasharray="3"></path></g><g transform="translate(-46,-30) scale(1,1)"><path fill="none" stroke="#000000" d="M 268.16267485762415 292.790482243984 L 258 297 L 268.16267485762415 301.209517756016" stroke-miterlimit="10"></path></g><g transform="translate(-46,-30) scale(1,1)"><g><path fill="none" stroke="none"></path><text fill="#000000" stroke="none" font-family="Arial" font-size="13px" font-style="normal" font-weight="normal" text-decoration="none" x="308" y="314">7 : nodes</text></g></g><g transform="translate(-46,-30) scale(1,1)"><path fill="none" stroke="#000000" d="M 258 338 L 863 338" stroke-miterlimit="10"></path></g><g transform="translate(-46,-30) scale(1,1)"><path fill="#000000" stroke="none" d="M 852.8373251423759 342.209517756016 L 863 338 L 852.8373251423758 333.790482243984"></path></g><g transform="translate(-46,-30) scale(1,1)"><path fill="none" stroke="#000000" d="M 852.8373251423759 342.209517756016 L 863 338 L 852.8373251423758 333.790482243984 L 852.8373251423759 342.209517756016" stroke-miterlimit="10"></path></g><g transform="translate(-46,-30) scale(1,1)"><g><path fill="none" stroke="none"></path><text fill="#000000" stroke="none" font-family="Arial" font-size="13px" font-style="normal" font-weight="normal" text-decoration="none" x="517" y="335">8 : accept(this)</text></g></g><g transform="translate(-46,-30) scale(1,1)"><rect fill="#ffffff" stroke="none" x="863" y="338" width="13" height="126"></rect></g><g transform="translate(-46,-30) scale(1,1)"><path fill="none" stroke="#000000" d="M 863 338 L 876 338 L 876 464 L 863 464 L 863 338 Z Z" stroke-miterlimit="10"></path></g><g transform="translate(-46,-30) scale(1,1)"><path fill="none" stroke="#000000" d="M 863 360 L 265 360" stroke-miterlimit="10"></path></g><g transform="translate(-46,-30) scale(1,1)"><path fill="#000000" stroke="none" d="M 275.16267485762415 355.790482243984 L 265 360 L 275.16267485762415 364.209517756016"></path></g><g transform="translate(-46,-30) scale(1,1)"><path fill="none" stroke="#000000" d="M 275.16267485762415 355.790482243984 L 265 360 L 275.16267485762415 364.209517756016 L 275.16267485762415 355.790482243984" stroke-miterlimit="10"></path></g><g transform="translate(-46,-30) scale(1,1)"><g><path fill="none" stroke="none"></path><text fill="#000000" stroke="none" font-family="Arial" font-size="13px" font-style="normal" font-weight="normal" text-decoration="none" x="528" y="377">9 : visit(this)</text></g></g><g transform="translate(-46,-30) scale(1,1)"><rect fill="#ffffff" stroke="none" x="252" y="360" width="13" height="64"></rect></g><g transform="translate(-46,-30) scale(1,1)"><path fill="none" stroke="#000000" d="M 252 360 L 265 360 L 265 424 L 252 424 L 252 360 Z Z" stroke-miterlimit="10"></path></g><g transform="translate(-46,-30) scale(1,1)"><path fill="none" stroke="#000000" d="M 265 391 L 694 391" stroke-miterlimit="10"></path></g><g transform="translate(-46,-30) scale(1,1)"><path fill="#000000" stroke="none" d="M 683.8373251423759 395.209517756016 L 694 391 L 683.8373251423758 386.790482243984"></path></g><g transform="translate(-46,-30) scale(1,1)"><path fill="none" stroke="#000000" d="M 683.8373251423759 395.209517756016 L 694 391 L 683.8373251423758 386.790482243984 L 683.8373251423759 395.209517756016" stroke-miterlimit="10"></path></g><g transform="translate(-46,-30) scale(1,1)"><g><path fill="none" stroke="none"></path><text fill="#000000" stroke="none" font-family="Arial" font-size="13px" font-style="normal" font-weight="normal" text-decoration="none" x="449" y="388">10 : println</text></g></g><g transform="translate(-46,-30) scale(1,1)"><rect fill="#ffffff" stroke="none" x="694" y="391" width="13" height="28"></rect></g><g transform="translate(-46,-30) scale(1,1)"><path fill="none" stroke="#000000" d="M 694 391 L 707 391 L 707 419 L 694 419 L 694 391 Z Z" stroke-miterlimit="10"></path></g><g transform="translate(-46,-30) scale(1,1)"><path fill="none" stroke="#000000" d="M 258 432 L 694 432" stroke-miterlimit="10"></path></g><g transform="translate(-46,-30) scale(1,1)"><path fill="#000000" stroke="none" d="M 683.8373251423759 436.209517756016 L 694 432 L 683.8373251423758 427.790482243984"></path></g><g transform="translate(-46,-30) scale(1,1)"><path fill="none" stroke="#000000" d="M 683.8373251423759 436.209517756016 L 694 432 L 683.8373251423758 427.790482243984 L 683.8373251423759 436.209517756016" stroke-miterlimit="10"></path></g><g transform="translate(-46,-30) scale(1,1)"><g><path fill="none" stroke="none"></path><text fill="#000000" stroke="none" font-family="Arial" font-size="13px" font-style="normal" font-weight="normal" text-decoration="none" x="446" y="429">11 : println</text></g></g><g transform="translate(-46,-30) scale(1,1)"><rect fill="#ffffff" stroke="none" x="694" y="432" width="13" height="28"></rect></g><g transform="translate(-46,-30) scale(1,1)"><path fill="none" stroke="#000000" d="M 694 432 L 707 432 L 707 460 L 694 460 L 694 432 Z Z" stroke-miterlimit="10"></path></g></g></svg>