<?xml version="1.0" encoding="UTF-8" standalone="no"?>
<svg
   xmlns:dc="http://purl.org/dc/elements/1.1/"
   xmlns:cc="http://creativecommons.org/ns#"
   xmlns:rdf="http://www.w3.org/1999/02/22-rdf-syntax-ns#"
   xmlns:svg="http://www.w3.org/2000/svg"
   xmlns="http://www.w3.org/2000/svg"
   xmlns:sodipodi="http://sodipodi.sourceforge.net/DTD/sodipodi-0.dtd"
   xmlns:inkscape="http://www.inkscape.org/namespaces/inkscape"
   version="1.1"
   width="842"
   height="794"
   id="svg2"
   inkscape:version="0.48.4 r9939"
   sodipodi:docname="visitor-sequence.svg">
  <metadata
     id="metadata622">
    <rdf:RDF>
      <cc:Work
         rdf:about="">
        <dc:format>image/svg+xml</dc:format>
        <dc:type
           rdf:resource="http://purl.org/dc/dcmitype/StillImage" />
      </cc:Work>
    </rdf:RDF>
  </metadata>
  <sodipodi:namedview
     pagecolor="#ffffff"
     bordercolor="#666666"
     borderopacity="1"
     objecttolerance="10"
     gridtolerance="10"
     guidetolerance="10"
     inkscape:pageopacity="0"
     inkscape:pageshadow="2"
     inkscape:window-width="1309"
     inkscape:window-height="744"
     id="namedview620"
     showgrid="false"
     inkscape:zoom="0.84069119"
     inkscape:cx="368.8666"
     inkscape:cy="399.36433"
     inkscape:window-x="57"
     inkscape:window-y="24"
     inkscape:window-maximized="1"
     inkscape:current-layer="g6" />
  <defs
     id="defs4" />
  <g
     id="g6">
    <g
       transform="translate(-54,-30) scale(1,1)"
       id="g8">
      <rect
         fill="#C0C0C0"
         stroke="none"
         x="359"
         y="47"
         width="159"
         height="39"
         opacity="0.2"
         id="rect10" />
    </g>
    <g
       transform="translate(-54,-30) scale(1,1)"
       id="g12">
      <rect
         fill="#ffffff"
         stroke="none"
         x="352"
         y="40"
         width="159"
         height="39"
         id="rect14" />
    </g>
    <g
       transform="translate(-54,-30) scale(1,1)"
       id="g16">
      <path
         fill="none"
         stroke="#000000"
         d="M 352 40 L 511 40 L 511 79 L 352 79 L 352 40 Z Z"
         stroke-miterlimit="10"
         id="path18" />
    </g>
    <g
       transform="translate(-54,-30) scale(1,1)"
       id="g20">
      <g
         id="g22">
        <path
           fill="none"
           stroke="none"
           id="path24" />
        <text
           fill="#000000"
           stroke="none"
           font-family="Arial"
           font-size="13px"
           font-style="normal"
           font-weight="bold"
           text-decoration="none"
           x="368"
           y="59.5"
           id="text26">aNetLogoGraphVisitor</text>
      </g>
    </g>
    <g
       transform="translate(-54,-30) scale(1,1)"
       id="g28">
      <path
         fill="none"
         stroke="#000000"
         d="M 432.5 80 L 432.5 806"
         stroke-miterlimit="10"
         stroke-dasharray="3"
         id="path30" />
    </g>
    <g
       transform="translate(-54,-30) scale(1,1)"
       id="g32">
      <path
         fill="none"
         stroke="#000000"
         d="M 368 600 L 760 600 L 760 744 L 368 744 L 368 600"
         stroke-miterlimit="10"
         id="path34" />
    </g>
    <g
       transform="translate(-54,-30) scale(1,1)"
       id="g60">
      <rect
         fill="#C0C0C0"
         stroke="none"
         x="783"
         y="47"
         width="110"
         height="39"
         opacity="0.2"
         id="rect62" />
    </g>
    <g
       transform="translate(-54,-30) scale(1,1)"
       id="g64">
      <rect
         fill="#ffffff"
         stroke="none"
         x="776"
         y="40"
         width="110"
         height="39"
         id="rect66" />
    </g>
    <g
       transform="translate(-54,-30) scale(1,1)"
       id="g68">
      <path
         fill="none"
         stroke="#000000"
         d="M 776 40 L 886 40 L 886 79 L 776 79 L 776 40 Z Z"
         stroke-miterlimit="10"
         id="path70" />
    </g>
    <g
       transform="translate(-54,-30) scale(1,1)"
       id="g72">
      <g
         id="g74">
        <path
           fill="none"
           stroke="none"
           id="path76" />
        <text
           fill="#000000"
           stroke="none"
           font-family="Arial"
           font-size="13px"
           font-style="normal"
           font-weight="bold"
           text-decoration="none"
           x="790.5"
           y="59.5"
           id="text78">aRegularNode</text>
      </g>
    </g>
    <g
       transform="translate(-54,-30) scale(1,1)"
       id="g80">
      <path
         fill="none"
         stroke="#000000"
         d="M 832.5 80 L 832.5 784"
         stroke-miterlimit="10"
         stroke-dasharray="3"
         id="path82" />
    </g>
    <g
       transform="translate(-54,-30) scale(1,1)"
       id="g84">
      <rect
         fill="#C0C0C0"
         stroke="none"
         x="679"
         y="47"
         width="96"
         height="39"
         opacity="0.2"
         id="rect86" />
    </g>
    <g
       transform="translate(-54,-30) scale(1,1)"
       id="g88">
      <rect
         fill="#ffffff"
         stroke="none"
         x="672"
         y="40"
         width="96"
         height="39"
         id="rect90" />
    </g>
    <g
       transform="translate(-54,-30) scale(1,1)"
       id="g92">
      <path
         fill="none"
         stroke="#000000"
         d="M 672 40 L 768 40 L 768 79 L 672 79 L 672 40 Z Z"
         stroke-miterlimit="10"
         id="path94" />
    </g>
    <g
       transform="translate(-54,-30) scale(1,1)"
       id="g96">
      <g
         id="g98">
        <path
           fill="none"
           stroke="none"
           id="path100" />
        <text
           fill="#000000"
           stroke="none"
           font-family="Arial"
           font-size="13px"
           font-style="normal"
           font-weight="bold"
           text-decoration="none"
           x="685.5"
           y="59.5"
           id="text102">aPrintWriter</text>
      </g>
    </g>
    <g
       transform="translate(-54,-30) scale(1,1)"
       id="g104">
      <path
         fill="none"
         stroke="#000000"
         d="M 721.5 80 L 721.5 786"
         stroke-miterlimit="10"
         stroke-dasharray="3"
         id="path106" />
    </g>
    <g
       transform="translate(-54,-30) scale(1,1)"
       id="g108">
      <rect
         fill="#C0C0C0"
         stroke="none"
         x="535"
         y="47"
         width="127"
         height="39"
         opacity="0.2"
         id="rect110" />
    </g>
    <g
       transform="translate(-54,-30) scale(1,1)"
       id="g112">
      <rect
         fill="#ffffff"
         stroke="none"
         x="528"
         y="40"
         width="127"
         height="39"
         id="rect114" />
    </g>
    <g
       transform="translate(-54,-30) scale(1,1)"
       id="g116">
      <path
         fill="none"
         stroke="#000000"
         d="M 528 40 L 655 40 L 655 79 L 528 79 L 528 40 Z Z"
         stroke-miterlimit="10"
         id="path118" />
    </g>
    <g
       transform="translate(-54,-30) scale(1,1)"
       id="g120">
      <g
         id="g122">
        <path
           fill="none"
           stroke="none"
           id="path124" />
        <text
           fill="#000000"
           stroke="none"
           font-family="Arial"
           font-size="13px"
           font-style="normal"
           font-weight="bold"
           text-decoration="none"
           x="544"
           y="59.5"
           id="text126">aBufferedReader</text>
      </g>
    </g>
    <g
       transform="translate(-54,-30) scale(1,1)"
       id="g128">
      <path
         fill="none"
         stroke="#000000"
         d="M 592.5 80 L 592.5 738"
         stroke-miterlimit="10"
         stroke-dasharray="3"
         id="path130" />
    </g>
    <g
       transform="translate(-54,-30) scale(1,1)"
       id="g132">
      <rect
         fill="#C0C0C0"
         stroke="none"
         x="271"
         y="47"
         width="74"
         height="39"
         opacity="0.2"
         id="rect134" />
    </g>
    <g
       transform="translate(-54,-30) scale(1,1)"
       id="g136">
      <rect
         fill="#ffffff"
         stroke="none"
         x="264"
         y="40"
         width="74"
         height="39"
         id="rect138" />
    </g>
    <g
       transform="translate(-54,-30) scale(1,1)"
       id="g140">
      <path
         fill="none"
         stroke="#000000"
         d="M 264 40 L 338 40 L 338 79 L 264 79 L 264 40 Z Z"
         stroke-miterlimit="10"
         id="path142" />
    </g>
    <g
       transform="translate(-54,-30) scale(1,1)"
       id="g144">
      <g
         id="g146">
        <path
           fill="none"
           stroke="none"
           id="path148" />
        <text
           fill="#000000"
           stroke="none"
           font-family="Arial"
           font-size="13px"
           font-style="normal"
           font-weight="bold"
           text-decoration="none"
           x="280"
           y="59.5"
           id="text150">aGraph</text>
      </g>
    </g>
    <g
       transform="translate(-54,-30) scale(1,1)"
       id="g152">
      <path
         fill="none"
         stroke="#000000"
         d="M 302.5 80 L 302.5 814"
         stroke-miterlimit="10"
         stroke-dasharray="3"
         id="path154" />
    </g>
    <g
       transform="translate(-54,-30) scale(1,1)"
       id="g156">
      <rect
         fill="#C0C0C0"
         stroke="none"
         x="71"
         y="47"
         width="74"
         height="39"
         opacity="0.2"
         id="rect158" />
    </g>
    <g
       transform="translate(-54,-30) scale(1,1)"
       id="g160">
      <rect
         fill="#ffffff"
         stroke="none"
         x="64"
         y="40"
         width="74"
         height="39"
         id="rect162" />
    </g>
    <g
       transform="translate(-54,-30) scale(1,1)"
       id="g164">
      <path
         fill="none"
         stroke="#000000"
         d="M 64 40 L 138 40 L 138 79 L 64 79 L 64 40 Z Z"
         stroke-miterlimit="10"
         id="path166" />
    </g>
    <g
       transform="translate(-54,-30) scale(1,1)"
       id="g168">
      <g
         id="g170">
        <path
           fill="none"
           stroke="none"
           id="path172" />
        <text
           fill="#000000"
           stroke="none"
           font-family="Arial"
           font-size="13px"
           font-style="normal"
           font-weight="bold"
           text-decoration="none"
           x="81"
           y="59.5"
           id="text174">aClient</text>
      </g>
    </g>
    <g
       transform="translate(-54,-30) scale(1,1)"
       id="g176">
      <path
         fill="none"
         stroke="#000000"
         d="M 102.5 80 L 102.5 814"
         stroke-miterlimit="10"
         stroke-dasharray="3"
         id="path178" />
    </g>
    <g
       transform="translate(-54,-30) scale(1,1)"
       id="g180">
      <path
         fill="none"
         stroke="#000000"
         d="M 368 120 L 765.5 120 L 765.5 255 L 368 255 L 368 120"
         stroke-miterlimit="10"
         id="path182" />
    </g>
    <g
       transform="translate(-54,-30) scale(1,1)"
       id="g208">
      <path
         fill="none"
         stroke="#000000"
         d="M 308 112 L 425 112"
         stroke-miterlimit="10"
         id="path210" />
    </g>
    <g
       transform="translate(-54,-30) scale(1,1)"
       id="g212">
      <path
         fill="#000000"
         stroke="none"
         d="M 414.83732514237585 116.20951775601598 L 425 112 L 414.83732514237585 107.79048224398402"
         id="path214" />
    </g>
    <g
       transform="translate(-54,-30) scale(1,1)"
       id="g216">
      <path
         fill="none"
         stroke="#000000"
         d="M 414.83732514237585 116.20951775601598 L 425 112 L 414.83732514237585 107.79048224398402 L 414.83732514237585 116.20951775601598"
         stroke-miterlimit="10"
         id="path218" />
    </g>
    <g
       transform="translate(-54,-30) scale(1,1)"
       id="g220">
      <g
         id="g222">
        <path
           fill="none"
           stroke="none"
           id="path224" />
        <text
           fill="#000000"
           stroke="none"
           font-family="Arial"
           font-size="13px"
           font-style="normal"
           font-weight="normal"
           text-decoration="none"
           x="321"
           y="109"
           id="text226">2 : visit(aGraph)</text>
      </g>
    </g>
    <g
       transform="translate(-54,-30) scale(1,1)"
       id="g228">
      <rect
         fill="#ffffff"
         stroke="none"
         x="425"
         y="112"
         width="13"
         height="680"
         id="rect230" />
    </g>
    <g
       transform="translate(-54,-30) scale(1,1)"
       id="g232">
      <path
         fill="none"
         stroke="#000000"
         d="M 425 112 L 438 112 L 438 792 L 425 792 L 425 112 Z Z"
         stroke-miterlimit="10"
         id="path234" />
    </g>
    <g
       transform="translate(-54,-30) scale(1,1)"
       id="g236">
      <path
         fill="none"
         stroke="#000000"
         d="M 102 104 L 295 104"
         stroke-miterlimit="10"
         id="path238" />
    </g>
    <g
       transform="translate(-54,-30) scale(1,1)"
       id="g240">
      <path
         fill="#000000"
         stroke="none"
         d="M 284.83732514237585 108.20951775601598 L 295 104 L 284.83732514237585 99.79048224398402"
         id="path242" />
    </g>
    <g
       transform="translate(-54,-30) scale(1,1)"
       id="g244">
      <path
         fill="none"
         stroke="#000000"
         d="M 284.83732514237585 108.20951775601598 L 295 104 L 284.83732514237585 99.79048224398402 L 284.83732514237585 108.20951775601598"
         stroke-miterlimit="10"
         id="path246" />
    </g>
    <g
       transform="translate(-54,-30) scale(1,1)"
       id="g248">
      <g
         id="g250">
        <path
           fill="none"
           stroke="none"
           id="path252" />
        <text
           fill="#000000"
           stroke="none"
           font-family="Arial"
           font-size="13px"
           font-style="normal"
           font-weight="normal"
           text-decoration="none"
           x="104"
           y="100"
           id="text254">1 : accept(aNetLogoGraphVisitor)</text>
      </g>
    </g>
    <g
       transform="translate(-54,-30) scale(1,1)"
       id="g256">
      <rect
         fill="#ffffff"
         stroke="none"
         x="295"
         y="104"
         width="13"
         height="696"
         id="rect258" />
    </g>
    <g
       transform="translate(-54,-30) scale(1,1)"
       id="g260">
      <path
         fill="none"
         stroke="#000000"
         d="M 295 104 L 308 104 L 308 800 L 295 800 L 295 104 Z Z"
         stroke-miterlimit="10"
         id="path262" />
    </g>
    <g
       transform="translate(-54,-30) scale(1,1)"
       id="g264">
      <path
         fill="none"
         stroke="#000000"
         d="M 438 160 L 585 160"
         stroke-miterlimit="10"
         id="path266" />
    </g>
    <g
       transform="translate(-54,-30) scale(1,1)"
       id="g268">
      <path
         fill="#000000"
         stroke="none"
         d="M 574.8373251423759 164.209517756016 L 585 160 L 574.8373251423758 155.790482243984"
         id="path270" />
    </g>
    <g
       transform="translate(-54,-30) scale(1,1)"
       id="g272">
      <path
         fill="none"
         stroke="#000000"
         d="M 574.8373251423759 164.209517756016 L 585 160 L 574.8373251423758 155.790482243984 L 574.8373251423759 164.209517756016"
         stroke-miterlimit="10"
         id="path274" />
    </g>
    <g
       transform="translate(-54,-30) scale(1,1)"
       id="g276">
      <g
         id="g278">
        <path
           fill="none"
           stroke="none"
           id="path280" />
        <text
           fill="#000000"
           stroke="none"
           font-family="Arial"
           font-size="13px"
           font-style="normal"
           font-weight="normal"
           text-decoration="none"
           x="477"
           y="157"
           id="text282">3 : readLine</text>
      </g>
    </g>
    <g
       transform="translate(-54,-30) scale(1,1)"
       id="g284">
      <rect
         fill="#ffffff"
         stroke="none"
         x="585"
         y="160"
         width="13"
         height="28"
         id="rect286" />
    </g>
    <g
       transform="translate(-54,-30) scale(1,1)"
       id="g288">
      <path
         fill="none"
         stroke="#000000"
         d="M 585 160 L 598 160 L 598 188 L 585 188 L 585 160 Z Z"
         stroke-miterlimit="10"
         id="path290" />
    </g>
    <g
       transform="translate(-54,-30) scale(1,1)"
       id="g292">
      <path
         fill="none"
         stroke="#000000"
         d="M 585 184 L 438 184"
         stroke-miterlimit="10"
         stroke-dasharray="3"
         id="path294" />
    </g>
    <g
       transform="translate(-54,-30) scale(1,1)"
       id="g296">
      <path
         fill="none"
         stroke="#000000"
         d="M 448.16267485762415 179.790482243984 L 438 184 L 448.16267485762415 188.209517756016"
         stroke-miterlimit="10"
         id="path298" />
    </g>
    <g
       transform="translate(-54,-30) scale(1,1)"
       id="g300">
      <g
         id="g302">
        <path
           fill="none"
           stroke="none"
           id="path304" />
        <text
           fill="#000000"
           stroke="none"
           font-family="Arial"
           font-size="13px"
           font-style="normal"
           font-weight="normal"
           text-decoration="none"
           x="480"
           y="180"
           id="text306">4 : aString</text>
      </g>
    </g>
    <g
       transform="translate(-54,-30) scale(1,1)"
       id="g308">
      <path
         fill="none"
         stroke="#000000"
         d="M 438 224 L 714 224"
         stroke-miterlimit="10"
         id="path310" />
    </g>
    <g
       transform="translate(-54,-30) scale(1,1)"
       id="g312">
      <path
         fill="#000000"
         stroke="none"
         d="M 703.8373251423759 228.209517756016 L 714 224 L 703.8373251423758 219.790482243984"
         id="path314" />
    </g>
    <g
       transform="translate(-54,-30) scale(1,1)"
       id="g316">
      <path
         fill="none"
         stroke="#000000"
         d="M 703.8373251423759 228.209517756016 L 714 224 L 703.8373251423758 219.790482243984 L 703.8373251423759 228.209517756016"
         stroke-miterlimit="10"
         id="path318" />
    </g>
    <g
       transform="translate(-54,-30) scale(1,1)"
       id="g320">
      <g
         id="g322">
        <path
           fill="none"
           stroke="none"
           id="path324" />
        <text
           fill="#000000"
           stroke="none"
           font-family="Arial"
           font-size="13px"
           font-style="normal"
           font-weight="normal"
           text-decoration="none"
           x="525"
           y="221"
           id="text326">5 : println(aString)</text>
      </g>
    </g>
    <g
       transform="translate(-54,-30) scale(1,1)"
       id="g328">
      <rect
         fill="#ffffff"
         stroke="none"
         x="714"
         y="224"
         width="13"
         height="28"
         id="rect330" />
    </g>
    <g
       transform="translate(-54,-30) scale(1,1)"
       id="g332">
      <path
         fill="none"
         stroke="#000000"
         d="M 714 224 L 727 224 L 727 252 L 714 252 L 714 224 Z Z"
         stroke-miterlimit="10"
         id="path334" />
    </g>
    <g
       transform="translate(-54,-30) scale(1,1)"
       id="g336">
      <path
         fill="none"
         stroke="#000000"
         d="M 438 264 L 468 264 L 468 284 L 445 284"
         stroke-miterlimit="10"
         id="path338" />
    </g>
    <g
       transform="translate(-54,-30) scale(1,1)"
       id="g340">
      <path
         fill="#000000"
         stroke="none"
         d="M 455.16267485762415 279.790482243984 L 445 284 L 455.16267485762415 288.209517756016"
         id="path342" />
    </g>
    <g
       transform="translate(-54,-30) scale(1,1)"
       id="g344">
      <path
         fill="none"
         stroke="#000000"
         d="M 455.16267485762415 279.790482243984 L 445 284 L 455.16267485762415 288.209517756016 L 455.16267485762415 279.790482243984"
         stroke-miterlimit="10"
         id="path346" />
    </g>
    <g
       transform="translate(-54,-30) scale(1,1)"
       id="g348">
      <g
         id="g350">
        <path
           fill="none"
           stroke="none"
           id="path352" />
        <text
           fill="#000000"
           stroke="none"
           font-family="Arial"
           font-size="13px"
           font-style="normal"
           font-weight="normal"
           text-decoration="none"
           x="398"
           y="280"
           id="text354">6 : getMaxEastCoordinate()</text>
      </g>
    </g>
    <g
       transform="translate(-54,-30) scale(1,1)"
       id="g356">
      <rect
         fill="#ffffff"
         stroke="none"
         x="432"
         y="284"
         width="13"
         height="28"
         id="rect358" />
    </g>
    <g
       transform="translate(-54,-30) scale(1,1)"
       id="g360">
      <path
         fill="none"
         stroke="#000000"
         d="M 432 284 L 445 284 L 445 312 L 432 312 L 432 284 Z Z"
         stroke-miterlimit="10"
         id="path362" />
    </g>
    <g
       transform="translate(-54,-30) scale(1,1)"
       id="g364">
      <path
         fill="none"
         stroke="#000000"
         d="M 438 320 L 468 320 L 468 340 L 445 340"
         stroke-miterlimit="10"
         id="path366" />
    </g>
    <g
       transform="translate(-54,-30) scale(1,1)"
       id="g368">
      <path
         fill="#000000"
         stroke="none"
         d="M 455.16267485762415 335.790482243984 L 445 340 L 455.16267485762415 344.209517756016"
         id="path370" />
    </g>
    <g
       transform="translate(-54,-30) scale(1,1)"
       id="g372">
      <path
         fill="none"
         stroke="#000000"
         d="M 455.16267485762415 335.790482243984 L 445 340 L 455.16267485762415 344.209517756016 L 455.16267485762415 335.790482243984"
         stroke-miterlimit="10"
         id="path374" />
    </g>
    <g
       transform="translate(-54,-30) scale(1,1)"
       id="g376">
      <g
         id="g378">
        <path
           fill="none"
           stroke="none"
           id="path380" />
        <text
           fill="#000000"
           stroke="none"
           font-family="Arial"
           font-size="13px"
           font-style="normal"
           font-weight="normal"
           text-decoration="none"
           x="396"
           y="336"
           id="text382">7 : getMaxNorthCoordinate()</text>
      </g>
    </g>
    <g
       transform="translate(-54,-30) scale(1,1)"
       id="g384">
      <rect
         fill="#ffffff"
         stroke="none"
         x="432"
         y="340"
         width="13"
         height="28"
         id="rect386" />
    </g>
    <g
       transform="translate(-54,-30) scale(1,1)"
       id="g388">
      <path
         fill="none"
         stroke="#000000"
         d="M 432 340 L 445 340 L 445 368 L 432 368 L 432 340 Z Z"
         stroke-miterlimit="10"
         id="path390" />
    </g>
    <g
       transform="translate(-54,-30) scale(1,1)"
       id="g392">
      <path
         fill="none"
         stroke="#000000"
         d="M 438 392 L 714 392"
         stroke-miterlimit="10"
         id="path394" />
    </g>
    <g
       transform="translate(-54,-30) scale(1,1)"
       id="g396">
      <path
         fill="#000000"
         stroke="none"
         d="M 703.8373251423759 396.209517756016 L 714 392 L 703.8373251423758 387.790482243984"
         id="path398" />
    </g>
    <g
       transform="translate(-54,-30) scale(1,1)"
       id="g400">
      <path
         fill="none"
         stroke="#000000"
         d="M 703.8373251423759 396.209517756016 L 714 392 L 703.8373251423758 387.790482243984 L 703.8373251423759 396.209517756016"
         stroke-miterlimit="10"
         id="path402" />
    </g>
    <g
       transform="translate(-54,-30) scale(1,1)"
       id="g404">
      <g
         id="g406">
        <path
           fill="none"
           stroke="none"
           id="path408" />
        <text
           fill="#000000"
           stroke="none"
           font-family="Arial"
           font-size="13px"
           font-style="normal"
           font-weight="normal"
           text-decoration="none"
           x="525"
           y="389"
           id="text410">8 : println(aString)</text>
      </g>
    </g>
    <g
       transform="translate(-54,-30) scale(1,1)"
       id="g412">
      <rect
         fill="#ffffff"
         stroke="none"
         x="714"
         y="392"
         width="13"
         height="28"
         id="rect414" />
    </g>
    <g
       transform="translate(-54,-30) scale(1,1)"
       id="g416">
      <path
         fill="none"
         stroke="#000000"
         d="M 714 392 L 727 392 L 727 420 L 714 420 L 714 392 Z Z"
         stroke-miterlimit="10"
         id="path418" />
    </g>
    <g
       transform="translate(-54,-30) scale(1,1)"
       id="g420">
      <path
         fill="none"
         stroke="#000000"
         d="M 425 448 L 315 448"
         stroke-miterlimit="10"
         id="path422" />
    </g>
    <g
       transform="translate(-54,-30) scale(1,1)"
       id="g424">
      <path
         fill="#000000"
         stroke="none"
         d="M 325.16267485762415 443.790482243984 L 315 448 L 325.16267485762415 452.209517756016"
         id="path426" />
    </g>
    <g
       transform="translate(-54,-30) scale(1,1)"
       id="g428">
      <path
         fill="none"
         stroke="#000000"
         d="M 325.16267485762415 443.790482243984 L 315 448 L 325.16267485762415 452.209517756016 L 325.16267485762415 443.790482243984"
         stroke-miterlimit="10"
         id="path430" />
    </g>
    <g
       transform="translate(-54,-30) scale(1,1)"
       id="g432">
      <g
         id="g434">
        <path
           fill="none"
           stroke="none"
           id="path436" />
        <text
           fill="#000000"
           stroke="none"
           font-family="Arial"
           font-size="13px"
           font-style="normal"
           font-weight="normal"
           text-decoration="none"
           x="330"
           y="444"
           id="text438">9 : getNodes</text>
      </g>
    </g>
    <g
       transform="translate(-54,-30) scale(1,1)"
       id="g440">
      <rect
         fill="#ffffff"
         stroke="none"
         x="302"
         y="448"
         width="13"
         height="28"
         id="rect442" />
    </g>
    <g
       transform="translate(-54,-30) scale(1,1)"
       id="g444">
      <path
         fill="none"
         stroke="#000000"
         d="M 302 448 L 315 448 L 315 476 L 302 476 L 302 448 Z Z"
         stroke-miterlimit="10"
         id="path446" />
    </g>
    <g
       transform="translate(-54,-30) scale(1,1)"
       id="g448">
      <path
         fill="none"
         stroke="#000000"
         d="M 315 472 L 425 472"
         stroke-miterlimit="10"
         stroke-dasharray="3"
         id="path450" />
    </g>
    <g
       transform="translate(-54,-30) scale(1,1)"
       id="g452">
      <path
         fill="none"
         stroke="#000000"
         d="M 414.83732514237585 476.209517756016 L 425 472 L 414.83732514237585 467.790482243984"
         stroke-miterlimit="10"
         id="path454" />
    </g>
    <g
       transform="translate(-54,-30) scale(1,1)"
       id="g456">
      <g
         id="g458">
        <path
           fill="none"
           stroke="none"
           id="path460" />
        <text
           fill="#000000"
           stroke="none"
           font-family="Arial"
           font-size="13px"
           font-style="normal"
           font-weight="normal"
           text-decoration="none"
           x="332"
           y="467"
           id="text462">10 : nodes</text>
      </g>
    </g>
    <g
       transform="translate(-54,-30) scale(1,1)"
       id="g464">
      <path
         fill="none"
         stroke="#000000"
         d="M 438 496 L 825 496"
         stroke-miterlimit="10"
         id="path466" />
    </g>
    <g
       transform="translate(-54,-30) scale(1,1)"
       id="g468">
      <path
         fill="#000000"
         stroke="none"
         d="M 814.8373251423759 500.209517756016 L 825 496 L 814.8373251423758 491.790482243984"
         id="path470" />
    </g>
    <g
       transform="translate(-54,-30) scale(1,1)"
       id="g472">
      <path
         fill="none"
         stroke="#000000"
         d="M 814.8373251423759 500.209517756016 L 825 496 L 814.8373251423758 491.790482243984 L 814.8373251423759 500.209517756016"
         stroke-miterlimit="10"
         id="path474" />
    </g>
    <g
       transform="translate(-54,-30) scale(1,1)"
       id="g476">
      <g
         id="g478">
        <path
           fill="none"
           stroke="none"
           id="path480" />
        <text
           fill="#000000"
           stroke="none"
           font-family="Arial"
           font-size="13px"
           font-style="normal"
           font-weight="normal"
           text-decoration="none"
           x="503"
           y="492"
           id="text482">11 : accept(aNetLogoGraphVisitor)</text>
      </g>
    </g>
    <g
       transform="translate(-54,-30) scale(1,1)"
       id="g484">
      <rect
         fill="#ffffff"
         stroke="none"
         x="825"
         y="496"
         width="13"
         height="88"
         id="rect486" />
    </g>
    <g
       transform="translate(-54,-30) scale(1,1)"
       id="g488">
      <path
         fill="none"
         stroke="#000000"
         d="M 825 496 L 838 496 L 838 584 L 825 584 L 825 496 Z Z"
         stroke-miterlimit="10"
         id="path490" />
    </g>
    <g
       transform="translate(-54,-30) scale(1,1)"
       id="g492">
      <path
         fill="none"
         stroke="#000000"
         d="M 825 520 L 445 520"
         stroke-miterlimit="10"
         id="path494" />
    </g>
    <g
       transform="translate(-54,-30) scale(1,1)"
       id="g496">
      <path
         fill="#000000"
         stroke="none"
         d="M 455.16267485762415 515.790482243984 L 445 520 L 455.16267485762415 524.209517756016"
         id="path498" />
    </g>
    <g
       transform="translate(-54,-30) scale(1,1)"
       id="g500">
      <path
         fill="none"
         stroke="#000000"
         d="M 455.16267485762415 515.790482243984 L 445 520 L 455.16267485762415 524.209517756016 L 455.16267485762415 515.790482243984"
         stroke-miterlimit="10"
         id="path502" />
    </g>
    <g
       transform="translate(-54,-30) scale(1,1)"
       id="g504">
      <g
         id="g506">
        <path
           fill="none"
           stroke="none"
           id="path508" />
        <text
           fill="#000000"
           stroke="none"
           font-family="Arial"
           font-size="13px"
           font-style="normal"
           font-weight="normal"
           text-decoration="none"
           x="599"
           y="517"
           id="text510">12 : visit(aRegularNode)</text>
      </g>
    </g>
    <g
       transform="translate(-54,-30) scale(1,1)"
       id="g512">
      <rect
         fill="#ffffff"
         stroke="none"
         x="432"
         y="520"
         width="13"
         height="56"
         id="rect514" />
    </g>
    <g
       transform="translate(-54,-30) scale(1,1)"
       id="g516">
      <path
         fill="none"
         stroke="#000000"
         d="M 432 520 L 445 520 L 445 576 L 432 576 L 432 520 Z Z"
         stroke-miterlimit="10"
         id="path518" />
    </g>
    <g
       transform="translate(-54,-30) scale(1,1)"
       id="g520">
      <path
         fill="none"
         stroke="#000000"
         d="M 445 544 L 714 544"
         stroke-miterlimit="10"
         id="path522" />
    </g>
    <g
       transform="translate(-54,-30) scale(1,1)"
       id="g524">
      <path
         fill="#000000"
         stroke="none"
         d="M 703.8373251423759 548.209517756016 L 714 544 L 703.8373251423758 539.790482243984"
         id="path526" />
    </g>
    <g
       transform="translate(-54,-30) scale(1,1)"
       id="g528">
      <path
         fill="none"
         stroke="#000000"
         d="M 703.8373251423759 548.209517756016 L 714 544 L 703.8373251423758 539.790482243984 L 703.8373251423759 548.209517756016"
         stroke-miterlimit="10"
         id="path530" />
    </g>
    <g
       transform="translate(-54,-30) scale(1,1)"
       id="g532">
      <g
         id="g534">
        <path
           fill="none"
           stroke="none"
           id="path536" />
        <text
           fill="#000000"
           stroke="none"
           font-family="Arial"
           font-size="13px"
           font-style="normal"
           font-weight="normal"
           text-decoration="none"
           x="515"
           y="540"
           id="text538">13 : println(aString)</text>
      </g>
    </g>
    <g
       transform="translate(-54,-30) scale(1,1)"
       id="g540">
      <rect
         fill="#ffffff"
         stroke="none"
         x="714"
         y="544"
         width="13"
         height="28"
         id="rect542" />
    </g>
    <g
       transform="translate(-54,-30) scale(1,1)"
       id="g544">
      <path
         fill="none"
         stroke="#000000"
         d="M 714 544 L 727 544 L 727 572 L 714 572 L 714 544 Z Z"
         stroke-miterlimit="10"
         id="path546" />
    </g>
    <g
       transform="translate(-54,-30) scale(1,1)"
       id="g548">
      <path
         fill="none"
         stroke="#000000"
         d="M 438 648 L 585 648"
         stroke-miterlimit="10"
         id="path550" />
    </g>
    <g
       transform="translate(-54,-30) scale(1,1)"
       id="g552">
      <path
         fill="#000000"
         stroke="none"
         d="M 574.8373251423759 652.209517756016 L 585 648 L 574.8373251423758 643.790482243984"
         id="path554" />
    </g>
    <g
       transform="translate(-54,-30) scale(1,1)"
       id="g556">
      <path
         fill="none"
         stroke="#000000"
         d="M 574.8373251423759 652.209517756016 L 585 648 L 574.8373251423758 643.790482243984 L 574.8373251423759 652.209517756016"
         stroke-miterlimit="10"
         id="path558" />
    </g>
    <g
       transform="translate(-54,-30) scale(1,1)"
       id="g560">
      <g
         id="g562">
        <path
           fill="none"
           stroke="none"
           id="path564" />
        <text
           fill="#000000"
           stroke="none"
           font-family="Arial"
           font-size="13px"
           font-style="normal"
           font-weight="normal"
           text-decoration="none"
           x="468"
           y="641"
           id="text566">14 : readLine</text>
      </g>
    </g>
    <g
       transform="translate(-54,-30) scale(1,1)"
       id="g568">
      <rect
         fill="#ffffff"
         stroke="none"
         x="585"
         y="648"
         width="13"
         height="28"
         id="rect570" />
    </g>
    <g
       transform="translate(-54,-30) scale(1,1)"
       id="g572">
      <path
         fill="none"
         stroke="#000000"
         d="M 585 648 L 598 648 L 598 676 L 585 676 L 585 648 Z Z"
         stroke-miterlimit="10"
         id="path574" />
    </g>
    <g
       transform="translate(-54,-30) scale(1,1)"
       id="g576">
      <path
         fill="none"
         stroke="#000000"
         d="M 585 672 L 438 672"
         stroke-miterlimit="10"
         stroke-dasharray="3"
         id="path578" />
    </g>
    <g
       transform="translate(-54,-30) scale(1,1)"
       id="g580">
      <path
         fill="none"
         stroke="#000000"
         d="M 448.16267485762415 667.790482243984 L 438 672 L 448.16267485762415 676.209517756016"
         stroke-miterlimit="10"
         id="path582" />
    </g>
    <g
       transform="translate(-54,-30) scale(1,1)"
       id="g584">
      <g
         id="g586">
        <path
           fill="none"
           stroke="none"
           id="path588" />
        <text
           fill="#000000"
           stroke="none"
           font-family="Arial"
           font-size="13px"
           font-style="normal"
           font-weight="normal"
           text-decoration="none"
           x="476"
           y="668"
           id="text590">15 : aString</text>
      </g>
    </g>
    <g
       transform="translate(-54,-30) scale(1,1)"
       id="g592">
      <path
         fill="none"
         stroke="#000000"
         d="M 438 704 L 714 704"
         stroke-miterlimit="10"
         id="path594" />
    </g>
    <g
       transform="translate(-54,-30) scale(1,1)"
       id="g596">
      <path
         fill="#000000"
         stroke="none"
         d="M 703.8373251423759 708.209517756016 L 714 704 L 703.8373251423758 699.790482243984"
         id="path598" />
    </g>
    <g
       transform="translate(-54,-30) scale(1,1)"
       id="g600">
      <path
         fill="none"
         stroke="#000000"
         d="M 703.8373251423759 708.209517756016 L 714 704 L 703.8373251423758 699.790482243984 L 703.8373251423759 708.209517756016"
         stroke-miterlimit="10"
         id="path602" />
    </g>
    <g
       transform="translate(-54,-30) scale(1,1)"
       id="g604">
      <g
         id="g606">
        <path
           fill="none"
           stroke="none"
           id="path608" />
        <text
           fill="#000000"
           stroke="none"
           font-family="Arial"
           font-size="13px"
           font-style="normal"
           font-weight="normal"
           text-decoration="none"
           x="503"
           y="700"
           id="text610">16 : println(aString)</text>
      </g>
    </g>
    <g
       transform="translate(-54,-30) scale(1,1)"
       id="g612">
      <rect
         fill="#ffffff"
         stroke="none"
         x="714"
         y="704"
         width="13"
         height="28"
         id="rect614" />
    </g>
    <g
       transform="translate(-54,-30) scale(1,1)"
       id="g616">
      <path
         fill="none"
         stroke="#000000"
         d="M 714 704 L 727 704 L 727 732 L 714 732 L 714 704 Z Z"
         stroke-miterlimit="10"
         id="path618" />
    </g>
    <g
       transform="translate(-54,-30) scale(1,1)"
       id="g184">
      <path
         fill="#ffffff"
         stroke="none"
         d="M 368 120 L 368 142 L 744 142 L 755 131 L 755 120 L 368 120"
         id="path186" />
    </g>
    <g
       transform="translate(-54,-30) scale(1,1)"
       id="g188">
      <path
         fill="none"
         stroke="#000000"
         d="M 368 120 L 368 142 L 744 142 L 755 131 L 755 120 L 368 120 L 368 120"
         stroke-miterlimit="10"
         id="path190" />
    </g>
    <g
       transform="translate(-53.948978,-32.628443)"
       id="g200">
      <g
         id="g202">
        <path
           id="path204"
           d=""
           inkscape:connector-curvature="0"
           style="fill:none;stroke:none" />
        <text
           font-size="13px"
           font-style="normal"
           font-weight="bold"
           text-decoration="none"
           x="373"
           y="137.5"
           id="text206"
           style="font-size:13px;font-style:normal;font-weight:bold;text-decoration:none;fill:#000000;stroke:none;font-family:Arial">loop</text>
      </g>
    </g>
    <g
       transform="translate(-52.041555,-32.015656)"
       id="g192">
      <g
         id="g194">
        <path
           id="path196"
           d=""
           inkscape:connector-curvature="0"
           style="fill:none;stroke:none" />
        <text
           font-size="13px"
           font-style="normal"
           font-weight="normal"
           text-decoration="none"
           x="403"
           y="137.5"
           id="text198"
           style="font-size:13px;font-style:normal;font-weight:normal;text-decoration:none;fill:#000000;stroke:none;font-family:Arial">[while (!((l = inputStream.readLine()).equals(&quot;;;===start&quot;)))]</text>
      </g>
    </g>
    <g
       transform="translate(-54,-30) scale(1,1)"
       id="g36">
      <path
         fill="#ffffff"
         stroke="none"
         d="M 368 600 L 368 622 L 648 622 L 659 611 L 659 600 L 368 600"
         id="path38" />
    </g>
    <g
       transform="translate(-54,-30) scale(1,1)"
       id="g40">
      <path
         fill="none"
         stroke="#000000"
         d="M 368 600 L 368 622 L 648 622 L 659 611 L 659 600 L 368 600 L 368 600"
         stroke-miterlimit="10"
         id="path42" />
    </g>
    <g
       transform="translate(-53.523144,-32.657204)"
       id="g52">
      <g
         id="g54">
        <path
           id="path56"
           inkscape:connector-curvature="0"
           style="fill:none;stroke:none" />
        <text
           font-size="13px"
           font-style="normal"
           font-weight="bold"
           text-decoration="none"
           x="373"
           y="617.5"
           id="text58"
           style="font-size:13px;font-style:normal;font-weight:bold;text-decoration:none;fill:#000000;stroke:none;font-family:Arial">loop</text>
      </g>
    </g>
    <g
       transform="translate(-52.977228,-33.300785)"
       id="g44">
      <g
         id="g46">
        <path
           id="path48"
           d=""
           inkscape:connector-curvature="0"
           style="fill:none;stroke:none" />
        <text
           font-size="13px"
           font-style="normal"
           font-weight="normal"
           text-decoration="none"
           x="403"
           y="617.5"
           id="text50"
           style="font-size:13px;font-style:normal;font-weight:normal;text-decoration:none;fill:#000000;stroke:none;font-family:Arial">[while(aBufferedReader.readline() != null)]</text>
      </g>
    </g>
  </g>
</svg>
