<svg version="1.1" xmlns="http://www.w3.org/2000/svg" xmlns:xlink="http://www.w3.org/1999/xlink" width="438" height="331"><defs></defs><g><g transform="translate(-168,-181) scale(1,1)"><rect fill="#C0C0C0" stroke="none" x="321" y="198" width="157" height="160" opacity="0.2"></rect></g><g transform="translate(-168,-181) scale(1,1)"><rect fill="#ffffff" stroke="none" x="314" y="191" width="157" height="160"></rect></g><g transform="translate(-168,-181) scale(1,1)"><path fill="none" stroke="#000000" d="M 314 191 L 471 191 L 471 351 L 314 351 L 314 191 Z Z" stroke-miterlimit="10"></path></g><g transform="translate(-168,-181) scale(1,1)"><path fill="none" stroke="#000000" d="M 314 229 L 471 229" stroke-miterlimit="10"></path></g><g transform="translate(-168,-181) scale(1,1)"><path fill="none" stroke="#000000" d="M 314 239 L 471 239" stroke-miterlimit="10"></path></g><g transform="translate(-168,-181) scale(1,1)"><g><path fill="none" stroke="none"></path><text fill="#000000" stroke="none" font-family="Arial" font-size="13px" font-style="normal" font-weight="normal" text-decoration="none" x="361" y="208.5">«interface»</text></g></g><g transform="translate(-168,-181) scale(1,1)"><g><path fill="none" stroke="none"></path><text fill="#000000" stroke="none" font-family="Arial" font-size="13px" font-style="normal" font-weight="bold" text-decoration="none" x="374" y="223.5">Visitor</text></g></g><g transform="translate(-168,-181) scale(1,1)"><g><path fill="none" stroke="none"></path><text fill="#000000" stroke="none" font-family="Arial" font-size="13px" font-style="normal" font-weight="normal" text-decoration="none" x="319" y="256.5">+visit(b: Behavior)</text></g></g><g transform="translate(-168,-181) scale(1,1)"><g><path fill="none" stroke="none"></path><text fill="#000000" stroke="none" font-family="Arial" font-size="13px" font-style="normal" font-weight="normal" text-decoration="none" x="319" y="271.5">+visit(e: DirectedEdge)</text></g></g><g transform="translate(-168,-181) scale(1,1)"><g><path fill="none" stroke="none"></path><text fill="#000000" stroke="none" font-family="Arial" font-size="13px" font-style="normal" font-weight="normal" text-decoration="none" x="319" y="286.5">+visit(e: UndirectedEdge)</text></g></g><g transform="translate(-168,-181) scale(1,1)"><g><path fill="none" stroke="none"></path><text fill="#000000" stroke="none" font-family="Arial" font-size="13px" font-style="normal" font-weight="normal" text-decoration="none" x="319" y="301.5">+visit(n: RegularNode)</text></g></g><g transform="translate(-168,-181) scale(1,1)"><g><path fill="none" stroke="none"></path><text fill="#000000" stroke="none" font-family="Arial" font-size="13px" font-style="normal" font-weight="normal" text-decoration="none" x="319" y="316.5">+visit(n: EntryPoint)</text></g></g><g transform="translate(-168,-181) scale(1,1)"><g><path fill="none" stroke="none"></path><text fill="#000000" stroke="none" font-family="Arial" font-size="13px" font-style="normal" font-weight="normal" text-decoration="none" x="319" y="331.5">+visit(n: ExitPoint)</text></g></g><g transform="translate(-168,-181) scale(1,1)"><g><path fill="none" stroke="none"></path><text fill="#000000" stroke="none" font-family="Arial" font-size="13px" font-style="normal" font-weight="normal" text-decoration="none" x="319" y="346.5">+visit(g: Graph)</text></g></g><g transform="translate(-168,-181) scale(1,1)"><rect fill="#C0C0C0" stroke="none" x="185" y="422" width="202" height="87" opacity="0.2"></rect></g><g transform="translate(-168,-181) scale(1,1)"><rect fill="#ffffff" stroke="none" x="178" y="415" width="202" height="87"></rect></g><g transform="translate(-168,-181) scale(1,1)"><path fill="none" stroke="#000000" d="M 178 415 L 380 415 L 380 502 L 178 502 L 178 415 Z Z" stroke-miterlimit="10"></path></g><g transform="translate(-168,-181) scale(1,1)"><path fill="none" stroke="#000000" d="M 178 440 L 380 440" stroke-miterlimit="10"></path></g><g transform="translate(-168,-181) scale(1,1)"><path fill="none" stroke="#000000" d="M 178 493 L 380 493" stroke-miterlimit="10"></path></g><g transform="translate(-168,-181) scale(1,1)"><g><path fill="none" stroke="none"></path><text fill="#000000" stroke="none" font-family="Arial" font-size="13px" font-style="normal" font-weight="bold" text-decoration="none" x="212" y="434.5">NetLogoBehaviorVisitor</text></g></g><g transform="translate(-168,-181) scale(1,1)"><g><path fill="none" stroke="none"></path><text fill="#000000" stroke="none" font-family="Arial" font-size="13px" font-style="normal" font-weight="normal" text-decoration="none" x="183" y="457.5">-inputStream: BufferedReader</text></g></g><g transform="translate(-168,-181) scale(1,1)"><g><path fill="none" stroke="none"></path><text fill="#000000" stroke="none" font-family="Arial" font-size="13px" font-style="normal" font-weight="normal" text-decoration="none" x="183" y="472.5">-outputStrea: PrintWriter</text></g></g><g transform="translate(-168,-181) scale(1,1)"><g><path fill="none" stroke="none"></path><text fill="#000000" stroke="none" font-family="Arial" font-size="13px" font-style="normal" font-weight="normal" text-decoration="none" x="183" y="487.5">-myFileWriter: FileWriter</text></g></g><g transform="translate(-168,-181) scale(1,1)"><path fill="none" stroke="#000000" d="M 274 415 L 274 391 L 386 391 L 386 351" stroke-miterlimit="10"></path></g><g transform="translate(-168,-181) scale(1,1)"><path fill="#FFFFFF" stroke="none" d="M 394.419035512032 371.3253497152483 L 386 351 L 377.580964487968 371.3253497152483"></path></g><g transform="translate(-168,-181) scale(1,1)"><path fill="none" stroke="#000000" d="M 394.419035512032 371.3253497152483 L 386 351 L 377.580964487968 371.3253497152483 L 394.419035512032 371.3253497152483" stroke-miterlimit="10"></path></g><g transform="translate(-168,-181) scale(1,1)"><rect fill="#C0C0C0" stroke="none" x="401" y="422" width="202" height="87" opacity="0.2"></rect></g><g transform="translate(-168,-181) scale(1,1)"><rect fill="#ffffff" stroke="none" x="394" y="415" width="202" height="87"></rect></g><g transform="translate(-168,-181) scale(1,1)"><path fill="none" stroke="#000000" d="M 394 415 L 596 415 L 596 502 L 394 502 L 394 415 Z Z" stroke-miterlimit="10"></path></g><g transform="translate(-168,-181) scale(1,1)"><path fill="none" stroke="#000000" d="M 394 440 L 596 440" stroke-miterlimit="10"></path></g><g transform="translate(-168,-181) scale(1,1)"><path fill="none" stroke="#000000" d="M 394 493 L 596 493" stroke-miterlimit="10"></path></g><g transform="translate(-168,-181) scale(1,1)"><g><path fill="none" stroke="none"></path><text fill="#000000" stroke="none" font-family="Arial" font-size="13px" font-style="normal" font-weight="bold" text-decoration="none" x="435" y="434.5">NetLogoGraphVisitor</text></g></g><g transform="translate(-168,-181) scale(1,1)"><g><path fill="none" stroke="none"></path><text fill="#000000" stroke="none" font-family="Arial" font-size="13px" font-style="normal" font-weight="normal" text-decoration="none" x="399" y="457.5">-inputStream: BufferedReader</text></g></g><g transform="translate(-168,-181) scale(1,1)"><g><path fill="none" stroke="none"></path><text fill="#000000" stroke="none" font-family="Arial" font-size="13px" font-style="normal" font-weight="normal" text-decoration="none" x="399" y="472.5">-outputStream: PrintWriter</text></g></g><g transform="translate(-168,-181) scale(1,1)"><g><path fill="none" stroke="none"></path><text fill="#000000" stroke="none" font-family="Arial" font-size="13px" font-style="normal" font-weight="normal" text-decoration="none" x="399" y="487.5">-myFileWriter: FileWriter</text></g></g><g transform="translate(-168,-181) scale(1,1)"><path fill="none" stroke="#000000" d="M 498 415 L 498 391 L 386 391 L 386 351" stroke-miterlimit="10"></path></g><g transform="translate(-168,-181) scale(1,1)"><path fill="#FFFFFF" stroke="none" d="M 394.419035512032 371.3253497152483 L 386 351 L 377.580964487968 371.3253497152483"></path></g><g transform="translate(-168,-181) scale(1,1)"><path fill="none" stroke="#000000" d="M 394.419035512032 371.3253497152483 L 386 351 L 377.580964487968 371.3253497152483 L 394.419035512032 371.3253497152483" stroke-miterlimit="10"></path></g></g></svg>