<svg version="1.1" xmlns="http://www.w3.org/2000/svg" xmlns:xlink="http://www.w3.org/1999/xlink" width="672" height="266"><defs></defs><g><g transform="translate(-46,-30) scale(1,1)"><rect fill="#C0C0C0" stroke="none" x="63" y="47" width="134" height="39" opacity="0.2"></rect></g><g transform="translate(-46,-30) scale(1,1)"><rect fill="#ffffff" stroke="none" x="56" y="40" width="134" height="39"></rect></g><g transform="translate(-46,-30) scale(1,1)"><path fill="none" stroke="#000000" d="M 56 40 L 190 40 L 190 79 L 56 79 L 56 40 Z Z" stroke-miterlimit="10"></path></g><g transform="translate(-46,-30) scale(1,1)"><g><path fill="none" stroke="none"></path><text fill="#000000" stroke="none" font-family="Arial" font-size="13px" font-style="normal" font-weight="bold" text-decoration="none" x="70.5" y="59.5">anObjectStructure</text></g></g><g transform="translate(-46,-30) scale(1,1)"><path fill="none" stroke="#000000" d="M 124.5 80 L 124.5 286" stroke-miterlimit="10" stroke-dasharray="3"></path></g><g transform="translate(-46,-30) scale(1,1)"><rect fill="#C0C0C0" stroke="none" x="207" y="47" width="145" height="39" opacity="0.2"></rect></g><g transform="translate(-46,-30) scale(1,1)"><rect fill="#ffffff" stroke="none" x="200" y="40" width="145" height="39"></rect></g><g transform="translate(-46,-30) scale(1,1)"><path fill="none" stroke="#000000" d="M 200 40 L 345 40 L 345 79 L 200 79 L 200 40 Z Z" stroke-miterlimit="10"></path></g><g transform="translate(-46,-30) scale(1,1)"><g><path fill="none" stroke="none"></path><text fill="#000000" stroke="none" font-family="Arial" font-size="13px" font-style="normal" font-weight="bold" text-decoration="none" x="214.5" y="59.5">aConcreteElementA</text></g></g><g transform="translate(-46,-30) scale(1,1)"><path fill="none" stroke="#000000" d="M 273.5 80 L 273.5 239" stroke-miterlimit="10" stroke-dasharray="3"></path></g><g transform="translate(-46,-30) scale(1,1)"><rect fill="#C0C0C0" stroke="none" x="375" y="47" width="145" height="39" opacity="0.2"></rect></g><g transform="translate(-46,-30) scale(1,1)"><rect fill="#ffffff" stroke="none" x="368" y="40" width="145" height="39"></rect></g><g transform="translate(-46,-30) scale(1,1)"><path fill="none" stroke="#000000" d="M 368 40 L 513 40 L 513 79 L 368 79 L 368 40 Z Z" stroke-miterlimit="10"></path></g><g transform="translate(-46,-30) scale(1,1)"><g><path fill="none" stroke="none"></path><text fill="#000000" stroke="none" font-family="Arial" font-size="13px" font-style="normal" font-weight="bold" text-decoration="none" x="382.5" y="59.5">aConcreteElementB</text></g></g><g transform="translate(-46,-30) scale(1,1)"><path fill="none" stroke="#000000" d="M 441.5 80 L 441.5 286" stroke-miterlimit="10" stroke-dasharray="3"></path></g><g transform="translate(-46,-30) scale(1,1)"><rect fill="#C0C0C0" stroke="none" x="591" y="47" width="124" height="39" opacity="0.2"></rect></g><g transform="translate(-46,-30) scale(1,1)"><rect fill="#ffffff" stroke="none" x="584" y="40" width="124" height="39"></rect></g><g transform="translate(-46,-30) scale(1,1)"><path fill="none" stroke="#000000" d="M 584 40 L 708 40 L 708 79 L 584 79 L 584 40 Z Z" stroke-miterlimit="10"></path></g><g transform="translate(-46,-30) scale(1,1)"><g><path fill="none" stroke="none"></path><text fill="#000000" stroke="none" font-family="Arial" font-size="13px" font-style="normal" font-weight="bold" text-decoration="none" x="598" y="59.5">aConcreteVisitor</text></g></g><g transform="translate(-46,-30) scale(1,1)"><path fill="none" stroke="#000000" d="M 647.5 80 L 647.5 278" stroke-miterlimit="10" stroke-dasharray="3"></path></g><g transform="translate(-46,-30) scale(1,1)"><path fill="none" stroke="#000000" d="M 124 120 L 266 120" stroke-miterlimit="10"></path></g><g transform="translate(-46,-30) scale(1,1)"><path fill="#000000" stroke="none" d="M 255.83732514237585 124.20951775601598 L 266 120 L 255.83732514237585 115.79048224398402"></path></g><g transform="translate(-46,-30) scale(1,1)"><path fill="none" stroke="#000000" d="M 255.83732514237585 124.20951775601598 L 266 120 L 255.83732514237585 115.79048224398402 L 255.83732514237585 124.20951775601598" stroke-miterlimit="10"></path></g><g transform="translate(-46,-30) scale(1,1)"><g><path fill="none" stroke="none"></path><text fill="#000000" stroke="none" font-family="Arial" font-size="13px" font-style="normal" font-weight="normal" text-decoration="none" x="142" y="117">1 : accept(aVistor)</text></g></g><g transform="translate(-46,-30) scale(1,1)"><rect fill="#ffffff" stroke="none" x="266" y="120" width="13" height="64"></rect></g><g transform="translate(-46,-30) scale(1,1)"><path fill="none" stroke="#000000" d="M 266 120 L 279 120 L 279 184 L 266 184 L 266 120 Z Z" stroke-miterlimit="10"></path></g><g transform="translate(-46,-30) scale(1,1)"><path fill="none" stroke="#000000" d="M 279 128 L 640 128" stroke-miterlimit="10"></path></g><g transform="translate(-46,-30) scale(1,1)"><path fill="#000000" stroke="none" d="M 629.8373251423759 132.209517756016 L 640 128 L 629.8373251423758 123.79048224398402"></path></g><g transform="translate(-46,-30) scale(1,1)"><path fill="none" stroke="#000000" d="M 629.8373251423759 132.209517756016 L 640 128 L 629.8373251423758 123.79048224398402 L 629.8373251423759 132.209517756016" stroke-miterlimit="10"></path></g><g transform="translate(-46,-30) scale(1,1)"><g><path fill="none" stroke="none"></path><text fill="#000000" stroke="none" font-family="Arial" font-size="13px" font-style="normal" font-weight="normal" text-decoration="none" x="370" y="125">2 : visitConcreteElementA(this)</text></g></g><g transform="translate(-46,-30) scale(1,1)"><rect fill="#ffffff" stroke="none" x="640" y="128" width="13" height="48"></rect></g><g transform="translate(-46,-30) scale(1,1)"><path fill="none" stroke="#000000" d="M 640 128 L 653 128 L 653 176 L 640 176 L 640 128 Z Z" stroke-miterlimit="10"></path></g><g transform="translate(-46,-30) scale(1,1)"><path fill="none" stroke="#000000" d="M 640 148 L 286 148" stroke-miterlimit="10"></path></g><g transform="translate(-46,-30) scale(1,1)"><path fill="#000000" stroke="none" d="M 296.16267485762415 143.790482243984 L 286 148 L 296.16267485762415 152.209517756016"></path></g><g transform="translate(-46,-30) scale(1,1)"><path fill="none" stroke="#000000" d="M 296.16267485762415 143.790482243984 L 286 148 L 296.16267485762415 152.209517756016 L 296.16267485762415 143.790482243984" stroke-miterlimit="10"></path></g><g transform="translate(-46,-30) scale(1,1)"><g><path fill="none" stroke="none"></path><text fill="#000000" stroke="none" font-family="Arial" font-size="13px" font-style="normal" font-weight="normal" text-decoration="none" x="422" y="165">3 : operationA</text></g></g><g transform="translate(-46,-30) scale(1,1)"><rect fill="#ffffff" stroke="none" x="273" y="148" width="13" height="28"></rect></g><g transform="translate(-46,-30) scale(1,1)"><path fill="none" stroke="#000000" d="M 273 148 L 286 148 L 286 176 L 273 176 L 273 148 Z Z" stroke-miterlimit="10"></path></g><g transform="translate(-46,-30) scale(1,1)"><path fill="none" stroke="#000000" d="M 124 208 L 434 208" stroke-miterlimit="10"></path></g><g transform="translate(-46,-30) scale(1,1)"><path fill="#000000" stroke="none" d="M 423.83732514237585 212.209517756016 L 434 208 L 423.83732514237585 203.790482243984"></path></g><g transform="translate(-46,-30) scale(1,1)"><path fill="none" stroke="#000000" d="M 423.83732514237585 212.209517756016 L 434 208 L 423.83732514237585 203.790482243984 L 423.83732514237585 212.209517756016" stroke-miterlimit="10"></path></g><g transform="translate(-46,-30) scale(1,1)"><g><path fill="none" stroke="none"></path><text fill="#000000" stroke="none" font-family="Arial" font-size="13px" font-style="normal" font-weight="normal" text-decoration="none" x="224" y="205">4 : accept(aVisitor)</text></g></g><g transform="translate(-46,-30) scale(1,1)"><rect fill="#ffffff" stroke="none" x="434" y="208" width="13" height="64"></rect></g><g transform="translate(-46,-30) scale(1,1)"><path fill="none" stroke="#000000" d="M 434 208 L 447 208 L 447 272 L 434 272 L 434 208 Z Z" stroke-miterlimit="10"></path></g><g transform="translate(-46,-30) scale(1,1)"><path fill="none" stroke="#000000" d="M 447 216 L 640 216" stroke-miterlimit="10"></path></g><g transform="translate(-46,-30) scale(1,1)"><path fill="#000000" stroke="none" d="M 629.8373251423759 220.209517756016 L 640 216 L 629.8373251423758 211.790482243984"></path></g><g transform="translate(-46,-30) scale(1,1)"><path fill="none" stroke="#000000" d="M 629.8373251423759 220.209517756016 L 640 216 L 629.8373251423758 211.790482243984 L 629.8373251423759 220.209517756016" stroke-miterlimit="10"></path></g><g transform="translate(-46,-30) scale(1,1)"><g><path fill="none" stroke="none"></path><text fill="#000000" stroke="none" font-family="Arial" font-size="13px" font-style="normal" font-weight="normal" text-decoration="none" x="454" y="213">5 : visitConcreteElementB(this)</text></g></g><g transform="translate(-46,-30) scale(1,1)"><rect fill="#ffffff" stroke="none" x="640" y="216" width="13" height="48"></rect></g><g transform="translate(-46,-30) scale(1,1)"><path fill="none" stroke="#000000" d="M 640 216 L 653 216 L 653 264 L 640 264 L 640 216 Z Z" stroke-miterlimit="10"></path></g><g transform="translate(-46,-30) scale(1,1)"><path fill="none" stroke="#000000" d="M 640 236 L 454 236" stroke-miterlimit="10"></path></g><g transform="translate(-46,-30) scale(1,1)"><path fill="#000000" stroke="none" d="M 464.16267485762415 231.790482243984 L 454 236 L 464.16267485762415 240.209517756016"></path></g><g transform="translate(-46,-30) scale(1,1)"><path fill="none" stroke="#000000" d="M 464.16267485762415 231.790482243984 L 454 236 L 464.16267485762415 240.209517756016 L 464.16267485762415 231.790482243984" stroke-miterlimit="10"></path></g><g transform="translate(-46,-30) scale(1,1)"><g><path fill="none" stroke="none"></path><text fill="#000000" stroke="none" font-family="Arial" font-size="13px" font-style="normal" font-weight="normal" text-decoration="none" x="506" y="253">6 : operationB</text></g></g><g transform="translate(-46,-30) scale(1,1)"><rect fill="#ffffff" stroke="none" x="441" y="236" width="13" height="28"></rect></g><g transform="translate(-46,-30) scale(1,1)"><path fill="none" stroke="#000000" d="M 441 236 L 454 236 L 454 264 L 441 264 L 441 236 Z Z" stroke-miterlimit="10"></path></g></g></svg>